<svg width="40" height="40" viewBox="0 0 40 40" fill="none" xmlns="http://www.w3.org/2000/svg">
<path fill-rule="evenodd" clip-rule="evenodd" d="M4.67273 13.9221C4.20583 18.2602 4.22664 23.2636 4.87634 27.5841C5.23584 29.9748 7.18696 31.8075 9.59541 32.0169L12.1125 32.2357C17.3609 32.6919 22.639 32.6919 27.8874 32.2357L30.4044 32.0169C32.8129 31.8075 34.764 29.9748 35.1235 27.5841C35.7732 23.2635 35.7941 18.2605 35.3271 13.9223C35.2668 13.4194 35.1989 12.9172 35.1235 12.4157C34.764 10.0251 32.8129 8.19234 30.4044 7.98298L27.8874 7.76418C22.639 7.30795 17.3609 7.30795 12.1125 7.76418L9.5954 7.98298C7.18696 8.19235 5.23584 10.0251 4.87634 12.4157C4.80096 12.9171 4.73309 13.4192 4.67273 13.9221ZM12.329 10.2548C17.4333 9.81108 22.5665 9.81108 27.6709 10.2548L30.1879 10.4736C31.4451 10.5829 32.4636 11.5396 32.6513 12.7875C32.6708 12.9171 32.6897 13.0467 32.7082 13.1765L23.4398 18.3255C21.3005 19.5141 18.6992 19.5141 16.5599 18.3255L7.29166 13.1765C7.3101 13.0468 7.32906 12.9171 7.34855 12.7875C7.53621 11.5396 8.55469 10.5829 9.81191 10.4736L12.329 10.2548ZM33.0141 15.8664C33.3374 19.646 33.2164 23.4541 32.6513 27.2123C32.4636 28.4603 31.4451 29.417 30.1879 29.5262L27.6709 29.745C22.5665 30.1888 17.4333 30.1888 12.329 29.745L9.81191 29.5262C8.55469 29.417 7.53621 28.4603 7.34855 27.2123C6.7834 23.4541 6.66246 19.646 6.98575 15.8665L15.3458 20.5109C18.2402 22.1189 21.7596 22.1189 24.6539 20.5109L33.0141 15.8664Z" fill="#14509D"/>
</svg>
