<svg width="40" height="40" viewBox="0 0 40 40" fill="none" xmlns="http://www.w3.org/2000/svg">
<path fill-rule="evenodd" clip-rule="evenodd" d="M12.0837 25.0845C12.0699 25.658 12.4483 26.1673 13.0013 26.3196C13.5544 26.472 14.1402 26.2283 14.4221 25.7287L15.9259 23.0628C17.7094 19.9012 21.2597 18.1691 24.8492 18.7094L25.0981 18.7468C25.1428 19.8766 25.2063 21.0058 25.2885 22.1339L25.4016 23.685C25.4936 24.9464 26.9 25.6515 27.9657 24.9705C31.4618 22.7366 34.5012 19.8581 36.9217 16.4885L37.6819 15.4303C37.9949 14.9945 37.9949 14.4075 37.6819 13.9717L36.9217 12.9135C34.5012 9.54389 31.4618 6.66541 27.9657 4.43148C26.9 3.75051 25.4936 4.45562 25.4016 5.71699L25.2885 7.26805C25.2222 8.1776 25.1681 9.08781 25.1262 9.99845L23.4292 9.99845C17.3213 9.99844 12.3292 14.872 12.1824 20.978L12.0837 25.0845ZM25.2213 16.2372C21.1891 15.6303 17.1954 17.2537 14.7216 20.3844C15.1576 15.9458 18.8988 12.4984 23.4292 12.4984L26.327 12.4984C27.0007 12.4984 27.5533 11.9645 27.5763 11.2912C27.6201 10.0099 27.6887 8.72915 27.7819 7.44981L27.791 7.32571C30.5301 9.26182 32.9305 11.6425 34.8913 14.372L35.1276 14.701L34.8913 15.03C32.9305 17.7595 30.5301 20.1402 27.791 22.0763L27.7819 21.9522C27.677 20.5124 27.6033 19.0709 27.561 17.6287C27.5432 17.0243 27.0954 16.5193 26.4975 16.4293L25.2213 16.2372Z" fill="#14509D"/>
<path d="M32.7356 29.0188C32.9321 27.3383 33.0709 25.6527 33.1518 23.9651C33.1606 23.7824 33.2434 23.6112 33.3805 23.4902C33.9861 22.9555 34.5729 22.4 35.1399 21.8246C35.3531 21.6082 35.7257 21.7595 35.7191 22.0632C35.6671 24.4832 35.5003 26.9012 35.2186 29.3092C34.8244 32.6801 32.1172 35.3218 28.7637 35.6966C22.9861 36.3423 17.0139 36.3423 11.2363 35.6966C7.88283 35.3218 5.17561 32.6801 4.78136 29.3092C4.09046 23.4021 4.09046 17.4345 4.78136 11.5273C5.17561 8.15645 7.88283 5.51477 11.2363 5.13997C15.0546 4.71322 18.9578 4.5685 22.8338 4.70581C23.1601 4.71737 23.3848 5.03684 23.3441 5.36082C23.3356 5.4283 23.3288 5.49654 23.3238 5.56553L23.2383 6.73856C23.2187 7.00788 22.9888 7.21278 22.7189 7.20331C18.9738 7.07192 15.2019 7.21232 11.5139 7.6245C9.2971 7.87227 7.52129 9.62163 7.26443 11.8178C6.5961 17.532 6.5961 23.3046 7.26443 29.0188C7.52129 31.2149 9.2971 32.9643 11.5139 33.2121C17.107 33.8372 22.893 33.8372 28.4861 33.2121C30.7029 32.9643 32.4787 31.2149 32.7356 29.0188Z" fill="#14509D"/>
</svg>
