<svg width="40" height="40" viewBox="0 0 40 40" fill="none" xmlns="http://www.w3.org/2000/svg">
<path fill-rule="evenodd" clip-rule="evenodd" d="M12.0833 16.6667C12.0833 12.2944 15.6277 8.75002 20 8.75002C24.3722 8.75002 27.9166 12.2944 27.9166 16.6667C27.9166 21.0389 24.3722 24.5834 20 24.5834C15.6277 24.5834 12.0833 21.0389 12.0833 16.6667ZM20 11.25C17.0084 11.25 14.5833 13.6751 14.5833 16.6667C14.5833 19.6582 17.0084 22.0834 20 22.0834C22.9915 22.0834 25.4166 19.6582 25.4166 16.6667C25.4166 13.6751 22.9915 11.25 20 11.25Z" fill="#14509D"/>
<path fill-rule="evenodd" clip-rule="evenodd" d="M5.8739 14.7614C6.46444 7.59709 12.4514 2.08335 19.64 2.08335H20.3599C27.5486 2.08335 33.5355 7.59709 34.126 14.7614C34.4433 18.61 33.2545 22.4315 30.81 25.421L22.8216 35.1906C21.3633 36.9741 18.6367 36.9741 17.1783 35.1906L9.1899 25.421C6.74547 22.4315 5.55667 18.61 5.8739 14.7614ZM19.64 4.58335C13.7524 4.58335 8.84911 9.09915 8.36545 14.9668C8.10143 18.1699 9.09083 21.3504 11.1253 23.8385L19.1137 33.6081C19.5718 34.1683 20.4282 34.1683 20.8862 33.6081L28.8747 23.8385C30.9091 21.3504 31.8985 18.1699 31.6345 14.9668C31.1508 9.09915 26.2475 4.58335 20.3599 4.58335H19.64Z" fill="#14509D"/>
</svg>
