<svg width="40" height="40" viewBox="0 0 40 40" fill="none" xmlns="http://www.w3.org/2000/svg">
<path fill-rule="evenodd" clip-rule="evenodd" d="M9.73388 16.4272C12.7127 22.9136 18.0135 28.0706 24.6031 30.8649L24.624 30.8737L25.897 31.4411C27.518 32.1634 29.4234 31.6504 30.4627 30.212L32.5867 27.2724C32.7164 27.0928 32.683 26.8432 32.5106 26.7041L28.8027 23.7127C28.6184 23.564 28.3473 23.5987 28.2063 23.7889L26.7632 25.7363C26.4127 26.2092 25.7798 26.3735 25.2435 26.1308C20.3162 23.9009 16.3567 19.9414 14.1268 15.0141C13.8841 14.4778 14.0484 13.8449 14.5214 13.4944L16.4686 12.0513C16.6589 11.9103 16.6936 11.6393 16.5449 11.4549L13.5531 7.74653C13.4141 7.57417 13.1645 7.54069 12.9849 7.67031L10.0295 9.80391C8.58147 10.8492 8.07155 12.7706 8.81065 14.3964L9.73288 16.425C9.73321 16.4257 9.73355 16.4264 9.73388 16.4272ZM23.6166 33.1621C16.4566 30.1228 10.6977 24.5177 7.46092 17.4681L7.45897 17.4639L6.5348 15.431C5.30296 12.7215 6.15284 9.5191 8.56615 7.77691L11.5216 5.64331C12.7785 4.73597 14.5255 4.97031 15.4989 6.1768L18.4906 9.88521C19.5315 11.1755 19.2891 13.0728 17.9572 14.0599L16.8413 14.8868C18.7262 18.5441 21.7135 21.5314 25.3708 23.4163L26.1977 22.3004C27.1848 20.9685 29.0821 20.7261 30.3724 21.767L34.0803 24.7583C35.2872 25.7319 35.5212 27.4797 34.6131 28.7365L32.4891 31.6761C30.7569 34.0736 27.5813 34.9285 24.8795 33.7247L23.6166 33.1621Z" fill="#14509D"/>
</svg>
