<?xml version="1.0" standalone="no"?>
<!DOCTYPE svg PUBLIC "-//W3C//DTD SVG 1.1//EN" "http://www.w3.org/Graphics/SVG/1.1/DTD/svg11.dtd" >
<svg>
<metadata>
Created by FontForge 20090914 at Sat Dec 11 14:38:01 2021
 By www-data
Copyright 2016 The Nunito Sans Project Authors (https://github.com/Fonthausen/NunitoSans)
</metadata>
<defs>
<font id="NunitoSans-Light" horiz-adv-x="0" >
  <font-face 
    font-family="Nunito Sans Light"
    font-weight="300"
    font-stretch="normal"
    units-per-em="1000"
    panose-1="0 0 0 0 0 0 0 0 0 0"
    ascent="800"
    descent="-200"
    x-height="485"
    cap-height="705"
    bbox="-245 -270 1277 1039"
    underline-thickness="32"
    underline-position="-65"
    unicode-range="U+000D-U+FB02"
  />
<missing-glyph horiz-adv-x="500" 
d="M50 -180v885h400v-885h-400zM100 -130h300v785h-300v-785z" />
    <glyph glyph-name="fi" unicode="fi" horiz-adv-x="535" 
d="M103 0l-0.000976562 436.001h-96v49h96v24c0 123.333 62.333 188.666 187 195.999l34 2l5 -49l-45 -3c-41.333 -2.66699 -71.666 -15.667 -90.999 -39s-29 -57.333 -29 -102v-29h290v-485h-61v436h-229v-436h-61zM382.999 613.001v77h81v-77h-81z" />
    <glyph glyph-name="fl" unicode="fl" horiz-adv-x="604" 
d="M103 0l-0.000976562 436.001h-96v49h96v24c0 123.333 62.333 188.666 187 195.999l35 3l5 -50l-46 -3c-41.333 -2.66699 -71.666 -15.667 -90.999 -39s-29 -57.333 -29 -102v-29h143v-49h-143v-436h-61zM539.999 -7.99902c-45.333 0 -80.167 13.833 -104.5 41.5
s-36.5 67.5 -36.5 119.5v552h61v-545c0 -76.667 30 -115 90 -115c16.667 0 32 2 46 6l-2 -53c-19.333 -4 -37.333 -6 -54 -6z" />
    <glyph glyph-name=".notdef" horiz-adv-x="500" 
d="M50 -180v885h400v-885h-400zM100 -130h300v785h-300v-785z" />
    <glyph glyph-name="NULL" 
 />
    <glyph glyph-name="NULL" 
 />
    <glyph glyph-name="CR" unicode="&#xd;" horiz-adv-x="251" 
 />
    <glyph glyph-name="space" unicode=" " horiz-adv-x="251" 
 />
    <glyph glyph-name="exclam" unicode="!" horiz-adv-x="219" 
d="M91 173l-19 532h76l-19 -532h-38zM67 0v86h85v-86h-85z" />
    <glyph glyph-name="quotedbl" unicode="&#x22;" horiz-adv-x="366" 
d="M86 434l-17 271h73l-15 -271h-41zM241 434l-17 271h73l-15 -271h-41z" />
    <glyph glyph-name="numbersign" unicode="#" horiz-adv-x="600" 
d="M91 0l37 187h-97v49h106l47 241h-134v49h143l35 179h52l-34 -179h174l34 179h53l-34 -179h96v-49h-106l-47 -241h134v-49h-143l-37 -187h-53l36 187h-173l-36 -187h-53zM189 236h174l47 241h-174z" />
    <glyph glyph-name="dollar" unicode="$" horiz-adv-x="600" 
d="M283 -115l0.00195312 110.998c-44.667 1.33301 -86.834 8.83301 -126.501 22.5s-74.834 34.5 -105.501 62.5l26 51c32 -27.333 65.333 -47.5 100 -60.5s76.334 -19.5 125.001 -19.5c60 0 105 12.167 135 36.5s45 56.166 45 95.499c0 32 -10.833 57.333 -32.5 76
s-57.5 33.667 -107.5 45l-98 20c-60 12.667 -104.5 33.834 -133.5 63.501s-43.5 69.5 -43.5 119.5c0 37.333 9 70.666 27 99.999s43.167 52.833 75.5 70.5s70.166 27.834 113.499 30.501v111h54v-112c33.333 -2.66699 67.166 -11 101.499 -25s63.833 -34.667 88.5 -62
l-24 -50c-27.333 28.667 -57.333 49.5 -90 62.5s-69 19.5 -109 19.5c-53.333 0 -96.166 -13.333 -128.499 -40s-48.5 -61.667 -48.5 -105c0 -34 10.333 -61.167 31 -81.5s53.334 -35.166 98.001 -44.499l97 -21c65.333 -13.333 113.666 -33.833 144.999 -61.5
s47 -65.167 47 -112.5c0 -54.667 -19.333 -98.667 -58 -132s-88.667 -52.666 -150 -57.999v-112h-54z" />
    <glyph glyph-name="percent" unicode="%" horiz-adv-x="923" 
d="M276 -23l-45 26l415 725l46 -26zM227 282c-51.333 0 -91.833 18.6689 -121.5 56.002s-44.5 90.666 -44.5 159.999c0 68 14.833 120.833 44.5 158.5s70.167 56.5 121.5 56.5s92 -18.833 122 -56.5s45 -90.5 45 -158.5c0 -68.667 -14.833 -121.834 -44.5 -159.501
s-70.5 -56.5 -122.5 -56.5zM227 329.002c34.667 0 61.834 14.333 81.501 43s29.5 70.667 29.5 126c0 54.667 -9.83301 96.167 -29.5 124.5s-46.834 42.5 -81.501 42.5c-34 0 -60.833 -14.167 -80.5 -42.5s-29.5 -69.833 -29.5 -124.5c0 -56 9.83301 -98.167 29.5 -126.5
s46.5 -42.5 80.5 -42.5zM695 -7.99805c-51.333 0 -91.833 18.6689 -121.5 56.002s-44.5 90.666 -44.5 159.999c0 68 14.833 120.833 44.5 158.5s70.167 56.5 121.5 56.5c52 0 92.833 -18.833 122.5 -56.5s44.5 -90.5 44.5 -158.5c0 -68.667 -14.833 -121.834 -44.5 -159.501
s-70.5 -56.5 -122.5 -56.5zM695 39.0039c34.667 0 61.834 14.167 81.501 42.5s29.5 70.5 29.5 126.5c0 54.667 -9.83301 96.167 -29.5 124.5s-46.834 42.5 -81.501 42.5c-34 0 -60.833 -14.167 -80.5 -42.5s-29.5 -69.833 -29.5 -124.5c0 -56 9.83301 -98.167 29.5 -126.5
s46.5 -42.5 80.5 -42.5z" />
    <glyph glyph-name="ampersand" unicode="&#x26;" horiz-adv-x="678" 
d="M281 -8c-68.667 0 -122.001 15.667 -160.001 47s-57 73.333 -57 126c0 44.667 12.333 83.167 37 115.5s62.334 65.833 113.001 100.5l20 14c-32 35.333 -54.333 65.666 -67 90.999s-19 51 -19 77c0 44.667 14.833 80.834 44.5 108.501s69.834 41.5 120.501 41.5
c42 0 77.167 -12.333 105.5 -37s42.5 -58 42.5 -100c0 -22.667 -4.33301 -43.834 -13 -63.501s-23.334 -39.667 -44.001 -60s-49.334 -42.833 -86.001 -67.5l177 -203c14.667 28 26.334 61.833 35.001 101.5s13.667 81.167 15 124.5h55
c-1.33301 -52.667 -7.83301 -101.667 -19.5 -147s-27.5 -85.666 -47.5 -120.999l126 -140h-74l-84 95c-26.667 -32.667 -59 -58 -97 -76s-79 -27 -123 -27zM312.999 663c-31.333 0 -56.833 -9.16797 -76.5 -27.501s-29.5 -42.166 -29.5 -71.499
c0 -15.333 2.16699 -29.333 6.5 -42s12.166 -26.667 23.499 -42s27 -34.333 47 -57c44.667 30.667 76.167 57 94.5 79s27.5 45 27.5 69c0 28 -8.66699 50.333 -26 67s-39.666 25 -66.999 25zM282.999 43.999c75.333 0 136 30.332 182 90.999l-197 221l-18 -13
c-31.333 -21.333 -56 -40.833 -74 -58.5s-31 -35.667 -39 -54s-12 -39.166 -12 -62.499c0 -39.333 13.333 -69.833 40 -91.5s66 -32.5 118 -32.5z" />
    <glyph glyph-name="quotesingle" unicode="'" horiz-adv-x="211" 
d="M86 434l-17 271h73l-15 -271h-41z" />
    <glyph glyph-name="parenleft" unicode="(" horiz-adv-x="299" 
d="M217 -191c-38.667 74 -67.334 148.498 -86.001 223.498s-28 151.833 -28 230.5s9.33301 155.334 28 230.001s47.334 149.334 86.001 224.001l47 -17c-64 -145.333 -96 -291 -96 -437s32 -291.667 96 -437z" />
    <glyph glyph-name="parenright" unicode=")" horiz-adv-x="299" 
d="M81 -191l-46 17c63.333 147.333 95 293 95 437s-31.667 289.667 -95 437l46 17c39.333 -74.667 68.333 -149.5 87 -224.5s28 -151.5 28 -229.5c0 -78.667 -9.33301 -155.5 -28 -230.5s-47.667 -149.5 -87 -223.5z" />
    <glyph glyph-name="asterisk" unicode="*" horiz-adv-x="449" 
d="M150 360l-42 26l81 131l-154 -5v50l154 -5l-81 132l43 25l74 -138l73 138l43 -25l-81 -132l154 5v-50l-154 5l81 -131l-43 -25l-73 137z" />
    <glyph glyph-name="plus" unicode="+" horiz-adv-x="600" 
d="M274 40v222h-218v50h218v216h52v-216h218v-50h-218v-222h-52z" />
    <glyph glyph-name="comma" unicode="," horiz-adv-x="219" 
d="M100 -106l-31 25c14 14.667 23.5 28.5 28.5 41.5s8.16699 26.167 9.5 39.5h-40v86h85v-64c0 -24 -3.66699 -46.5 -11 -67.5s-21 -41.167 -41 -60.5z" />
    <glyph glyph-name="hyphen" unicode="-" horiz-adv-x="420" 
d="M74 240v52h272v-52h-272z" />
    <glyph glyph-name="period" unicode="." horiz-adv-x="219" 
d="M67 0v86h85v-86h-85z" />
    <glyph glyph-name="slash" unicode="/" horiz-adv-x="269" 
d="M32 -59l-50 15l255 792l51 -15z" />
    <glyph glyph-name="zero" unicode="0" horiz-adv-x="600" 
d="M300 -8c-79.333 0 -139.5 30.6689 -180.5 92.002s-61.5 150.666 -61.5 267.999c0 118.667 20.5 208.5 61.5 269.5s101.167 91.5 180.5 91.5c80 0 140.333 -30.333 181 -91s61 -150.334 61 -269.001c0 -117.333 -20.667 -206.833 -62 -268.5s-101.333 -92.5 -180 -92.5z
M300 47.002c60.667 0 105.667 25 135 75s44 127 44 231c0 105.333 -14.5 182.5 -43.5 231.5s-74.167 73.5 -135.5 73.5c-60.667 0 -105.667 -24.667 -135 -74s-44 -126.333 -44 -231c0 -104 14.667 -181 44 -231s74.333 -75 135 -75z" />
    <glyph glyph-name="one" unicode="1" horiz-adv-x="600" 
d="M131 0v54h162v574l-129 -84l-28 47l174 114h44v-651h152v-54h-375z" />
    <glyph glyph-name="two" unicode="2" horiz-adv-x="600" 
d="M94 0l0.00195312 45.998l247 269c35.333 38.667 61.166 74.5 77.499 107.5s24.5 66.833 24.5 101.5c0 43.333 -13 76.333 -39 99s-64 34 -114 34c-74.667 0 -139.334 -28 -194.001 -84l-26 50c25.333 26.667 57.833 48.334 97.5 65.001s81.5 25 125.5 25
c68 0 120.5 -16.167 157.5 -48.5s55.5 -78.166 55.5 -137.499c0 -42 -10.5 -83.5 -31.5 -124.5s-52.5 -84.167 -94.5 -129.5l-206 -219h361v-54h-441z" />
    <glyph glyph-name="three" unicode="3" horiz-adv-x="600" 
d="M294 -8c-45.333 0 -88.667 7.16699 -130 21.5s-76.333 35.5 -105 63.5l25 50c32.667 -28 66 -48.167 100 -60.5s70.667 -18.5 110 -18.5c54 0 95.333 12.333 124 37s43 60.334 43 107.001c0 45.333 -14.833 79.833 -44.5 103.5s-72.5 35.5 -128.5 35.5h-100v54h95
c48.667 0 87.167 13 115.5 39s42.5 62 42.5 108c0 40 -13 70.833 -39 92.5s-63 32.5 -111 32.5c-75.333 0 -140.333 -28 -195 -84l-25 50c25.333 28 57.833 50 97.5 66s81.167 24 124.5 24c66 0 117.667 -15.667 155 -47s56 -75 56 -131c0 -40 -10.333 -75.167 -31 -105.5
s-48.667 -52.166 -84 -65.499c42.667 -10.667 75.667 -31.334 99 -62.001s35 -68.334 35 -113.001c0 -60.667 -20.333 -108.667 -61 -144s-96.667 -53 -168 -53z" />
    <glyph glyph-name="four" unicode="4" horiz-adv-x="600" 
d="M390 0v159h-334v47l344 499h52v-492h108v-54h-108v-159h-62zM390 213v385l-266 -385h266z" />
    <glyph glyph-name="five" unicode="5" horiz-adv-x="600" 
d="M319 -8c-44.667 0 -87.334 7.33398 -128.001 22.001s-75.334 35.667 -104.001 63l25 50c32 -27.333 64.833 -47.333 98.5 -60s69.834 -19 108.501 -19c52 0 93 15 123 45s45 69 45 117c0 50 -14.333 91.167 -43 123.5s-68 48.5 -118 48.5c-72 0 -128 -30.667 -168 -92
h-48v415h397v-54h-336v-281c18.667 21.333 42 38 70 50s59 18 93 18c44 0 82 -9.33301 114 -28s56.833 -44.834 74.5 -78.501s26.5 -72.5 26.5 -116.5s-9.33301 -82.667 -28 -116s-45.167 -59.5 -79.5 -78.5s-75.166 -28.5 -122.499 -28.5z" />
    <glyph glyph-name="six" unicode="6" horiz-adv-x="600" 
d="M324 -8c-82 0 -144.999 29.834 -188.999 89.501s-66 143.5 -66 251.5c0 122.667 24.333 216.667 73 282s116.667 98 204 98c35.333 0 71.166 -7.83301 107.499 -23.5s65.5 -36.834 87.5 -63.501l-25 -50c-24 27.333 -50.833 47.666 -80.5 60.999s-59.834 20 -90.501 20
c-68.667 0 -121.667 -26.167 -159 -78.5s-56 -130.166 -56 -233.499v-59c12.667 47.333 36.834 84.5 72.501 111.5s77.834 40.5 126.501 40.5c42 0 79.167 -9.5 111.5 -28.5s57.666 -45.167 75.999 -78.5s27.5 -71.333 27.5 -114c0 -44 -9.5 -82.833 -28.5 -116.5
s-45 -60.167 -78 -79.5s-70.833 -29 -113.5 -29zM319.001 47.001c48.667 0 88 15.5 118 46.5s45 71.5 45 121.5c0 49.333 -15 89.666 -45 120.999s-69.333 47 -118 47s-88 -15.667 -118 -47s-45 -71.666 -45 -120.999c0 -50 15 -90.5 45 -121.5s69.333 -46.5 118 -46.5z" />
    <glyph glyph-name="seven" unicode="7" horiz-adv-x="600" 
d="M124 0l332 650h-383v55h454v-46l-335 -659h-68z" />
    <glyph glyph-name="eight" unicode="8" horiz-adv-x="600" 
d="M300 -8c-78 0 -138.669 16.835 -182.002 50.502s-65 81.167 -65 142.5c0 44.667 12.333 82.5 37 113.5s57.334 51.5 98.001 61.5c-36.667 12.667 -65.5 34 -86.5 64s-31.5 64.333 -31.5 103c0 58.667 20.833 104.334 62.5 137.001s97.5 49 167.5 49
s125.833 -16.333 167.5 -49s62.5 -78.334 62.5 -137.001c0 -38.667 -10.5 -73 -31.5 -103s-49.833 -51.333 -86.5 -64c40.667 -10.667 73.334 -31.334 98.001 -62.001s37 -68.334 37 -113.001c0 -61.333 -21.667 -108.833 -65 -142.5s-104 -50.5 -182 -50.5z
M299.998 384.002c52.667 0 94 12.333 124 37s45 58.667 45 102s-15 77 -45 101s-71.333 36 -124 36s-94 -12 -124 -36s-45 -57.667 -45 -101s15 -77.333 45 -102s71.333 -37 124 -37zM299.998 45.002c123.333 0 185 47.667 185 143c0 94.667 -61.667 142 -185 142
s-185 -47.333 -185 -142c0 -95.333 61.667 -143 185 -143z" />
    <glyph glyph-name="nine" unicode="9" horiz-adv-x="600" 
d="M254 -8c-35.333 0 -71.1689 7.83105 -107.502 23.498s-65.5 36.834 -87.5 63.501l25 50c24 -27.333 50.833 -47.666 80.5 -60.999s59.834 -20 90.501 -20c68.667 0 121.667 26.167 159 78.5s56 130.166 56 233.499v60c-12 -47.333 -36 -84.666 -72 -111.999
s-78.333 -41 -127 -41c-42 0 -79.167 9.5 -111.5 28.5s-57.666 45.167 -75.999 78.5s-27.5 71.333 -27.5 114c0 44 9.5 82.833 28.5 116.5s45 60.167 78 79.5s70.833 29 113.5 29c82 0 145 -29.833 189 -89.5s66 -143.5 66 -251.5c0 -122.667 -24.333 -216.667 -73 -282
s-116.667 -98 -204 -98zM280.997 321.998c48.667 0 88.167 15.667 118.5 47s45.5 71.666 45.5 120.999c0 50 -15.167 90.667 -45.5 122s-69.833 47 -118.5 47c-48 0 -87.167 -15.667 -117.5 -47s-45.5 -72 -45.5 -122c0 -49.333 15.167 -89.666 45.5 -120.999
s69.5 -47 117.5 -47z" />
    <glyph glyph-name="colon" unicode=":" horiz-adv-x="219" 
d="M67 400v85h85v-85h-85zM67 0v86h85v-86h-85z" />
    <glyph glyph-name="semicolon" unicode=";" horiz-adv-x="219" 
d="M67 400v85h85v-85h-85zM100 -106l-31 25c14 14.667 23.5 28.5 28.5 41.5s8.16699 26.167 9.5 39.5h-40v86h85v-64c0 -24 -3.66699 -46.5 -11 -67.5s-21 -41.167 -41 -60.5z" />
    <glyph glyph-name="less" unicode="&#x3c;" horiz-adv-x="600" 
d="M544 36l-488 226v50l488 226v-55l-424 -196l424 -195v-56z" />
    <glyph glyph-name="equal" unicode="=" horiz-adv-x="600" 
d="M56 362v50h488v-50h-488zM56 163v49h488v-49h-488z" />
    <glyph glyph-name="greater" unicode="&#x3e;" horiz-adv-x="600" 
d="M56 36v56l424 195l-424 196v55l488 -226v-50z" />
    <glyph glyph-name="question" unicode="?" horiz-adv-x="436" 
d="M181 173v24c0 35.333 6.66699 68.5 20 99.5s37 66.167 71 105.5c26.667 32 45.5 59.5 56.5 82.5s16.5 47.167 16.5 72.5c0 30.667 -11 55 -33 73s-51.667 27 -89 27c-38.667 0 -74 -7 -106 -21s-62 -35 -90 -63l-25 50c24.667 26.667 56.834 48.334 96.501 65.001
s81.5 25 125.5 25c55.333 0 99.833 -14 133.5 -42s50.5 -65 50.5 -111c0 -32 -6.83301 -61.833 -20.5 -89.5s-37.5 -60.5 -71.5 -98.5c-31.333 -35.333 -53.833 -66.333 -67.5 -93s-21.834 -54.334 -24.501 -83.001l-2 -23h-41zM159 0v86h85v-86h-85z" />
    <glyph glyph-name="at" unicode="@" horiz-adv-x="945" 
d="M484 -163c-84 0 -157.666 17.834 -220.999 53.501s-112.333 86.334 -147 152.001s-52 143.167 -52 232.5c0 64.667 10.5 123.834 31.5 177.501s50.667 100 89 139s83.833 69 136.5 90s111 31.5 175 31.5c76 0 142.833 -15.333 200.5 -46s102.834 -73.667 135.501 -129
s49 -119.666 49 -192.999c0 -58 -8 -108.333 -24 -151s-38.167 -75.834 -66.5 -99.501s-61.5 -35.5 -99.5 -35.5c-32 0 -57.667 8 -77 24s-30.333 38 -33 66c-18.667 -28.667 -41.5 -50.834 -68.5 -66.501s-55.167 -23.5 -84.5 -23.5c-50.667 0 -90 15.833 -118 47.5
s-42 75.5 -42 131.5c0 49.333 9.5 93.166 28.5 131.499s44.833 68.666 77.5 90.999s69.667 33.5 111 33.5c32.667 0 60.167 -7.33301 82.5 -22s38.166 -35 47.499 -61l12 74h54l-46 -267c-1.33301 -8.66699 -2.33301 -16.667 -3 -24s-1 -14 -1 -20
c0 -46.667 21.333 -70 64 -70c27.333 0 51.333 10 72 30s36.834 48.167 48.501 84.5s17.5 78.5 17.5 126.5c0 64 -14.333 120 -43 168s-68.334 85.5 -119.001 112.5s-109.334 40.5 -176.001 40.5c-75.333 0 -141.333 -16.333 -198 -49s-101 -78.334 -133 -137.001
s-48 -127 -48 -205c0 -81.333 15 -151.166 45 -209.499s72.667 -103 128 -134s120.333 -46.5 195 -46.5c56 0 106.333 9 151 27s81 43 109 75l30 -39c-32 -36 -73.167 -63.5 -123.5 -82.5s-105.833 -28.5 -166.5 -28.5zM433.001 107.001c31.333 0 59.5 9.5 84.5 28.5
s44.667 45 59 78s21.5 70.5 21.5 112.5c0 79.333 -36.333 119 -109 119c-31.333 0 -59.5 -8.83301 -84.5 -26.5s-44.833 -42.167 -59.5 -73.5s-22 -66.666 -22 -105.999c0 -42.667 9.66699 -75.334 29 -98.001s46.333 -34 81 -34z" />
    <glyph glyph-name="A" unicode="A" horiz-adv-x="722" 
d="M27 0l307 705h55l306 -705h-64l-81 188h-378l-80 -188h-65zM360 629l-165 -388h332l-165 388h-2z" />
    <glyph glyph-name="B" unicode="B" horiz-adv-x="671" 
d="M92 0v705.001h269c72 0 127.833 -16 167.5 -48s59.5 -77.667 59.5 -137c0 -38.667 -10.333 -71.667 -31 -99s-48.667 -47.333 -84 -60c40.667 -10 72.667 -29.5 96 -58.5s35 -65.833 35 -110.5c0 -62.667 -20 -110.334 -60 -143.001s-96.667 -49 -170 -49h-282z
M152 383.001h202c56 0 98.667 11.5 128 34.5s44 56.5 44 100.5s-14.667 77.5 -44 100.5s-72 34.5 -128 34.5h-202v-270zM152 52.001h217c115.333 0 173 46.333 173 139c0 48 -14.333 83.333 -43 106s-72 34 -130 34h-217v-279z" />
    <glyph glyph-name="C" unicode="C" horiz-adv-x="670" 
d="M386 -8c-67.333 0 -125 14.5 -173 43.5s-84.833 70.5 -110.5 124.5s-38.5 118.333 -38.5 193c0 74 12.833 138 38.5 192s62.5 95.5 110.5 124.5s105.667 43.5 173 43.5c48.667 0 93.5 -7.83301 134.5 -23.5s75.833 -38.5 104.5 -68.5l-27 -51
c-31.333 30.667 -63.833 52.667 -97.5 66s-71.5 20 -113.5 20c-82.667 0 -146.167 -26.5 -190.5 -79.5s-66.5 -127.5 -66.5 -223.5c0 -96.667 22.167 -171.5 66.5 -224.5s107.833 -79.5 190.5 -79.5c42 0 79.833 6.66699 113.5 20s66.167 35.333 97.5 66l27 -51
c-28.667 -30 -63.5 -52.833 -104.5 -68.5s-85.833 -23.5 -134.5 -23.5z" />
    <glyph glyph-name="D" unicode="D" horiz-adv-x="733" 
d="M92 0v705h227c112 0 198.5 -30 259.5 -90s91.5 -147.333 91.5 -262s-30.5 -202.167 -91.5 -262.5s-147.5 -90.5 -259.5 -90.5h-227zM153 54h161c193.333 0 290 99.667 290 299c0 198.667 -96.667 298 -290 298h-161v-597z" />
    <glyph glyph-name="E" unicode="E" horiz-adv-x="576" 
d="M92 0v705h434v-53h-374v-268h353v-53h-353v-278h374v-53h-434z" />
    <glyph glyph-name="F" unicode="F" horiz-adv-x="542" 
d="M92 0v705h424v-53h-363v-269h343v-53h-343v-330h-61z" />
    <glyph glyph-name="G" unicode="G" horiz-adv-x="722" 
d="M405 -8c-111.333 0 -195.999 31.666 -253.999 94.999s-87 152 -87 266c0 74 12.833 138 38.5 192s62.667 95.5 111 124.5s106.833 43.5 175.5 43.5c102 0 183.333 -30.333 244 -91l-27 -50c-32.667 30 -66.334 51.5 -101.001 64.5s-73.667 19.5 -117 19.5
c-83.333 0 -147.333 -26.5 -192 -79.5s-67 -127.5 -67 -223.5c0 -99.333 23.167 -175 69.5 -227s115.5 -78 207.5 -78c62.667 0 121 10.667 175 32v229h-187v52h242v-321c-17.333 -9.33301 -38.833 -17.666 -64.5 -24.999s-53 -13 -82 -17s-57.167 -6 -84.5 -6z" />
    <glyph glyph-name="H" unicode="H" horiz-adv-x="756" 
d="M92 0v705h61v-320h450v320h61v-705h-61v330h-450v-330h-61z" />
    <glyph glyph-name="I" unicode="I" horiz-adv-x="245" 
d="M92 0v705h61v-705h-61z" />
    <glyph glyph-name="J" unicode="J" horiz-adv-x="310" 
d="M-5 -7l-4.99902 54l56 4c35.333 2.66699 62.666 15.667 81.999 39s29 54.333 29 93v522h62v-523c0 -55.333 -14.333 -99 -43 -131s-70 -50 -124 -54z" />
    <glyph glyph-name="K" unicode="K" horiz-adv-x="607" 
d="M92 0v705h61v-324h2l356 324h81l-379 -344l403 -361h-84l-377 335h-2v-335h-61z" />
    <glyph glyph-name="L" unicode="L" horiz-adv-x="535" 
d="M92 0v705h61v-650h368v-55h-429z" />
    <glyph glyph-name="M" unicode="M" horiz-adv-x="849" 
d="M94 0v705h52l280 -531l278 531h52v-705h-57v586l-251 -477h-44l-254 476v-585h-56z" />
    <glyph glyph-name="N" unicode="N" horiz-adv-x="736" 
d="M92 0v705h49l446 -601v601h57v-705h-48l-447 602v-602h-57z" />
    <glyph glyph-name="O" unicode="O" horiz-adv-x="759" 
d="M379 -8c-64.667 0 -120.499 14.667 -167.499 44s-83.333 71 -109 125s-38.5 118 -38.5 192s12.667 138 38 192s61.666 95.5 108.999 124.5s103.333 43.5 168 43.5c65.333 0 121.5 -14.5 168.5 -43.5s83.333 -70.333 109 -124s38.5 -117.5 38.5 -191.5
c0 -74.667 -12.833 -139 -38.5 -193s-62.167 -95.667 -109.5 -125s-103.333 -44 -168 -44zM379.001 48c79.333 0 141 26.667 185 80s66 128.333 66 225s-21.833 171.5 -65.5 224.5s-105.5 79.5 -185.5 79.5c-79.333 0 -140.833 -26.667 -184.5 -80s-65.5 -128 -65.5 -224
s21.833 -170.833 65.5 -224.5s105.167 -80.5 184.5 -80.5z" />
    <glyph glyph-name="P" unicode="P" horiz-adv-x="624" 
d="M92 0v705h266c75.333 0 132.833 -18 172.5 -54s59.5 -87.333 59.5 -154c0 -66 -19.833 -117.167 -59.5 -153.5s-97.167 -54.5 -172.5 -54.5h-205v-289h-61zM153 343h200c116.667 0 175 51.333 175 154c0 103.333 -58.333 155 -175 155h-200v-309z" />
    <glyph glyph-name="Q" unicode="Q" horiz-adv-x="759" 
d="M576 -195l-77.9971 125c-25.333 41.333 -65 62 -119 62v0c-64.667 0 -120.5 14.667 -167.5 44s-83.333 71 -109 125s-38.5 118 -38.5 192s12.667 138 38 192s61.666 95.5 108.999 124.5s103.333 43.5 168 43.5c65.333 0 121.5 -14.5 168.5 -43.5s83.333 -70.333 109 -124
s38.5 -117.5 38.5 -191.5c0 -88.667 -18.333 -163 -55 -223s-87.334 -101 -152.001 -123c14.667 -4.66699 27.667 -12.667 39 -24s22.666 -27 33.999 -47l65 -103zM379.003 48c79.333 0 141 26.667 185 80s66 128.333 66 225s-21.833 171.5 -65.5 224.5
s-105.5 79.5 -185.5 79.5c-79.333 0 -140.833 -26.667 -184.5 -80s-65.5 -128 -65.5 -224s21.833 -170.833 65.5 -224.5s105.167 -80.5 184.5 -80.5z" />
    <glyph glyph-name="R" unicode="R" horiz-adv-x="661" 
d="M92 0v705.001h266c75.333 0 132.833 -17.333 172.5 -52s59.5 -84 59.5 -148c0 -52.667 -14.333 -95.334 -43 -128.001s-69.334 -53.667 -122.001 -63c28.667 -10.667 54 -36.667 76 -78l128 -236h-67l-122 226c-17.333 31.333 -36.666 52.333 -57.999 63s-50 16 -86 16
h-143v-305h-61zM153 357.001h197c118.667 0 178 49.333 178 148c0 98 -59.333 147 -178 147h-197v-295z" />
    <glyph glyph-name="S" unicode="S" horiz-adv-x="607" 
d="M312 -8c-54.667 0 -103.832 7.16406 -147.499 21.4971s-81.5 35.5 -113.5 63.5l24 51c34.667 -27.333 70.167 -47.5 106.5 -60.5s79.833 -19.5 130.5 -19.5c63.333 0 110.833 12.333 142.5 37s47.5 57 47.5 97c0 33.333 -11.5 59.333 -34.5 78
s-60.833 33.334 -113.5 44.001l-101 21c-62.667 12.667 -109.5 34 -140.5 64s-46.5 70 -46.5 120c0 40.667 10.5 76.334 31.5 107.001s50.167 54.5 87.5 71.5s80.333 25.5 129 25.5c97.333 0 175 -29.333 233 -88l-24 -50c-30.667 28.667 -62.667 49.5 -96 62.5
s-71 19.5 -113 19.5c-56 0 -100.833 -13.333 -134.5 -40s-50.5 -62.334 -50.5 -107.001c0 -35.333 10.667 -63.166 32 -83.499s55.666 -35.166 102.999 -44.499l102 -21c67.333 -14 117.333 -34.833 150 -62.5s49 -65.5 49 -113.5c0 -38 -10.167 -71.5 -30.5 -100.5
s-49.5 -51.667 -87.5 -68s-83 -24.5 -135 -24.5z" />
    <glyph glyph-name="T" unicode="T" horiz-adv-x="594" 
d="M266 0v650h-263v55h588v-55h-263v-650h-62z" />
    <glyph glyph-name="U" unicode="U" horiz-adv-x="724" 
d="M362 -8c-90 0 -158.333 24.167 -205 72.5s-70 118.5 -70 210.5v430h61v-425c0 -154.667 71.333 -232 214 -232s214 77.333 214 232v425h61v-430c0 -92 -23.333 -162.167 -70 -210.5s-115 -72.5 -205 -72.5z" />
    <glyph glyph-name="V" unicode="V" horiz-adv-x="678" 
d="M309 0l-305 705h66l270 -628l270 628h64l-306 -705h-59z" />
    <glyph glyph-name="W" unicode="W" horiz-adv-x="1096" 
d="M279 0l-245 705h64l211 -614l213 614h52l213 -618l213 618h62l-245 -705h-58l-211 612l-213 -612h-56z" />
    <glyph glyph-name="X" unicode="X" horiz-adv-x="640" 
d="M17 0l268 361l-254 344h73l217 -297l216 297h73l-254 -344l267 -361h-73l-230 313l-229 -313h-74z" />
    <glyph glyph-name="Y" unicode="Y" horiz-adv-x="586" 
d="M262 0v338l-269 367h72l229 -313l230 313h69l-269 -368v-337h-62z" />
    <glyph glyph-name="Z" unicode="Z" horiz-adv-x="582" 
d="M49 0v45l420 605h-420v55h496v-45l-420 -605h434v-55h-510z" />
    <glyph glyph-name="bracketleft" unicode="[" horiz-adv-x="298" 
d="M111 -180v885h181v-50h-120v-785h120v-50h-181z" />
    <glyph glyph-name="backslash" unicode="\" horiz-adv-x="269" 
d="M237 -59l-255 792l50 15l256 -792z" />
    <glyph glyph-name="bracketright" unicode="]" horiz-adv-x="298" 
d="M6 -180v50h120v785h-120v50h181v-885h-181z" />
    <glyph glyph-name="asciicircum" unicode="^" horiz-adv-x="600" 
d="M50 140l225 488h50l225 -488h-54l-196 423l-196 -423h-54z" />
    <glyph glyph-name="underscore" unicode="_" horiz-adv-x="500" 
d="M20 -43v43h460v-43h-460z" />
    <glyph glyph-name="grave" unicode="`" horiz-adv-x="500" 
d="M227 550l-127 201h70l103 -201h-46z" />
    <glyph glyph-name="a" unicode="a" horiz-adv-x="522" 
d="M230 -8c-32.667 0 -61.835 6.33398 -87.502 19.001s-46 30 -61 52s-22.5 46.667 -22.5 74c0 36 9 64.167 27 84.5s48.333 34.833 91 43.5s101.334 13 176.001 13h31v36c0 44.667 -9 77.167 -27 97.5s-46.667 30.5 -86 30.5c-29.333 0 -57.5 -4.33301 -84.5 -13
s-54.833 -22.334 -83.5 -41.001l-24 47c25.333 18 55.333 32.333 90 43s68.334 16 101.001 16c58.667 0 102.167 -15 130.5 -45s42.5 -76 42.5 -138v-311h-58v87c-13.333 -30 -33.5 -53.333 -60.5 -70s-58.5 -25 -94.5 -25zM237.999 41.001
c28.667 0 53.832 6.83105 75.499 20.498s38.834 32.5 51.501 56.5s19 51.333 19 82v33h-30c-60 0 -106.833 -2.66699 -140.5 -8s-57.167 -14.666 -70.5 -27.999s-20 -31.666 -20 -54.999c0 -30 10.333 -54.333 31 -73s48.667 -28 84 -28z" />
    <glyph glyph-name="b" unicode="b" horiz-adv-x="575" 
d="M311 -8c-39.333 0 -73.834 8.83203 -103.501 26.499s-51.834 42.167 -66.501 73.5v-92h-61v705h61v-310c14.667 30.667 36.834 54.834 66.501 72.501s64.167 26.5 103.5 26.5c65.333 0 117.5 -22.667 156.5 -68s58.5 -106.333 58.5 -183
c0 -51.333 -8.83301 -95.833 -26.5 -133.5s-42.667 -66.667 -75 -87s-70.166 -30.5 -113.499 -30.5zM301.999 42.999c49.333 0 88.666 17.5 117.999 52.5s44 84.167 44 147.5s-14.667 112.333 -44 147s-68.666 52 -117.999 52s-88.666 -17.333 -117.999 -52
s-44 -83.667 -44 -147s14.667 -112.5 44 -147.5s68.666 -52.5 117.999 -52.5z" />
    <glyph glyph-name="c" unicode="c" horiz-adv-x="459" 
d="M278 -8c-47.333 0 -87.999 10.5 -121.999 31.5s-60.167 50.667 -78.5 89s-27.5 82.833 -27.5 133.5c0 76.667 20.167 137.167 60.5 181.5s96.166 66.5 167.499 66.5c29.333 0 58.333 -5.66699 87 -17s52.667 -27 72 -47l-24 -46c-20.667 20 -42.667 34.5 -66 43.5
s-45.666 13.5 -66.999 13.5c-54 0 -95.5 -17 -124.5 -51s-43.5 -82.333 -43.5 -145s14.5 -111.834 43.5 -147.501s70.5 -53.5 124.5 -53.5c21.333 0 43.666 4.5 66.999 13.5s45.333 23.5 66 43.5l24 -46c-19.333 -19.333 -43.5 -34.666 -72.5 -45.999s-57.833 -17 -86.5 -17
z" />
    <glyph glyph-name="d" unicode="d" horiz-adv-x="575" 
d="M265 -8c-44 0 -82.001 10.168 -114.001 30.501s-56.833 49.333 -74.5 87s-26.5 82.167 -26.5 133.5c0 76.667 19.333 137.667 58 183s91 68 157 68c38.667 0 72.834 -8.83301 102.501 -26.5s51.834 -41.834 66.501 -72.501v310h61v-705h-60v92
c-14.667 -31.333 -36.834 -55.833 -66.501 -73.5s-64.167 -26.5 -103.5 -26.5zM272.999 43.001c49.333 0 88.666 17.5 117.999 52.5s44 84.167 44 147.5s-14.667 112.333 -44 147s-68.666 52 -117.999 52s-88.5 -17.333 -117.5 -52s-43.5 -83.667 -43.5 -147
s14.5 -112.5 43.5 -147.5s68.167 -52.5 117.5 -52.5z" />
    <glyph glyph-name="e" unicode="e" horiz-adv-x="527" 
d="M291 -8c-74.667 0 -133.499 22.1689 -176.499 66.502s-64.5 105.166 -64.5 182.499c0 50 9.66699 94 29 132s46.166 67.667 80.499 89s73.833 32 118.5 32c64.667 0 115 -21 151 -63s54 -99.667 54 -173v-28h-373c2 -60 18.5 -106.167 49.5 -138.5
s74.167 -48.5 129.5 -48.5c30 0 58.167 4.66699 84.5 14s52.166 25 77.499 47l24 -46c-21.333 -20.667 -48.666 -36.834 -81.999 -48.501s-67.333 -17.5 -102 -17.5zM279.001 445.002c-50.667 0 -90.1689 -15.833 -118.502 -47.5s-44.833 -72.5 -49.5 -122.5h317
c-1.33301 53.333 -14.666 95 -39.999 125s-61.666 45 -108.999 45z" />
    <glyph glyph-name="f" unicode="f" horiz-adv-x="319" 
d="M103 0l-0.000976562 436.001h-96v49h96v24c0 123.333 62.333 188.666 187 195.999l35 3l5 -50l-46 -3c-41.333 -2.66699 -71.666 -15.667 -90.999 -39s-29 -57.333 -29 -102v-29h143v-49h-143v-436h-61z" />
    <glyph glyph-name="g" unicode="g" horiz-adv-x="578" 
d="M291 -188c-84.667 0 -155.001 22.333 -211.001 67l23 46c30.667 -22 60.334 -37.833 89.001 -47.5s61 -14.5 97 -14.5c48.667 0 85.667 13.333 111 40s38 65.334 38 116.001v94c-14 -32 -36.167 -57 -66.5 -75s-64.833 -27 -103.5 -27
c-45.333 0 -84.166 10.167 -116.499 30.5s-57.333 48.666 -75 84.999s-26.5 78.5 -26.5 126.5s8.83301 90 26.5 126s42.667 64.167 75 84.5s71.166 30.5 116.499 30.5c38.667 0 73 -9 103 -27s52 -42.667 66 -74v92h60v-457c0 -144 -68.667 -216 -206 -216zM274.999 63
c50 0 89.667 17.167 119 51.5s44 80.5 44 138.5s-14.667 104 -44 138s-69 51 -119 51c-50.667 0 -90.5 -17 -119.5 -51s-43.5 -80 -43.5 -138s14.5 -104.167 43.5 -138.5s68.833 -51.5 119.5 -51.5z" />
    <glyph glyph-name="h" unicode="h" horiz-adv-x="560" 
d="M80 0l-0.000976562 704.999h61v-304c16.667 30.667 39.834 53.834 69.501 69.501s62.5 23.5 98.5 23.5c115.333 0 173 -62.667 173 -188v-306h-61v301c0 48 -9.66699 83.333 -29 106s-50 34 -92 34c-48 0 -86.5 -14.833 -115.5 -44.5s-43.5 -69.5 -43.5 -119.5v-277h-61z
" />
    <glyph glyph-name="i" unicode="i" horiz-adv-x="222" 
d="M70 613v77h82v-77h-82zM80 0v485h61v-485h-61z" />
    <glyph glyph-name="j" unicode="j" horiz-adv-x="225" 
d="M73 613v77h82v-77h-82zM-53 -193l-4 50.001l42 4c66 5.33301 99 45.333 99 120v504h61v-499c0 -110.667 -51.667 -169.334 -155 -176.001z" />
    <glyph glyph-name="k" unicode="k" horiz-adv-x="484" 
d="M80 0v705h61v-440h2l239 220h81l-255 -234l279 -251h-81l-263 233h-2v-233h-61z" />
    <glyph glyph-name="l" unicode="l" horiz-adv-x="285" 
d="M221 -8c-45.333 0 -80.167 13.833 -104.5 41.5s-36.5 67.5 -36.5 119.5v552h61v-545c0 -76.667 30 -115 90 -115c16.667 0 32 2 46 6l-2 -53c-19.333 -4 -37.333 -6 -54 -6z" />
    <glyph glyph-name="m" unicode="m" horiz-adv-x="847" 
d="M82 0l-0.000976562 485.002h60v-85c30 62.667 81 94 153 94c77.333 0 126.333 -33.667 147 -101c14 31.333 35.333 56 64 74s62 27 100 27c107.333 0 161 -62.667 161 -188v-306h-61v301c0 48 -8.5 83.333 -25.5 106s-45.5 34 -85.5 34
c-42.667 0 -76.667 -14.833 -102 -44.5s-38 -69.834 -38 -120.501v-276h-61v301c0 48 -8.5 83.333 -25.5 106s-45.167 34 -84.5 34c-43.333 0 -77.666 -14.833 -102.999 -44.5s-38 -69.834 -38 -120.501v-276h-61z" />
    <glyph glyph-name="n" unicode="n" horiz-adv-x="560" 
d="M80 0v485h60v-87c16 32 39 56 69 72s63.333 24 100 24c115.333 0 173 -62.667 173 -188v-306h-61v301c0 48 -9.66699 83.333 -29 106s-50 34 -92 34c-48 0 -86.5 -14.833 -115.5 -44.5s-43.5 -69.5 -43.5 -119.5v-277h-61z" />
    <glyph glyph-name="o" unicode="o" horiz-adv-x="547" 
d="M273 -8c-45.333 0 -84.666 10.167 -117.999 30.5s-59.166 49.333 -77.499 87s-27.5 82.167 -27.5 133.5c0 50.667 9.16699 94.834 27.5 132.501s44.166 66.834 77.499 87.501s72.666 31 117.999 31c46 0 85.667 -10.333 119 -31s59.166 -49.834 77.499 -87.501
s27.5 -81.834 27.5 -132.501c0 -51.333 -9.16699 -95.833 -27.5 -133.5s-44.166 -66.667 -77.499 -87s-73 -30.5 -119 -30.5zM273 43c49.333 0 88.666 17.5 117.999 52.5s44 84.167 44 147.5s-14.667 112.333 -44 147s-68.666 52 -117.999 52s-88.5 -17.333 -117.5 -52
s-43.5 -83.667 -43.5 -147s14.5 -112.5 43.5 -147.5s68.167 -52.5 117.5 -52.5z" />
    <glyph glyph-name="p" unicode="p" horiz-adv-x="575" 
d="M80 -180v664.999h61v-91c14.667 30.667 36.834 55 66.501 73s64.167 27 103.5 27c43.333 0 81.166 -10.333 113.499 -31s57.333 -49.667 75 -87s26.5 -81.666 26.5 -132.999s-8.83301 -95.833 -26.5 -133.5s-42.667 -66.667 -75 -87s-70.166 -30.5 -113.499 -30.5
c-39.333 0 -73.833 8.66699 -103.5 26s-51.834 41.333 -66.501 72v-270h-61zM302 42.999c49.333 0 88.666 17.5 117.999 52.5s44 84.167 44 147.5s-14.667 112.333 -44 147s-68.666 52 -117.999 52s-88.666 -17.333 -117.999 -52s-44 -83.667 -44 -147
s14.667 -112.5 44 -147.5s68.666 -52.5 117.999 -52.5z" />
    <glyph glyph-name="q" unicode="q" horiz-adv-x="575" 
d="M434 -180v271.002c-14.667 -30.667 -36.834 -54.834 -66.501 -72.501s-63.834 -26.5 -102.501 -26.5c-44 0 -82.167 10.167 -114.5 30.5s-57.166 49.333 -74.499 87s-26 82.167 -26 133.5s8.83301 95.666 26.5 132.999s42.5 66.333 74.5 87s70 31 114 31
c39.333 0 73.833 -9 103.5 -27s51.834 -42.667 66.501 -74v92h60v-665h-61zM273 43.002c49.333 0 88.666 17.5 117.999 52.5s44 84.167 44 147.5s-14.667 112.333 -44 147s-68.666 52 -117.999 52s-88.5 -17.333 -117.5 -52s-43.5 -83.667 -43.5 -147
s14.5 -112.5 43.5 -147.5s68.167 -52.5 117.5 -52.5z" />
    <glyph glyph-name="r" unicode="r" horiz-adv-x="342" 
d="M80 0v485h60v-88c14 30.667 34.333 54 61 70s60.667 25.333 102 28l25 2l6 -53l-43 -5c-47.333 -4 -84 -19.5 -110 -46.5s-39 -63.167 -39 -108.5v-284h-62z" />
    <glyph glyph-name="s" unicode="s" horiz-adv-x="478" 
d="M238 -8c-36 0 -70.498 5.33496 -103.498 16.002s-60.167 26 -81.5 46l22 45c24.667 -20 51 -34.5 79 -43.5s56.667 -13.5 86 -13.5c41.333 0 72.5 7.5 93.5 22.5s31.5 35.833 31.5 62.5c0 20.667 -7 37 -21 49s-36 21.667 -66 29l-87 20c-82 18.667 -123 61 -123 127
c0 42.667 16.667 77 50 103s77.333 39 132 39c33.333 0 64.666 -5.5 93.999 -16.5s53.333 -26.833 72 -47.5l-24 -45c-19.333 19.333 -41.333 33.833 -66 43.5s-50.334 14.5 -77.001 14.5c-38.667 0 -68.5 -8 -89.5 -24s-31.5 -37.667 -31.5 -65
c0 -20.667 6.33301 -37.334 19 -50.001s33.334 -22.334 62.001 -29.001l87 -20c43.333 -10 75.666 -24.833 96.999 -44.5s32 -46.167 32 -79.5c0 -43.333 -17 -77.333 -51 -102s-79.333 -37 -136 -37z" />
    <glyph glyph-name="t" unicode="t" horiz-adv-x="335" 
d="M263 -8c-54 0 -94.501 14.668 -121.501 44.001s-40.5 71.333 -40.5 126v274h-96v49h96v150h61v-150h157v-49h-157v-266c0 -40.667 8.33301 -71.667 25 -93s44.334 -32 83.001 -32c11.333 0 22.333 1.33301 33 4s20 5.66699 28 9l12 -48
c-7.33301 -4.66699 -19 -8.83398 -35 -12.501s-31 -5.5 -45 -5.5z" />
    <glyph glyph-name="u" unicode="u" horiz-adv-x="553" 
d="M251 -8c-115.333 0 -173 62.667 -173 188v305h61v-302c0 -47.333 9.66699 -82.333 29 -105s49.666 -34 90.999 -34c44.667 0 81.167 15 109.5 45s42.5 70 42.5 120v276h61v-485h-59v86c-16 -30.667 -38.167 -54 -66.5 -70s-60.166 -24 -95.499 -24z" />
    <glyph glyph-name="v" unicode="v" horiz-adv-x="509" 
d="M224 0l-208 485h68l171 -418l174 418h64l-208 -485h-61z" />
    <glyph glyph-name="w" unicode="w" horiz-adv-x="835" 
d="M208 0l-176 485h65l143 -413l149 413h60l146 -414l146 414h63l-177 -485h-63l-146 406l-147 -406h-63z" />
    <glyph glyph-name="x" unicode="x" horiz-adv-x="515" 
d="M22 0l200 251l-189 234h73l152 -192l153 192h72l-189 -235l201 -250h-74l-163 205l-164 -205h-72z" />
    <glyph glyph-name="y" unicode="y" horiz-adv-x="509" 
d="M142 -180l80 182l-206 483h68l171 -418l173 418h66l-286 -665h-66z" />
    <glyph glyph-name="z" unicode="z" horiz-adv-x="459" 
d="M57 0v42l290 394h-290v49h359v-42l-289 -394h300v-49h-370z" />
    <glyph glyph-name="braceleft" unicode="{" horiz-adv-x="335" 
d="M239 -180c-60.667 0 -91 31.001 -91 93.001v243c0 27.333 -5.66699 47.333 -17 60s-30.333 19.667 -57 21l-23 2v48l23 2c26.667 1.33301 45.667 8.16602 57 20.499s17 32.5 17 60.5v242c0 62 30.333 93 91 93h90v-50h-76c-29.333 0 -44 -15.333 -44 -46v-245
c0 -26 -6.5 -48.167 -19.5 -66.5s-29.833 -29.833 -50.5 -34.5c20.667 -4.66699 37.5 -16.167 50.5 -34.5s19.5 -40.5 19.5 -66.5v-246c0 -30.667 14.667 -46 44 -46h76v-50h-90z" />
    <glyph glyph-name="bar" unicode="|" horiz-adv-x="254" 
d="M97 -180v885h61v-885h-61z" />
    <glyph glyph-name="braceright" unicode="}" horiz-adv-x="335" 
d="M6 -180v49.998h76c29.333 0 44 15.333 44 46v246c0 26 6.5 48.167 19.5 66.5s29.833 29.833 50.5 34.5c-20.667 4.66699 -37.5 16.167 -50.5 34.5s-19.5 40.5 -19.5 66.5v245c0 30.667 -14.667 46 -44 46h-76v50h90c60.667 0 91 -31 91 -93v-242
c0 -28 5.5 -48.167 16.5 -60.5s29.833 -19.166 56.5 -20.499l23 -2v-48l-23 -2c-26.667 -1.33301 -45.5 -8.16602 -56.5 -20.499s-16.5 -32.5 -16.5 -60.5v-243c0 -62 -30.333 -93 -91 -93h-90z" />
    <glyph glyph-name="asciitilde" unicode="~" horiz-adv-x="600" 
d="M418 221c-17.333 0 -36.332 3.33398 -56.999 10.001s-45 18 -73 34c-27.333 15.333 -48.5 25.666 -63.5 30.999s-27.833 8 -38.5 8c-38.667 0 -67.667 -22 -87 -66l-43 20c27.333 64 69.666 96 126.999 96c17.333 0 35.5 -3.16699 54.5 -9.5s42.5 -17.166 70.5 -32.499
c26 -14.667 46.833 -25.334 62.5 -32.001s30.167 -10 43.5 -10c40 0 69.333 22.333 88 67l42 -21c-27.333 -63.333 -69.333 -95 -126 -95z" />
    <glyph glyph-name="uni00A0" unicode="&#xa0;" horiz-adv-x="251" 
 />
    <glyph glyph-name="exclamdown" unicode="&#xa1;" horiz-adv-x="219" 
d="M67 399v86h85v-86h-85zM72 -180l19 493h38l19 -493h-76z" />
    <glyph glyph-name="cent" unicode="&#xa2;" horiz-adv-x="600" 
d="M290 -115l-0.00195312 109.998c-38.667 4.66699 -72.667 18.167 -102 40.5s-52.166 51.333 -68.499 87s-24.5 75.834 -24.5 120.501c0 43.333 8 82.5 24 117.5s38.667 63.667 68 86s63.666 36.5 102.999 42.5v116h54v-114c28.667 -2 56.834 -8.66699 84.501 -20
s49.834 -26 66.501 -44l-24 -45c-18.667 18.667 -40.5 32.834 -65.5 42.501s-50.5 14.5 -76.5 14.5c-52.667 0 -94.334 -18 -125.001 -54s-46 -83.333 -46 -142c0 -60 15.167 -107.667 45.5 -143s71.833 -53 124.5 -53c26.667 0 52.5 4.5 77.5 13.5s46.833 23.167 65.5 42.5
l24 -44c-17.333 -18.667 -39.666 -33.667 -66.999 -45s-55.333 -18.333 -84 -21v-108h-54z" />
    <glyph glyph-name="sterling" unicode="&#xa3;" horiz-adv-x="600" 
d="M49 0l-0.000976562 54h105v275h-105v48h105v139c0 63.333 17.333 112 52 146s86.334 51 155.001 51c37.333 0 74 -7 110 -21s66.333 -33.667 91 -59l-28 -50c-20 26 -45.5 45 -76.5 57s-64.5 18 -100.5 18c-94 0 -141 -46.333 -141 -139v-142h186v-48h-186v-275h333v-54
h-500z" />
    <glyph glyph-name="currency" unicode="&#xa4;" horiz-adv-x="600" 
d="M76 -24l-38.998 39.9951l74 76c-16 20.667 -28.5 44.167 -37.5 70.5s-13.5 53.833 -13.5 82.5s4.5 56.167 13.5 82.5s21.5 50.166 37.5 71.499l-74 75l39 40l74 -76c20 17.333 43 30.833 69 40.5s53.333 14.5 82 14.5c28 0 54.5 -4.66699 79.5 -14
s47.833 -22.333 68.5 -39l72 74l40 -40l-73 -74c16.667 -21.333 29.667 -45.166 39 -71.499s14 -54.166 14 -83.499s-4.66699 -57.166 -14 -83.499s-22.333 -50.166 -39 -71.499l73 -74l-40 -40l-72 75c-20 -17.333 -42.667 -30.666 -68 -39.999s-52 -14 -80 -14
c-28.667 0 -55.834 4.83301 -81.501 14.5s-48.834 22.834 -69.501 39.501zM300.002 52.9951c33.333 0 63.5 8.66797 90.5 26.001s48.5 40.5 64.5 69.5s24 61.167 24 96.5s-8 67.666 -24 96.999s-37.5 52.5 -64.5 69.5s-57.167 25.5 -90.5 25.5s-63.666 -8.66699 -90.999 -26
s-49 -40.5 -65 -69.5s-24 -61.167 -24 -96.5s8 -67.5 24 -96.5s37.667 -52.167 65 -69.5s57.666 -26 90.999 -26z" />
    <glyph glyph-name="yen" unicode="&#xa5;" horiz-adv-x="600" 
d="M269 0v182h-195v48h195v104h-195v47h163l-237 324h71l229 -317l229 317h71l-235 -324h161v-47h-195v-104h195v-48h-195v-182h-62z" />
    <glyph glyph-name="brokenbar" unicode="&#xa6;" horiz-adv-x="254" 
d="M97 372v333h61v-333h-61zM97 -180v333h61v-333h-61z" />
    <glyph glyph-name="section" unicode="&#xa7;" horiz-adv-x="534" 
d="M241 -188c-41.333 0 -78.6729 5.50293 -112.006 16.5029s-60.333 26.833 -81 47.5l23 45c20 -18 45.5 -32.333 76.5 -43s62.833 -16 95.5 -16c42.667 0 77.334 10.667 104.001 32s40 51.666 40 90.999c0 28 -7 51.833 -21 71.5s-39.333 38.5 -76 56.5l-102 48
c-36.667 18 -65.5 35.667 -86.5 53s-35.667 35.666 -44 54.999s-12.5 41.333 -12.5 66c0 23.333 5.33301 46.333 16 69s24.334 42 41.001 58c-4.66699 7.33301 -8.66699 17.166 -12 29.499s-5 27.166 -5 44.499c0 36.667 9 68.167 27 94.5s42.333 46.666 73 60.999
s65 21.5 103 21.5s73.333 -5.66699 106 -17s59 -27 79 -47l-24 -45c-20 18.667 -44.667 33 -74 43s-59.333 15 -90 15c-39.333 0 -72.166 -10.667 -98.499 -32s-39.5 -51.666 -39.5 -90.999c0 -27.333 7 -51 21 -71s39.333 -38.667 76 -56l102 -49
c36.667 -17.333 65.334 -34.666 86.001 -51.999s35.334 -35.833 44.001 -55.5s13 -41.834 13 -66.501c0 -23.333 -5.33301 -46.333 -16 -69s-24.334 -41.667 -41.001 -57c4.66699 -8 8.66699 -18.167 12 -30.5s5 -27.166 5 -44.499c0 -36.667 -9.16699 -68.167 -27.5 -94.5
s-43.166 -46.5 -74.499 -60.5s-66.666 -21 -105.999 -21zM101.993 342.003c0 -26 7.83301 -49 23.5 -69s45.5 -40.333 89.5 -61l88 -42c23.333 -11.333 43.166 -22.833 59.499 -34.5s29.5 -23.167 39.5 -34.5c20 22.667 30 50 30 82c0 25.333 -8 48 -24 68
s-45.667 40.333 -89 61l-88 42c-23.333 11.333 -43.166 22.833 -59.499 34.5s-29.5 23.167 -39.5 34.5c-20 -22.667 -30 -49.667 -30 -81z" />
    <glyph glyph-name="dieresis" unicode="&#xa8;" horiz-adv-x="500" 
d="M297 615v72h73v-72h-73zM130 615v72h73v-72h-73z" />
    <glyph glyph-name="copyright" unicode="&#xa9;" horiz-adv-x="815" 
d="M408 -8c-51.333 0 -98.833 9 -142.5 27s-82 43.5 -115 76.5s-58.5 71.333 -76.5 115s-27 91.167 -27 142.5s9 98.833 27 142.5s43.333 81.834 76 114.501s71 58 115 76s91.667 27 143 27s98.833 -9 142.5 -27s81.834 -43.333 114.501 -76s58 -70.834 76 -114.501
s27 -91.167 27 -142.5s-9 -98.833 -27 -142.5s-43.333 -82 -76 -115s-70.834 -58.5 -114.501 -76.5s-91.167 -27 -142.5 -27zM408 31c45.333 0 87.333 8.16699 126 24.5s72.5 39.166 101.5 68.499s51.5 63.5 67.5 102.5s24 81.167 24 126.5s-8 87.5 -24 126.5
s-38.5 73 -67.5 102s-62.833 51.667 -101.5 68s-80.667 24.5 -126 24.5s-87.5 -8.16699 -126.5 -24.5s-73 -39 -102 -68s-51.5 -63 -67.5 -102s-24 -81.167 -24 -126.5s8 -87.5 24 -126.5s38.5 -73.167 67.5 -102.5s63 -52.166 102 -68.499s81.167 -24.5 126.5 -24.5z
M419 137c-63.333 0 -113.165 20.001 -149.498 60.001s-54.5 93 -54.5 159c0 65.333 18.167 117 54.5 155s86.166 57 149.499 57c26.667 0 52.667 -5 78 -15s46.666 -23.333 63.999 -40l-21 -42c-18.667 17.333 -38.334 29.666 -59.001 36.999s-41 11 -61 11
c-46.667 0 -83.167 -14.333 -109.5 -43s-39.5 -69 -39.5 -121s13.167 -93.167 39.5 -123.5s62.833 -45.5 109.5 -45.5c20 0 40.333 3.83301 61 11.5s40.334 20.167 59.001 37.5l21 -43c-17.333 -16.667 -39 -30 -65 -40s-51.667 -15 -77 -15z" />
    <glyph glyph-name="ordfeminine" unicode="&#xaa;" horiz-adv-x="321" 
d="M137 412c-31.333 0 -57.002 8.33301 -77.002 25s-30 38 -30 64c0 30 13.833 51.667 41.5 65s63.834 20 108.501 20h57v19c0 47.333 -25 71 -75 71c-18.667 0 -37.167 -2.5 -55.5 -7.5s-35.166 -12.5 -50.499 -22.5l-14 36c16 10.667 34.833 18.5 56.5 23.5
s43.167 7.5 64.5 7.5c79.333 0 119 -36.667 119 -110v-186h-44v54h-2c-21.333 -39.333 -54.333 -59 -99 -59zM144.998 448c26.667 0 48.667 8.83105 66 26.498s26 41.834 26 72.501v6h-55c-70.667 0 -106 -17 -106 -51c0 -15.333 5.5 -28.166 16.5 -38.499
s28.5 -15.5 52.5 -15.5z" />
    <glyph glyph-name="guillemotleft" unicode="&#xab;" horiz-adv-x="417" 
d="M155 90l-95 160v31l94 159l46 -18l-80 -157l80 -158zM324 90l-95 160v31l94 159l46 -18l-80 -157l80 -158z" />
    <glyph glyph-name="logicalnot" unicode="&#xac;" horiz-adv-x="600" 
d="M492 153v211h-436v50h488v-261h-52z" />
    <glyph glyph-name="uni00AD" unicode="&#xad;" horiz-adv-x="420" 
d="M74 240v52h272v-52h-272z" />
    <glyph glyph-name="registered" unicode="&#xae;" horiz-adv-x="815" 
d="M408 -8c-51.333 0 -98.833 9 -142.5 27s-82 43.5 -115 76.5s-58.5 71.333 -76.5 115s-27 91.167 -27 142.5s9 98.833 27 142.5s43.333 81.834 76 114.501s71 58 115 76s91.667 27 143 27s98.833 -9 142.5 -27s81.834 -43.333 114.501 -76s58 -70.834 76 -114.501
s27 -91.167 27 -142.5s-9 -98.833 -27 -142.5s-43.333 -82 -76 -115s-70.834 -58.5 -114.501 -76.5s-91.167 -27 -142.5 -27zM408 31c45.333 0 87.333 8.16699 126 24.5s72.5 39.166 101.5 68.499s51.5 63.5 67.5 102.5s24 81.167 24 126.5s-8 87.5 -24 126.5
s-38.5 73 -67.5 102s-62.833 51.667 -101.5 68s-80.667 24.5 -126 24.5s-87.5 -8.16699 -126.5 -24.5s-73 -39 -102 -68s-51.5 -63 -67.5 -102s-24 -81.167 -24 -126.5s8 -87.5 24 -126.5s38.5 -73.167 67.5 -102.5s63 -52.166 102 -68.499s81.167 -24.5 126.5 -24.5z
M268 142l-0.00292969 421.001h167c44.667 0 78.834 -10.5 102.501 -31.5s35.5 -50.833 35.5 -89.5c0 -63.333 -31.333 -101.333 -94 -114c21.333 -8 37 -25.333 47 -52l53 -134h-56l-52 132c-7.33301 17.333 -17.666 29.166 -30.999 35.499s-29.666 9.5 -48.999 9.5h-69
v-177h-54zM321.997 364.001h106c61.333 0 92 25.667 92 77s-30.667 77 -92 77h-106v-154z" />
    <glyph glyph-name="macron" unicode="&#xaf;" horiz-adv-x="500" 
d="M106 629v46h288v-46h-288z" />
    <glyph glyph-name="degree" unicode="&#xb0;" horiz-adv-x="367" 
d="M184 424c-27.333 0 -52 6.33301 -74 19s-39.333 30 -52 52s-19 46.667 -19 74s6.33301 51.833 19 73.5s30 38.834 52 51.501s46.667 19 74 19c26.667 0 51 -6.16699 73 -18.5s39.167 -29.5 51.5 -51.5s18.5 -46.667 18.5 -74c0 -28 -6.16699 -52.833 -18.5 -74.5
s-29.5 -38.834 -51.5 -51.501s-46.333 -19 -73 -19zM184 471c27.333 0 49.666 9.16699 66.999 27.5s26 41.833 26 70.5c0 28 -8.66699 51.167 -26 69.5s-39.666 27.5 -66.999 27.5c-28 0 -50.667 -9.16699 -68 -27.5s-26 -41.5 -26 -69.5
c0 -28.667 8.66699 -52.167 26 -70.5s40 -27.5 68 -27.5z" />
    <glyph glyph-name="plusminus" unicode="&#xb1;" horiz-adv-x="600" 
d="M274 122v178h-218v50h218v179h52v-179h218v-50h-218v-178h-52zM56 0v50h488v-50h-488z" />
    <glyph glyph-name="uni00B2" unicode="&#xb2;" horiz-adv-x="380" 
d="M56 282l-0.00195312 38.999l141 154c20.667 22.667 35.334 42.667 44.001 60s13 35.333 13 54c0 48 -25 72 -75 72c-19.333 0 -39.166 -4.16699 -59.499 -12.5s-38.166 -20.166 -53.499 -35.499l-26 39c17.333 18 39 32 65 42s52.667 15 80 15
c39.333 0 70.166 -10.333 92.499 -31s33.5 -49 33.5 -85c0 -44 -22 -89.333 -66 -136l-118 -127h205v-48h-276z" />
    <glyph glyph-name="uni00B3" unicode="&#xb3;" horiz-adv-x="380" 
d="M187 279c-30.667 0 -59.002 4.99805 -85.002 14.998s-47 23.667 -63 41l25 40c14 -15.333 31.667 -27.333 53 -36s44 -13 68 -13c23.333 0 43.5 6 60.5 18s25.5 31 25.5 57c0 25.333 -8.66699 43.5 -26 54.5s-40.333 16.5 -69 16.5h-75v48h64
c28.667 0 51.667 6.16699 69 18.5s26 30.833 26 55.5c0 20.667 -7.16699 37 -21.5 49s-33.833 18 -58.5 18c-20 0 -40.167 -4.16699 -60.5 -12.5s-38.166 -20.166 -53.499 -35.499l-26 39c17.333 18 39 32 65 42s53 15 81 15c38.667 0 69.834 -10 93.501 -30
s35.5 -46.333 35.5 -79c0 -24.667 -6.66699 -45.5 -20 -62.5s-29.333 -29.5 -48 -37.5c23.333 -6.66699 42.333 -18.667 57 -36s22 -39.666 22 -66.999c0 -38 -13.5 -67.167 -40.5 -87.5s-59.833 -30.5 -98.5 -30.5z" />
    <glyph glyph-name="acute" unicode="&#xb4;" horiz-adv-x="500" 
d="M227 550l103 201h70l-127 -201h-46z" />
    <glyph glyph-name="uni00B5" unicode="&#xb5;" horiz-adv-x="600" 
d="M104 -180v665h61v-302c0 -47.333 9.5 -82 28.5 -104s48.5 -33 88.5 -33c46.667 0 84.167 14.667 112.5 44s42.5 69 42.5 119v276h61v-485h-60v89c-14 -32 -34.833 -56.167 -62.5 -72.5s-58.5 -24.5 -92.5 -24.5c-26 0 -49.5 3.83301 -70.5 11.5s-38.5 21.5 -52.5 41.5
l5 -225h-61z" />
    <glyph glyph-name="paragraph" unicode="&#xb6;" horiz-adv-x="572" 
d="M241 -180l0.000976562 503c-38.667 0 -72.334 8.16699 -101.001 24.5s-51 39 -67 68s-24 61.833 -24 98.5s8 69.5 24 98.5s38.5 51.667 67.5 68s63.167 24.5 102.5 24.5h237v-885h-53v835h-132v-835h-54z" />
    <glyph glyph-name="periodcentered" unicode="&#xb7;" horiz-adv-x="219" 
d="M67 223v85h85v-85h-85z" />
    <glyph glyph-name="cedilla" unicode="&#xb8;" horiz-adv-x="500" 
d="M254 -191c-34.667 0 -62.334 6.33301 -83.001 19l11 39c12 -6 23.333 -10.333 34 -13s23.667 -4 39 -4c18 0 32.5 3.5 43.5 10.5s16.5 16.833 16.5 29.5c0 20 -12.667 30 -38 30c-7.33301 0 -14.833 -0.5 -22.5 -1.5s-16.5 -3.5 -26.5 -7.5l-16 14l14 95h45l-11 -66
c8 1.33301 15.333 2 22 2c22.667 0 41.834 -5.83301 57.501 -17.5s23.5 -28.167 23.5 -49.5c0 -24 -10 -43.333 -30 -58s-46.333 -22 -79 -22z" />
    <glyph glyph-name="uni00B9" unicode="&#xb9;" horiz-adv-x="380" 
d="M96 282v48h92v311l-79 -51l-27 41l116 74h43v-375h80v-48h-225z" />
    <glyph glyph-name="ordmasculine" unicode="&#xba;" horiz-adv-x="332" 
d="M166 412c-40.667 0 -74.5 13.667 -101.5 41s-40.5 64 -40.5 110s13.5 82.5 40.5 109.5s60.833 40.5 101.5 40.5s74.5 -13.5 101.5 -40.5s40.5 -63.5 40.5 -109.5s-13.5 -82.667 -40.5 -110s-60.833 -41 -101.5 -41zM166 450c29.333 0 52.5 9.66699 69.5 29
s25.5 47.333 25.5 84s-8.5 64.5 -25.5 83.5s-40.167 28.5 -69.5 28.5s-52.5 -9.5 -69.5 -28.5s-25.5 -46.833 -25.5 -83.5s8.5 -64.667 25.5 -84s40.167 -29 69.5 -29z" />
    <glyph glyph-name="guillemotright" unicode="&#xbb;" horiz-adv-x="417" 
d="M93 90l-45 17l80 158l-80 157l46 18l93 -159v-31zM262 90l-45 17l80 158l-80 157l46 18l93 -159v-31z" />
    <glyph glyph-name="onequarter" unicode="&#xbc;" horiz-adv-x="885" 
d="M96 282v48h92v311l-79 -51l-27 41l116 74h43v-375h80v-48h-225zM276 -23l-42 26l418 725l42 -26zM741 0v89h-195v41l201 293h46v-287h63v-47h-63v-89h-52zM741 136v203l-139 -203h139z" />
    <glyph glyph-name="onehalf" unicode="&#xbd;" horiz-adv-x="927" 
d="M96 282v48h92v311l-79 -51l-27 41l116 74h43v-375h80v-48h-225zM276 -23l-42 26l418 725l42 -26zM603 0l-0.00195312 38.999l141 154c20.667 22.667 35.334 42.667 44.001 60s13 35.333 13 54c0 48 -25 72 -75 72c-19.333 0 -39.166 -4.16699 -59.499 -12.5
s-38.166 -20.166 -53.499 -35.499l-26 39c17.333 18 39 32 65 42s52.667 15 80 15c39.333 0 70.166 -10.333 92.499 -31s33.5 -49 33.5 -85c0 -44 -22 -89.333 -66 -136l-118 -127h205v-48h-276z" />
    <glyph glyph-name="threequarters" unicode="&#xbe;" horiz-adv-x="885" 
d="M187 279c-30.667 0 -59.002 4.99805 -85.002 14.998s-47 23.667 -63 41l25 40c14 -15.333 31.667 -27.333 53 -36s44 -13 68 -13c23.333 0 43.5 6 60.5 18s25.5 31 25.5 57c0 25.333 -8.66699 43.5 -26 54.5s-40.333 16.5 -69 16.5h-75v48h64
c28.667 0 51.667 6.16699 69 18.5s26 30.833 26 55.5c0 20.667 -7.16699 37 -21.5 49s-33.833 18 -58.5 18c-20 0 -40.167 -4.16699 -60.5 -12.5s-38.166 -20.166 -53.499 -35.499l-26 39c17.333 18 39 32 65 42s53 15 81 15c38.667 0 69.834 -10 93.501 -30
s35.5 -46.333 35.5 -79c0 -24.667 -6.66699 -45.5 -20 -62.5s-29.333 -29.5 -48 -37.5c23.333 -6.66699 42.333 -18.667 57 -36s22 -39.666 22 -66.999c0 -38 -13.5 -67.167 -40.5 -87.5s-59.833 -30.5 -98.5 -30.5zM275.998 -23.002l-42 26l418 725l42 -26z
M740.998 -0.00195312v89h-195v41l201 293h46v-287h63v-47h-63v-89h-52zM740.998 135.998v203l-139 -203h139z" />
    <glyph glyph-name="questiondown" unicode="&#xbf;" horiz-adv-x="436" 
d="M192 399v86h84v-86h-84zM212 -188c-55.333 0 -99.832 13.3291 -133.499 39.9961s-50.5 62 -50.5 106c0 28 6.33301 54.833 19 80.5s36.667 55.834 72 90.501c32 32.667 54.667 61.167 68 85.5s21.333 49.5 24 75.5l3 22h40v-23c0 -31.333 -6.33301 -61.666 -19 -90.999
s-36 -61.666 -70 -96.999c-28.667 -28.667 -48.167 -53.334 -58.5 -74.001s-15.5 -41.667 -15.5 -63c0 -29.333 10.833 -52.666 32.5 -69.999s51.5 -26 89.5 -26c38.667 0 74 6.5 106 19.5s62 32.167 90 57.5l25 -49c-24.667 -25.333 -56.834 -45.666 -96.501 -60.999
s-81.5 -23 -125.5 -23z" />
    <glyph glyph-name="Agrave" unicode="&#xc0;" horiz-adv-x="722" 
d="M27 0l307 705h55l306 -705h-64l-81 188h-378l-80 -188h-65zM360 629l-165 -388h332l-165 388h-2zM337 765l-141 171h73l118 -171h-50z" />
    <glyph glyph-name="Aacute" unicode="&#xc1;" horiz-adv-x="722" 
d="M27 0l307 705h55l306 -705h-64l-81 188h-378l-80 -188h-65zM360 629l-165 -388h332l-165 388h-2zM337 765l118 171h73l-141 -171h-50z" />
    <glyph glyph-name="Acircumflex" unicode="&#xc2;" horiz-adv-x="722" 
d="M27 0l307 705h55l306 -705h-64l-81 188h-378l-80 -188h-65zM360 629l-165 -388h332l-165 388h-2zM209 765l122 171h62l122 -171h-49l-104 126l-104 -126h-49z" />
    <glyph glyph-name="Atilde" unicode="&#xc3;" horiz-adv-x="722" 
d="M27 0l307 705h55l306 -705h-64l-81 188h-378l-80 -188h-65zM360 629l-165 -388h332l-165 388h-2zM199 787l-39.0029 3.00098c4 40.667 16 72 36 94s45.667 33 77 33c15.333 0 30.833 -3.5 46.5 -10.5s34.167 -18.167 55.5 -33.5c21.333 -14 37.5 -23.667 48.5 -29
s21.167 -8 30.5 -8c38.667 0 62.334 28 71.001 84l39 -3c-4 -40.667 -16 -72 -36 -94s-45.333 -33 -76 -33c-15.333 0 -31.166 3.5 -47.499 10.5s-35.833 18.5 -58.5 34.5c-18.667 13.333 -33.667 22.666 -45 27.999s-21.666 8 -30.999 8c-38 0 -61.667 -28 -71 -84z" />
    <glyph glyph-name="Adieresis" unicode="&#xc4;" horiz-adv-x="722" 
d="M27 0l307 705h55l306 -705h-64l-81 188h-378l-80 -188h-65zM360 629l-165 -388h332l-165 388h-2zM409 813v73h73v-73h-73zM242 813v73h73v-73h-73z" />
    <glyph glyph-name="Aring" unicode="&#xc5;" horiz-adv-x="722" 
d="M27 0l307 705h55l306 -705h-64l-81 188h-378l-80 -188h-65zM360 629l-165 -388h332l-165 388h-2zM362 759c-32.667 0 -60 11 -82 33s-33 48.667 -33 80s11 58 33 80s49.333 33 82 33s60 -11 82 -33s33 -48.667 33 -80s-11 -58 -33 -80s-49.333 -33 -82 -33zM362 797
c22 0 40 7.16699 54 21.5s21 32.166 21 53.499s-7 39.166 -21 53.499s-32 21.5 -54 21.5s-40 -7.16699 -54 -21.5s-21 -32.166 -21 -53.499s7 -39.166 21 -53.499s32 -21.5 54 -21.5z" />
    <glyph glyph-name="AE" unicode="&#xc6;" horiz-adv-x="976" 
d="M-7 0l424 705h509v-53h-439l56 -268h362v-53h-350l59 -278h312v-53h-358l-40 188h-356l-111 -188h-68zM433 628l-229 -387h313l-82 387h-2z" />
    <glyph glyph-name="Ccedilla" unicode="&#xc7;" horiz-adv-x="670" 
d="M386 -8c-67.333 0 -125 14.5 -173 43.5s-84.833 70.5 -110.5 124.5s-38.5 118.333 -38.5 193c0 74 12.833 138 38.5 192s62.5 95.5 110.5 124.5s105.667 43.5 173 43.5c48.667 0 93.5 -7.83301 134.5 -23.5s75.833 -38.5 104.5 -68.5l-27 -51
c-31.333 30.667 -63.833 52.667 -97.5 66s-71.5 20 -113.5 20c-82.667 0 -146.167 -26.5 -190.5 -79.5s-66.5 -127.5 -66.5 -223.5c0 -96.667 22.167 -171.5 66.5 -224.5s107.833 -79.5 190.5 -79.5c42 0 79.833 6.66699 113.5 20s66.167 35.333 97.5 66l27 -51
c-28.667 -30 -63.5 -52.833 -104.5 -68.5s-85.833 -23.5 -134.5 -23.5zM387 -191c-34.667 0 -62.334 6.33301 -83.001 19l11 39c12 -6 23.333 -10.333 34 -13s23.667 -4 39 -4c18 0 32.5 3.5 43.5 10.5s16.5 16.833 16.5 29.5c0 20 -12.667 30 -38 30
c-7.33301 0 -14.833 -0.5 -22.5 -1.5s-16.5 -3.5 -26.5 -7.5l-16 14l14 95h45l-11 -66c8 1.33301 15.333 2 22 2c22.667 0 41.834 -5.83301 57.501 -17.5s23.5 -28.167 23.5 -49.5c0 -24 -10 -43.333 -30 -58s-46.333 -22 -79 -22z" />
    <glyph glyph-name="Egrave" unicode="&#xc8;" horiz-adv-x="576" 
d="M92 0v705h434v-53h-374v-268h353v-53h-353v-278h374v-53h-434zM297 765l-141 171h73l118 -171h-50z" />
    <glyph glyph-name="Eacute" unicode="&#xc9;" horiz-adv-x="576" 
d="M92 0v705h434v-53h-374v-268h353v-53h-353v-278h374v-53h-434zM297 765l118 171h73l-141 -171h-50z" />
    <glyph glyph-name="Ecircumflex" unicode="&#xca;" horiz-adv-x="576" 
d="M92 0v705h434v-53h-374v-268h353v-53h-353v-278h374v-53h-434zM169 765l122 171h62l122 -171h-49l-104 126l-104 -126h-49z" />
    <glyph glyph-name="Edieresis" unicode="&#xcb;" horiz-adv-x="576" 
d="M92 0v705h434v-53h-374v-268h353v-53h-353v-278h374v-53h-434zM369 813v73h73v-73h-73zM202 813v73h73v-73h-73z" />
    <glyph glyph-name="Igrave" unicode="&#xcc;" horiz-adv-x="245" 
d="M92 0v705h61v-705h-61zM97 765l-141 171h73l118 -171h-50z" />
    <glyph glyph-name="Iacute" unicode="&#xcd;" horiz-adv-x="245" 
d="M92 0v705h61v-705h-61zM97 765l118 171h73l-141 -171h-50z" />
    <glyph glyph-name="Icircumflex" unicode="&#xce;" horiz-adv-x="245" 
d="M92 0v705h61v-705h-61zM-31 765l122 171h62l122 -171h-49l-104 126l-104 -126h-49z" />
    <glyph glyph-name="Idieresis" unicode="&#xcf;" horiz-adv-x="245" 
d="M92 0v705h61v-705h-61zM169 813v73h73v-73h-73zM2 813v73h73v-73h-73z" />
    <glyph glyph-name="Eth" unicode="&#xd0;" horiz-adv-x="733" 
d="M92 0v705h227c112 0 198.5 -30 259.5 -90s91.5 -147.333 91.5 -262s-30.5 -202.167 -91.5 -262.5s-147.5 -90.5 -259.5 -90.5h-227zM153 54h161c193.333 0 290 99.667 290 299c0 198.667 -96.667 298 -290 298h-161v-597zM2 333v50h350v-50h-350z" />
    <glyph glyph-name="Ntilde" unicode="&#xd1;" horiz-adv-x="736" 
d="M92 0v705h49l446 -601v601h57v-705h-48l-447 602v-602h-57zM205 787l-39.0029 3.00098c4 40.667 16 72 36 94s45.667 33 77 33c15.333 0 30.833 -3.5 46.5 -10.5s34.167 -18.167 55.5 -33.5c21.333 -14 37.5 -23.667 48.5 -29s21.167 -8 30.5 -8
c38.667 0 62.334 28 71.001 84l39 -3c-4 -40.667 -16 -72 -36 -94s-45.333 -33 -76 -33c-15.333 0 -31.166 3.5 -47.499 10.5s-35.833 18.5 -58.5 34.5c-18.667 13.333 -33.667 22.666 -45 27.999s-21.666 8 -30.999 8c-38 0 -61.667 -28 -71 -84z" />
    <glyph glyph-name="Ograve" unicode="&#xd2;" horiz-adv-x="759" 
d="M379 -8c-64.667 0 -120.499 14.667 -167.499 44s-83.333 71 -109 125s-38.5 118 -38.5 192s12.667 138 38 192s61.666 95.5 108.999 124.5s103.333 43.5 168 43.5c65.333 0 121.5 -14.5 168.5 -43.5s83.333 -70.333 109 -124s38.5 -117.5 38.5 -191.5
c0 -74.667 -12.833 -139 -38.5 -193s-62.167 -95.667 -109.5 -125s-103.333 -44 -168 -44zM379.001 48c79.333 0 141 26.667 185 80s66 128.333 66 225s-21.833 171.5 -65.5 224.5s-105.5 79.5 -185.5 79.5c-79.333 0 -140.833 -26.667 -184.5 -80s-65.5 -128 -65.5 -224
s21.833 -170.833 65.5 -224.5s105.167 -80.5 184.5 -80.5zM354.001 765l-141 171h73l118 -171h-50z" />
    <glyph glyph-name="Oacute" unicode="&#xd3;" horiz-adv-x="759" 
d="M379 -8c-64.667 0 -120.499 14.667 -167.499 44s-83.333 71 -109 125s-38.5 118 -38.5 192s12.667 138 38 192s61.666 95.5 108.999 124.5s103.333 43.5 168 43.5c65.333 0 121.5 -14.5 168.5 -43.5s83.333 -70.333 109 -124s38.5 -117.5 38.5 -191.5
c0 -74.667 -12.833 -139 -38.5 -193s-62.167 -95.667 -109.5 -125s-103.333 -44 -168 -44zM379.001 48c79.333 0 141 26.667 185 80s66 128.333 66 225s-21.833 171.5 -65.5 224.5s-105.5 79.5 -185.5 79.5c-79.333 0 -140.833 -26.667 -184.5 -80s-65.5 -128 -65.5 -224
s21.833 -170.833 65.5 -224.5s105.167 -80.5 184.5 -80.5zM354.001 765l118 171h73l-141 -171h-50z" />
    <glyph glyph-name="Ocircumflex" unicode="&#xd4;" horiz-adv-x="759" 
d="M379 -8c-64.667 0 -120.499 14.667 -167.499 44s-83.333 71 -109 125s-38.5 118 -38.5 192s12.667 138 38 192s61.666 95.5 108.999 124.5s103.333 43.5 168 43.5c65.333 0 121.5 -14.5 168.5 -43.5s83.333 -70.333 109 -124s38.5 -117.5 38.5 -191.5
c0 -74.667 -12.833 -139 -38.5 -193s-62.167 -95.667 -109.5 -125s-103.333 -44 -168 -44zM379.001 48c79.333 0 141 26.667 185 80s66 128.333 66 225s-21.833 171.5 -65.5 224.5s-105.5 79.5 -185.5 79.5c-79.333 0 -140.833 -26.667 -184.5 -80s-65.5 -128 -65.5 -224
s21.833 -170.833 65.5 -224.5s105.167 -80.5 184.5 -80.5zM226.001 765l122 171h62l122 -171h-49l-104 126l-104 -126h-49z" />
    <glyph glyph-name="Otilde" unicode="&#xd5;" horiz-adv-x="759" 
d="M379 -8c-64.667 0 -120.499 14.667 -167.499 44s-83.333 71 -109 125s-38.5 118 -38.5 192s12.667 138 38 192s61.666 95.5 108.999 124.5s103.333 43.5 168 43.5c65.333 0 121.5 -14.5 168.5 -43.5s83.333 -70.333 109 -124s38.5 -117.5 38.5 -191.5
c0 -74.667 -12.833 -139 -38.5 -193s-62.167 -95.667 -109.5 -125s-103.333 -44 -168 -44zM379.001 48c79.333 0 141 26.667 185 80s66 128.333 66 225s-21.833 171.5 -65.5 224.5s-105.5 79.5 -185.5 79.5c-79.333 0 -140.833 -26.667 -184.5 -80s-65.5 -128 -65.5 -224
s21.833 -170.833 65.5 -224.5s105.167 -80.5 184.5 -80.5zM216.001 787l-39.0029 3.00098c4 40.667 16 72 36 94s45.667 33 77 33c15.333 0 30.833 -3.5 46.5 -10.5s34.167 -18.167 55.5 -33.5c21.333 -14 37.5 -23.667 48.5 -29s21.167 -8 30.5 -8
c38.667 0 62.334 28 71.001 84l39 -3c-4 -40.667 -16 -72 -36 -94s-45.333 -33 -76 -33c-15.333 0 -31.166 3.5 -47.499 10.5s-35.833 18.5 -58.5 34.5c-18.667 13.333 -33.667 22.666 -45 27.999s-21.666 8 -30.999 8c-38 0 -61.667 -28 -71 -84z" />
    <glyph glyph-name="Odieresis" unicode="&#xd6;" horiz-adv-x="759" 
d="M379 -8c-64.667 0 -120.499 14.667 -167.499 44s-83.333 71 -109 125s-38.5 118 -38.5 192s12.667 138 38 192s61.666 95.5 108.999 124.5s103.333 43.5 168 43.5c65.333 0 121.5 -14.5 168.5 -43.5s83.333 -70.333 109 -124s38.5 -117.5 38.5 -191.5
c0 -74.667 -12.833 -139 -38.5 -193s-62.167 -95.667 -109.5 -125s-103.333 -44 -168 -44zM379.001 48c79.333 0 141 26.667 185 80s66 128.333 66 225s-21.833 171.5 -65.5 224.5s-105.5 79.5 -185.5 79.5c-79.333 0 -140.833 -26.667 -184.5 -80s-65.5 -128 -65.5 -224
s21.833 -170.833 65.5 -224.5s105.167 -80.5 184.5 -80.5zM426.001 813v73h73v-73h-73zM259.001 813v73h73v-73h-73z" />
    <glyph glyph-name="multiply" unicode="&#xd7;" horiz-adv-x="600" 
d="M102 50l-36 35l198 199l-198 198l36 36l198 -198l198 198l36 -36l-198 -198l198 -199l-36 -35l-198 199z" />
    <glyph glyph-name="Oslash" unicode="&#xd8;" horiz-adv-x="759" 
d="M379 -8c-64.667 0 -120.499 14.667 -167.499 44s-83.333 71 -109 125s-38.5 118 -38.5 192s12.667 138 38 192s61.666 95.5 108.999 124.5s103.333 43.5 168 43.5c65.333 0 121.5 -14.5 168.5 -43.5s83.333 -70.333 109 -124s38.5 -117.5 38.5 -191.5
c0 -74.667 -12.833 -139 -38.5 -193s-62.167 -95.667 -109.5 -125s-103.333 -44 -168 -44zM379.001 48c79.333 0 141 26.667 185 80s66 128.333 66 225s-21.833 171.5 -65.5 224.5s-105.5 79.5 -185.5 79.5c-79.333 0 -140.833 -26.667 -184.5 -80s-65.5 -128 -65.5 -224
s21.833 -170.833 65.5 -224.5s105.167 -80.5 184.5 -80.5zM180.001 -41l-45 25l50 86l19 31l310 532l16 28l49 85l45 -25l-50 -86l-18 -31l-310 -532l-16 -28z" />
    <glyph glyph-name="Ugrave" unicode="&#xd9;" horiz-adv-x="724" 
d="M362 -8c-90 0 -158.333 24.167 -205 72.5s-70 118.5 -70 210.5v430h61v-425c0 -154.667 71.333 -232 214 -232s214 77.333 214 232v425h61v-430c0 -92 -23.333 -162.167 -70 -210.5s-115 -72.5 -205 -72.5zM337 765l-141 171h73l118 -171h-50z" />
    <glyph glyph-name="Uacute" unicode="&#xda;" horiz-adv-x="724" 
d="M362 -8c-90 0 -158.333 24.167 -205 72.5s-70 118.5 -70 210.5v430h61v-425c0 -154.667 71.333 -232 214 -232s214 77.333 214 232v425h61v-430c0 -92 -23.333 -162.167 -70 -210.5s-115 -72.5 -205 -72.5zM337 765l118 171h73l-141 -171h-50z" />
    <glyph glyph-name="Ucircumflex" unicode="&#xdb;" horiz-adv-x="724" 
d="M362 -8c-90 0 -158.333 24.167 -205 72.5s-70 118.5 -70 210.5v430h61v-425c0 -154.667 71.333 -232 214 -232s214 77.333 214 232v425h61v-430c0 -92 -23.333 -162.167 -70 -210.5s-115 -72.5 -205 -72.5zM209 765l122 171h62l122 -171h-49l-104 126l-104 -126h-49z" />
    <glyph glyph-name="Udieresis" unicode="&#xdc;" horiz-adv-x="724" 
d="M362 -8c-90 0 -158.333 24.167 -205 72.5s-70 118.5 -70 210.5v430h61v-425c0 -154.667 71.333 -232 214 -232s214 77.333 214 232v425h61v-430c0 -92 -23.333 -162.167 -70 -210.5s-115 -72.5 -205 -72.5zM409 813v73h73v-73h-73zM242 813v73h73v-73h-73z" />
    <glyph glyph-name="Yacute" unicode="&#xdd;" horiz-adv-x="586" 
d="M262 0v338l-269 367h72l229 -313l230 313h69l-269 -368v-337h-62zM268 765l118 171h73l-141 -171h-50z" />
    <glyph glyph-name="Thorn" unicode="&#xde;" horiz-adv-x="625" 
d="M92 0v705h61v-132h206c74.667 0 132 -18 172 -54s60 -87.333 60 -154c0 -66 -20 -117 -60 -153s-97.333 -54 -172 -54h-206v-158h-61zM153 211h200c116.667 0 175 51.333 175 154c0 103.333 -58.333 155 -175 155h-200v-309z" />
    <glyph glyph-name="germandbls" unicode="&#xdf;" horiz-adv-x="597" 
d="M388 -8c-32.667 0 -65.332 5.49902 -97.999 16.499s-59.667 26.5 -81 46.5l24 46c24 -20.667 49.667 -35.5 77 -44.5s53.666 -13.5 78.999 -13.5c35.333 0 63.5 7.83301 84.5 23.5s31.5 36.834 31.5 63.501c0 21.333 -8.5 39 -25.5 53s-45.833 27.667 -86.5 41
c-54 16.667 -91.667 35.334 -113 56.001s-32 46.667 -32 78c0 20.667 5.83301 40.5 17.5 59.5s32.834 41.5 63.501 67.5c22 18.667 37.667 35.667 47 51s14 31.666 14 48.999c0 24 -8.5 43 -25.5 57s-40.833 21 -71.5 21c-49.333 0 -87 -14.667 -113 -44
s-39 -70.666 -39 -123.999v-495h-61v490c0 70 18.667 124.667 56 164s89.333 59 156 59c49.333 0 88 -11.167 116 -33.5s42 -52.166 42 -89.499c0 -26 -6.16699 -49 -18.5 -69s-32.833 -42.333 -61.5 -67c-24 -20.667 -40.333 -37.334 -49 -50.001s-13 -26.334 -13 -41.001
c0 -19.333 8.16699 -35.833 24.5 -49.5s45.5 -26.834 87.5 -39.501c52 -16.667 89.167 -36 111.5 -58s33.5 -50.667 33.5 -86c0 -41.333 -16.333 -74.666 -49 -99.999s-75.334 -38 -128.001 -38z" />
    <glyph glyph-name="agrave" unicode="&#xe0;" horiz-adv-x="522" 
d="M230 -8c-32.667 0 -61.835 6.33398 -87.502 19.001s-46 30 -61 52s-22.5 46.667 -22.5 74c0 36 9 64.167 27 84.5s48.333 34.833 91 43.5s101.334 13 176.001 13h31v36c0 44.667 -9 77.167 -27 97.5s-46.667 30.5 -86 30.5c-29.333 0 -57.5 -4.33301 -84.5 -13
s-54.833 -22.334 -83.5 -41.001l-24 47c25.333 18 55.333 32.333 90 43s68.334 16 101.001 16c58.667 0 102.167 -15 130.5 -45s42.5 -76 42.5 -138v-311h-58v87c-13.333 -30 -33.5 -53.333 -60.5 -70s-58.5 -25 -94.5 -25zM237.999 41.001
c28.667 0 53.832 6.83105 75.499 20.498s38.834 32.5 51.501 56.5s19 51.333 19 82v33h-30c-60 0 -106.833 -2.66699 -140.5 -8s-57.167 -14.666 -70.5 -27.999s-20 -31.666 -20 -54.999c0 -30 10.333 -54.333 31 -73s48.667 -28 84 -28zM244.997 549.999l-127 201h70
l103 -201h-46z" />
    <glyph glyph-name="aacute" unicode="&#xe1;" horiz-adv-x="522" 
d="M230 -8c-32.667 0 -61.835 6.33398 -87.502 19.001s-46 30 -61 52s-22.5 46.667 -22.5 74c0 36 9 64.167 27 84.5s48.333 34.833 91 43.5s101.334 13 176.001 13h31v36c0 44.667 -9 77.167 -27 97.5s-46.667 30.5 -86 30.5c-29.333 0 -57.5 -4.33301 -84.5 -13
s-54.833 -22.334 -83.5 -41.001l-24 47c25.333 18 55.333 32.333 90 43s68.334 16 101.001 16c58.667 0 102.167 -15 130.5 -45s42.5 -76 42.5 -138v-311h-58v87c-13.333 -30 -33.5 -53.333 -60.5 -70s-58.5 -25 -94.5 -25zM237.999 41.001
c28.667 0 53.832 6.83105 75.499 20.498s38.834 32.5 51.501 56.5s19 51.333 19 82v33h-30c-60 0 -106.833 -2.66699 -140.5 -8s-57.167 -14.666 -70.5 -27.999s-20 -31.666 -20 -54.999c0 -30 10.333 -54.333 31 -73s48.667 -28 84 -28zM244.997 549.999l103 201h70
l-127 -201h-46z" />
    <glyph glyph-name="acircumflex" unicode="&#xe2;" horiz-adv-x="522" 
d="M230 -8c-32.667 0 -61.835 6.33398 -87.502 19.001s-46 30 -61 52s-22.5 46.667 -22.5 74c0 36 9 64.167 27 84.5s48.333 34.833 91 43.5s101.334 13 176.001 13h31v36c0 44.667 -9 77.167 -27 97.5s-46.667 30.5 -86 30.5c-29.333 0 -57.5 -4.33301 -84.5 -13
s-54.833 -22.334 -83.5 -41.001l-24 47c25.333 18 55.333 32.333 90 43s68.334 16 101.001 16c58.667 0 102.167 -15 130.5 -45s42.5 -76 42.5 -138v-311h-58v87c-13.333 -30 -33.5 -53.333 -60.5 -70s-58.5 -25 -94.5 -25zM237.999 41.001
c28.667 0 53.832 6.83105 75.499 20.498s38.834 32.5 51.501 56.5s19 51.333 19 82v33h-30c-60 0 -106.833 -2.66699 -140.5 -8s-57.167 -14.666 -70.5 -27.999s-20 -31.666 -20 -54.999c0 -30 10.333 -54.333 31 -73s48.667 -28 84 -28zM127.997 549.999l109 201h62
l109 -201h-45l-95 155l-95 -155h-45z" />
    <glyph glyph-name="atilde" unicode="&#xe3;" horiz-adv-x="522" 
d="M230 -8c-32.667 0 -61.835 6.33398 -87.502 19.001s-46 30 -61 52s-22.5 46.667 -22.5 74c0 36 9 64.167 27 84.5s48.333 34.833 91 43.5s101.334 13 176.001 13h31v36c0 44.667 -9 77.167 -27 97.5s-46.667 30.5 -86 30.5c-29.333 0 -57.5 -4.33301 -84.5 -13
s-54.833 -22.334 -83.5 -41.001l-24 47c25.333 18 55.333 32.333 90 43s68.334 16 101.001 16c58.667 0 102.167 -15 130.5 -45s42.5 -76 42.5 -138v-311h-58v87c-13.333 -30 -33.5 -53.333 -60.5 -70s-58.5 -25 -94.5 -25zM237.999 41.001
c28.667 0 53.832 6.83105 75.499 20.498s38.834 32.5 51.501 56.5s19 51.333 19 82v33h-30c-60 0 -106.833 -2.66699 -140.5 -8s-57.167 -14.666 -70.5 -27.999s-20 -31.666 -20 -54.999c0 -30 10.333 -54.333 31 -73s48.667 -28 84 -28zM132.997 591.999l-39.0029 2.99707
c4 40 14.833 71.167 32.5 93.5s40.834 33.5 69.501 33.5c14 0 27.167 -3.66699 39.5 -11s26.5 -18.666 42.5 -33.999c14.667 -13.333 26.5 -22.666 35.5 -27.999s17.833 -8 26.5 -8c34 0 55 28 63 84l39 -3c-4 -40 -14.833 -71.167 -32.5 -93.5s-40.5 -33.5 -68.5 -33.5
c-13.333 0 -26.166 3.5 -38.499 10.5s-27.166 18.5 -44.499 34.5c-14 12.667 -25.5 21.834 -34.5 27.501s-18.167 8.5 -27.5 8.5c-34 0 -55 -28 -63 -84z" />
    <glyph glyph-name="adieresis" unicode="&#xe4;" horiz-adv-x="522" 
d="M230 -8c-32.667 0 -61.835 6.33398 -87.502 19.001s-46 30 -61 52s-22.5 46.667 -22.5 74c0 36 9 64.167 27 84.5s48.333 34.833 91 43.5s101.334 13 176.001 13h31v36c0 44.667 -9 77.167 -27 97.5s-46.667 30.5 -86 30.5c-29.333 0 -57.5 -4.33301 -84.5 -13
s-54.833 -22.334 -83.5 -41.001l-24 47c25.333 18 55.333 32.333 90 43s68.334 16 101.001 16c58.667 0 102.167 -15 130.5 -45s42.5 -76 42.5 -138v-311h-58v87c-13.333 -30 -33.5 -53.333 -60.5 -70s-58.5 -25 -94.5 -25zM237.999 41.001
c28.667 0 53.832 6.83105 75.499 20.498s38.834 32.5 51.501 56.5s19 51.333 19 82v33h-30c-60 0 -106.833 -2.66699 -140.5 -8s-57.167 -14.666 -70.5 -27.999s-20 -31.666 -20 -54.999c0 -30 10.333 -54.333 31 -73s48.667 -28 84 -28zM314.997 614.999v72h73v-72h-73z
M147.997 614.999v72h73v-72h-73z" />
    <glyph glyph-name="aring" unicode="&#xe5;" horiz-adv-x="522" 
d="M230 -8c-32.667 0 -61.835 6.33398 -87.502 19.001s-46 30 -61 52s-22.5 46.667 -22.5 74c0 36 9 64.167 27 84.5s48.333 34.833 91 43.5s101.334 13 176.001 13h31v36c0 44.667 -9 77.167 -27 97.5s-46.667 30.5 -86 30.5c-29.333 0 -57.5 -4.33301 -84.5 -13
s-54.833 -22.334 -83.5 -41.001l-24 47c25.333 18 55.333 32.333 90 43s68.334 16 101.001 16c58.667 0 102.167 -15 130.5 -45s42.5 -76 42.5 -138v-311h-58v87c-13.333 -30 -33.5 -53.333 -60.5 -70s-58.5 -25 -94.5 -25zM237.999 41.001
c28.667 0 53.832 6.83105 75.499 20.498s38.834 32.5 51.501 56.5s19 51.333 19 82v33h-30c-60 0 -106.833 -2.66699 -140.5 -8s-57.167 -14.666 -70.5 -27.999s-20 -31.666 -20 -54.999c0 -30 10.333 -54.333 31 -73s48.667 -28 84 -28zM267.997 546.999
c-32.667 0 -60 11 -82 33s-33 48.667 -33 80s11 57.833 33 79.5s49.333 32.5 82 32.5s60 -10.833 82 -32.5s33 -48.167 33 -79.5s-11 -58 -33 -80s-49.333 -33 -82 -33zM267.997 583.999c22 0 40 7.33301 54 22s21 32.667 21 54s-7 39.166 -21 53.499s-32 21.5 -54 21.5
s-40 -7.16699 -54 -21.5s-21 -32.166 -21 -53.499s7 -39.333 21 -54s32 -22 54 -22z" />
    <glyph glyph-name="ae" unicode="&#xe6;" horiz-adv-x="859" 
d="M234 -8c-34 0 -64 6.33398 -90 19.001s-46.667 30 -62 52s-23 46.667 -23 74c0 36 9.16699 64.167 27.5 84.5s49 34.833 92 43.5s101.167 13 174.5 13h35v34c0 45.333 -9.5 78.333 -28.5 99s-47.833 31 -86.5 31c-30.667 0 -59.5 -4.16699 -86.5 -12.5
s-54.833 -21.833 -83.5 -40.5l-24 46c25.333 18 55.333 32.333 90 43s69 16 103 16c84.667 0 138.334 -33.667 161.001 -101c18.667 32.667 43.667 57.667 75 75s66.666 26 105.999 26c62 0 110.833 -21 146.5 -63s53.5 -99.667 53.5 -173v-25h-366
c2 -60.667 17.833 -107.5 47.5 -140.5s72.167 -49.5 127.5 -49.5c57.333 0 110.666 20.333 159.999 61l23 -46c-21.333 -20.667 -48.5 -36.834 -81.5 -48.501s-65.833 -17.5 -98.5 -17.5c-51.333 0 -95 10.667 -131 32s-62.667 53.333 -80 96
c-13.333 -40 -35.666 -71.333 -66.999 -94s-69.333 -34 -114 -34zM612 445.001c-46.667 0 -84.332 -15 -112.999 -45s-45.334 -70.667 -50.001 -122h311c-2 51.333 -15.5 92 -40.5 122s-60.833 45 -107.5 45zM240.002 41.001c44 0 79.666 15.5 106.999 46.5
s41 70.5 41 118.5v27h-34c-60 0 -106.833 -2.66699 -140.5 -8s-57.167 -14.5 -70.5 -27.5s-20 -31.5 -20 -55.5c0 -30 10.333 -54.333 31 -73s49.334 -28 86.001 -28z" />
    <glyph glyph-name="ccedilla" unicode="&#xe7;" horiz-adv-x="459" 
d="M278 -8c-47.333 0 -87.999 10.5 -121.999 31.5s-60.167 50.667 -78.5 89s-27.5 82.833 -27.5 133.5c0 76.667 20.167 137.167 60.5 181.5s96.166 66.5 167.499 66.5c29.333 0 58.333 -5.66699 87 -17s52.667 -27 72 -47l-24 -46c-20.667 20 -42.667 34.5 -66 43.5
s-45.666 13.5 -66.999 13.5c-54 0 -95.5 -17 -124.5 -51s-43.5 -82.333 -43.5 -145s14.5 -111.834 43.5 -147.501s70.5 -53.5 124.5 -53.5c21.333 0 43.666 4.5 66.999 13.5s45.333 23.5 66 43.5l24 -46c-19.333 -19.333 -43.5 -34.666 -72.5 -45.999s-57.833 -17 -86.5 -17
zM279.001 -191c-34.667 0 -62.334 6.33301 -83.001 19l11 39c12 -6 23.333 -10.333 34 -13s23.667 -4 39 -4c18 0 32.5 3.5 43.5 10.5s16.5 16.833 16.5 29.5c0 20 -12.667 30 -38 30c-7.33301 0 -14.833 -0.5 -22.5 -1.5s-16.5 -3.5 -26.5 -7.5l-16 14l14 95h45l-11 -66
c8 1.33301 15.333 2 22 2c22.667 0 41.834 -5.83301 57.501 -17.5s23.5 -28.167 23.5 -49.5c0 -24 -10 -43.333 -30 -58s-46.333 -22 -79 -22z" />
    <glyph glyph-name="egrave" unicode="&#xe8;" horiz-adv-x="527" 
d="M291 -8c-74.667 0 -133.499 22.1689 -176.499 66.502s-64.5 105.166 -64.5 182.499c0 50 9.66699 94 29 132s46.166 67.667 80.499 89s73.833 32 118.5 32c64.667 0 115 -21 151 -63s54 -99.667 54 -173v-28h-373c2 -60 18.5 -106.167 49.5 -138.5
s74.167 -48.5 129.5 -48.5c30 0 58.167 4.66699 84.5 14s52.166 25 77.499 47l24 -46c-21.333 -20.667 -48.666 -36.834 -81.999 -48.501s-67.333 -17.5 -102 -17.5zM279.001 445.002c-50.667 0 -90.1689 -15.833 -118.502 -47.5s-44.833 -72.5 -49.5 -122.5h317
c-1.33301 53.333 -14.666 95 -39.999 125s-61.666 45 -108.999 45zM255.999 550.002l-127 201h70l103 -201h-46z" />
    <glyph glyph-name="eacute" unicode="&#xe9;" horiz-adv-x="527" 
d="M291 -8c-74.667 0 -133.499 22.1689 -176.499 66.502s-64.5 105.166 -64.5 182.499c0 50 9.66699 94 29 132s46.166 67.667 80.499 89s73.833 32 118.5 32c64.667 0 115 -21 151 -63s54 -99.667 54 -173v-28h-373c2 -60 18.5 -106.167 49.5 -138.5
s74.167 -48.5 129.5 -48.5c30 0 58.167 4.66699 84.5 14s52.166 25 77.499 47l24 -46c-21.333 -20.667 -48.666 -36.834 -81.999 -48.501s-67.333 -17.5 -102 -17.5zM279.001 445.002c-50.667 0 -90.1689 -15.833 -118.502 -47.5s-44.833 -72.5 -49.5 -122.5h317
c-1.33301 53.333 -14.666 95 -39.999 125s-61.666 45 -108.999 45zM255.999 550.002l103 201h70l-127 -201h-46z" />
    <glyph glyph-name="ecircumflex" unicode="&#xea;" horiz-adv-x="527" 
d="M291 -8c-74.667 0 -133.499 22.1689 -176.499 66.502s-64.5 105.166 -64.5 182.499c0 50 9.66699 94 29 132s46.166 67.667 80.499 89s73.833 32 118.5 32c64.667 0 115 -21 151 -63s54 -99.667 54 -173v-28h-373c2 -60 18.5 -106.167 49.5 -138.5
s74.167 -48.5 129.5 -48.5c30 0 58.167 4.66699 84.5 14s52.166 25 77.499 47l24 -46c-21.333 -20.667 -48.666 -36.834 -81.999 -48.501s-67.333 -17.5 -102 -17.5zM279.001 445.002c-50.667 0 -90.1689 -15.833 -118.502 -47.5s-44.833 -72.5 -49.5 -122.5h317
c-1.33301 53.333 -14.666 95 -39.999 125s-61.666 45 -108.999 45zM138.999 550.002l109 201h62l109 -201h-45l-95 155l-95 -155h-45z" />
    <glyph glyph-name="edieresis" unicode="&#xeb;" horiz-adv-x="527" 
d="M291 -8c-74.667 0 -133.499 22.1689 -176.499 66.502s-64.5 105.166 -64.5 182.499c0 50 9.66699 94 29 132s46.166 67.667 80.499 89s73.833 32 118.5 32c64.667 0 115 -21 151 -63s54 -99.667 54 -173v-28h-373c2 -60 18.5 -106.167 49.5 -138.5
s74.167 -48.5 129.5 -48.5c30 0 58.167 4.66699 84.5 14s52.166 25 77.499 47l24 -46c-21.333 -20.667 -48.666 -36.834 -81.999 -48.501s-67.333 -17.5 -102 -17.5zM279.001 445.002c-50.667 0 -90.1689 -15.833 -118.502 -47.5s-44.833 -72.5 -49.5 -122.5h317
c-1.33301 53.333 -14.666 95 -39.999 125s-61.666 45 -108.999 45zM325.999 615.002v72h73v-72h-73zM158.999 615.002v72h73v-72h-73z" />
    <glyph glyph-name="igrave" unicode="&#xec;" horiz-adv-x="222" 
d="M80 0v485h61v-485h-61zM88 550l-127 201h70l103 -201h-46z" />
    <glyph glyph-name="iacute" unicode="&#xed;" horiz-adv-x="222" 
d="M80 0v485h61v-485h-61zM88 550l103 201h70l-127 -201h-46z" />
    <glyph glyph-name="icircumflex" unicode="&#xee;" horiz-adv-x="222" 
d="M80 0v485h61v-485h-61zM-29 550l109 201h62l109 -201h-45l-95 155l-95 -155h-45z" />
    <glyph glyph-name="idieresis" unicode="&#xef;" horiz-adv-x="222" 
d="M80 0v485h61v-485h-61zM158 615v72h73v-72h-73zM-9 615v72h73v-72h-73z" />
    <glyph glyph-name="eth" unicode="&#xf0;" horiz-adv-x="550" 
d="M272 -8c-44.667 0 -83.6689 9.50195 -117.002 28.502s-59.166 45.833 -77.499 80.5s-27.5 75.334 -27.5 122.001c0 46 9.16699 86.333 27.5 121s44.166 61.5 77.499 80.5s72.333 28.5 117 28.5c37.333 0 69.833 -7.33301 97.5 -22s50.167 -37.334 67.5 -68.001
c-15.333 103.333 -63.666 182.666 -144.999 237.999l-157 -67l-18 42l126 54c-13.333 7.33301 -28 14.166 -44 20.499s-33 11.833 -51 16.5l14 44c26.667 -7.33301 51.667 -15.833 75 -25.5s44.333 -19.834 63 -30.501l132 56l18 -42l-105 -45
c50.667 -38.667 89.334 -86.5 116.001 -143.5s40 -122.833 40 -197.5c0 -95.333 -19.5 -167.666 -58.5 -216.999s-95.833 -74 -170.5 -74zM271.998 44.002c50.667 0 90.501 16 119.501 48s43.5 75.667 43.5 131s-14.333 98.833 -43 130.5s-68.334 47.5 -119.001 47.5
c-50 0 -89.333 -15.833 -118 -47.5s-43 -75.167 -43 -130.5c0 -56.667 14.167 -100.667 42.5 -132s67.5 -47 117.5 -47z" />
    <glyph glyph-name="ntilde" unicode="&#xf1;" horiz-adv-x="560" 
d="M80 0v485h60v-87c16 32 39 56 69 72s63.333 24 100 24c115.333 0 173 -62.667 173 -188v-306h-61v301c0 48 -9.66699 83.333 -29 106s-50 34 -92 34c-48 0 -86.5 -14.833 -115.5 -44.5s-43.5 -69.5 -43.5 -119.5v-277h-61zM146 592l-39.0029 2.99707
c4 40 14.833 71.167 32.5 93.5s40.834 33.5 69.501 33.5c14 0 27.167 -3.66699 39.5 -11s26.5 -18.666 42.5 -33.999c14.667 -13.333 26.5 -22.666 35.5 -27.999s17.833 -8 26.5 -8c34 0 55 28 63 84l39 -3c-4 -40 -14.833 -71.167 -32.5 -93.5s-40.5 -33.5 -68.5 -33.5
c-13.333 0 -26.166 3.5 -38.499 10.5s-27.166 18.5 -44.499 34.5c-14 12.667 -25.5 21.834 -34.5 27.501s-18.167 8.5 -27.5 8.5c-34 0 -55 -28 -63 -84z" />
    <glyph glyph-name="ograve" unicode="&#xf2;" horiz-adv-x="547" 
d="M273 -8c-45.333 0 -84.666 10.167 -117.999 30.5s-59.166 49.333 -77.499 87s-27.5 82.167 -27.5 133.5c0 50.667 9.16699 94.834 27.5 132.501s44.166 66.834 77.499 87.501s72.666 31 117.999 31c46 0 85.667 -10.333 119 -31s59.166 -49.834 77.499 -87.501
s27.5 -81.834 27.5 -132.501c0 -51.333 -9.16699 -95.833 -27.5 -133.5s-44.166 -66.667 -77.499 -87s-73 -30.5 -119 -30.5zM273 43c49.333 0 88.666 17.5 117.999 52.5s44 84.167 44 147.5s-14.667 112.333 -44 147s-68.666 52 -117.999 52s-88.5 -17.333 -117.5 -52
s-43.5 -83.667 -43.5 -147s14.5 -112.5 43.5 -147.5s68.167 -52.5 117.5 -52.5zM250 550l-127 201h70l103 -201h-46z" />
    <glyph glyph-name="oacute" unicode="&#xf3;" horiz-adv-x="547" 
d="M273 -8c-45.333 0 -84.666 10.167 -117.999 30.5s-59.166 49.333 -77.499 87s-27.5 82.167 -27.5 133.5c0 50.667 9.16699 94.834 27.5 132.501s44.166 66.834 77.499 87.501s72.666 31 117.999 31c46 0 85.667 -10.333 119 -31s59.166 -49.834 77.499 -87.501
s27.5 -81.834 27.5 -132.501c0 -51.333 -9.16699 -95.833 -27.5 -133.5s-44.166 -66.667 -77.499 -87s-73 -30.5 -119 -30.5zM273 43c49.333 0 88.666 17.5 117.999 52.5s44 84.167 44 147.5s-14.667 112.333 -44 147s-68.666 52 -117.999 52s-88.5 -17.333 -117.5 -52
s-43.5 -83.667 -43.5 -147s14.5 -112.5 43.5 -147.5s68.167 -52.5 117.5 -52.5zM250 550l103 201h70l-127 -201h-46z" />
    <glyph glyph-name="ocircumflex" unicode="&#xf4;" horiz-adv-x="547" 
d="M273 -8c-45.333 0 -84.666 10.167 -117.999 30.5s-59.166 49.333 -77.499 87s-27.5 82.167 -27.5 133.5c0 50.667 9.16699 94.834 27.5 132.501s44.166 66.834 77.499 87.501s72.666 31 117.999 31c46 0 85.667 -10.333 119 -31s59.166 -49.834 77.499 -87.501
s27.5 -81.834 27.5 -132.501c0 -51.333 -9.16699 -95.833 -27.5 -133.5s-44.166 -66.667 -77.499 -87s-73 -30.5 -119 -30.5zM273 43c49.333 0 88.666 17.5 117.999 52.5s44 84.167 44 147.5s-14.667 112.333 -44 147s-68.666 52 -117.999 52s-88.5 -17.333 -117.5 -52
s-43.5 -83.667 -43.5 -147s14.5 -112.5 43.5 -147.5s68.167 -52.5 117.5 -52.5zM133 550l109 201h62l109 -201h-45l-95 155l-95 -155h-45z" />
    <glyph glyph-name="otilde" unicode="&#xf5;" horiz-adv-x="547" 
d="M273 -8c-45.333 0 -84.666 10.167 -117.999 30.5s-59.166 49.333 -77.499 87s-27.5 82.167 -27.5 133.5c0 50.667 9.16699 94.834 27.5 132.501s44.166 66.834 77.499 87.501s72.666 31 117.999 31c46 0 85.667 -10.333 119 -31s59.166 -49.834 77.499 -87.501
s27.5 -81.834 27.5 -132.501c0 -51.333 -9.16699 -95.833 -27.5 -133.5s-44.166 -66.667 -77.499 -87s-73 -30.5 -119 -30.5zM273 43c49.333 0 88.666 17.5 117.999 52.5s44 84.167 44 147.5s-14.667 112.333 -44 147s-68.666 52 -117.999 52s-88.5 -17.333 -117.5 -52
s-43.5 -83.667 -43.5 -147s14.5 -112.5 43.5 -147.5s68.167 -52.5 117.5 -52.5zM138 592l-39.0029 2.99707c4 40 14.833 71.167 32.5 93.5s40.834 33.5 69.501 33.5c14 0 27.167 -3.66699 39.5 -11s26.5 -18.666 42.5 -33.999c14.667 -13.333 26.5 -22.666 35.5 -27.999
s17.833 -8 26.5 -8c34 0 55 28 63 84l39 -3c-4 -40 -14.833 -71.167 -32.5 -93.5s-40.5 -33.5 -68.5 -33.5c-13.333 0 -26.166 3.5 -38.499 10.5s-27.166 18.5 -44.499 34.5c-14 12.667 -25.5 21.834 -34.5 27.501s-18.167 8.5 -27.5 8.5c-34 0 -55 -28 -63 -84z" />
    <glyph glyph-name="odieresis" unicode="&#xf6;" horiz-adv-x="547" 
d="M273 -8c-45.333 0 -84.666 10.167 -117.999 30.5s-59.166 49.333 -77.499 87s-27.5 82.167 -27.5 133.5c0 50.667 9.16699 94.834 27.5 132.501s44.166 66.834 77.499 87.501s72.666 31 117.999 31c46 0 85.667 -10.333 119 -31s59.166 -49.834 77.499 -87.501
s27.5 -81.834 27.5 -132.501c0 -51.333 -9.16699 -95.833 -27.5 -133.5s-44.166 -66.667 -77.499 -87s-73 -30.5 -119 -30.5zM273 43c49.333 0 88.666 17.5 117.999 52.5s44 84.167 44 147.5s-14.667 112.333 -44 147s-68.666 52 -117.999 52s-88.5 -17.333 -117.5 -52
s-43.5 -83.667 -43.5 -147s14.5 -112.5 43.5 -147.5s68.167 -52.5 117.5 -52.5zM320 615v72h73v-72h-73zM153 615v72h73v-72h-73z" />
    <glyph glyph-name="divide" unicode="&#xf7;" horiz-adv-x="600" 
d="M255 447v78h78v-78h-78zM56 262v50h488v-50h-488zM255 48v78h78v-78h-78z" />
    <glyph glyph-name="oslash" unicode="&#xf8;" horiz-adv-x="547" 
d="M134 -44l-38.998 23.999l35 61c-26 21.333 -45.833 49.166 -59.5 83.499s-20.5 73.833 -20.5 118.5c0 50.667 9.16699 94.834 27.5 132.501s44.166 66.834 77.499 87.501s72.666 31 117.999 31c39.333 0 74.666 -8 105.999 -24l34 59l39 -24l-35 -60
c25.333 -22 45 -50.167 59 -84.5s21 -73.5 21 -117.5c0 -51.333 -9.16699 -95.833 -27.5 -133.5s-44.166 -66.667 -77.499 -87s-73 -30.5 -119 -30.5c-39.333 0 -74.333 7.66699 -105 23zM112.002 242.999c0 -66 15.667 -116.667 47 -152l193 332
c-22.667 12.667 -49 19 -79 19c-49.333 0 -88.5 -17.333 -117.5 -52s-43.5 -83.667 -43.5 -147zM273.002 42.999c49.333 0 88.667 17.501 118 52.501s44 84.167 44 147.5c0 65.333 -15.667 115.666 -47 150.999l-193 -332c22.667 -12.667 48.667 -19 78 -19z" />
    <glyph glyph-name="ugrave" unicode="&#xf9;" horiz-adv-x="553" 
d="M251 -8c-115.333 0 -173 62.667 -173 188v305h61v-302c0 -47.333 9.66699 -82.333 29 -105s49.666 -34 90.999 -34c44.667 0 81.167 15 109.5 45s42.5 70 42.5 120v276h61v-485h-59v86c-16 -30.667 -38.167 -54 -66.5 -70s-60.166 -24 -95.499 -24zM254 551l-127 201h70
l103 -201h-46z" />
    <glyph glyph-name="uacute" unicode="&#xfa;" horiz-adv-x="553" 
d="M251 -8c-115.333 0 -173 62.667 -173 188v305h61v-302c0 -47.333 9.66699 -82.333 29 -105s49.666 -34 90.999 -34c44.667 0 81.167 15 109.5 45s42.5 70 42.5 120v276h61v-485h-59v86c-16 -30.667 -38.167 -54 -66.5 -70s-60.166 -24 -95.499 -24zM254 551l103 201h70
l-127 -201h-46z" />
    <glyph glyph-name="ucircumflex" unicode="&#xfb;" horiz-adv-x="553" 
d="M251 -8c-115.333 0 -173 62.667 -173 188v305h61v-302c0 -47.333 9.66699 -82.333 29 -105s49.666 -34 90.999 -34c44.667 0 81.167 15 109.5 45s42.5 70 42.5 120v276h61v-485h-59v86c-16 -30.667 -38.167 -54 -66.5 -70s-60.166 -24 -95.499 -24zM137 551l109 201h62
l109 -201h-45l-95 155l-95 -155h-45z" />
    <glyph glyph-name="udieresis" unicode="&#xfc;" horiz-adv-x="553" 
d="M251 -8c-115.333 0 -173 62.667 -173 188v305h61v-302c0 -47.333 9.66699 -82.333 29 -105s49.666 -34 90.999 -34c44.667 0 81.167 15 109.5 45s42.5 70 42.5 120v276h61v-485h-59v86c-16 -30.667 -38.167 -54 -66.5 -70s-60.166 -24 -95.499 -24zM324 616v72h73v-72
h-73zM157 616v72h73v-72h-73z" />
    <glyph glyph-name="yacute" unicode="&#xfd;" horiz-adv-x="509" 
d="M142 -180l80 182l-206 483h68l171 -418l173 418h66l-286 -665h-66zM232 550l103 201h70l-127 -201h-46z" />
    <glyph glyph-name="thorn" unicode="&#xfe;" horiz-adv-x="575" 
d="M80 -180v884.998h61v-310c14.667 30.667 36.834 54.834 66.501 72.501s64.167 26.5 103.5 26.5c43.333 0 81.166 -10.333 113.499 -31s57.333 -49.667 75 -87s26.5 -81.666 26.5 -132.999s-8.83301 -95.833 -26.5 -133.5s-42.667 -66.667 -75 -87
s-70.166 -30.5 -113.499 -30.5c-39.333 0 -73.833 8.66699 -103.5 26s-51.834 41.333 -66.501 72v-270h-61zM302 42.998c49.333 0 88.666 17.5 117.999 52.5s44 84.167 44 147.5s-14.667 112.333 -44 147s-68.666 52 -117.999 52s-88.666 -17.333 -117.999 -52
s-44 -83.667 -44 -147s14.667 -112.5 44 -147.5s68.666 -52.5 117.999 -52.5z" />
    <glyph glyph-name="ydieresis" unicode="&#xff;" horiz-adv-x="509" 
d="M142 -180l80 182l-206 483h68l171 -418l173 418h66l-286 -665h-66zM302 615v72h73v-72h-73zM135 615v72h73v-72h-73z" />
    <glyph glyph-name="Amacron" unicode="&#x100;" horiz-adv-x="722" 
d="M27 0l307 705h55l306 -705h-64l-81 188h-378l-80 -188h-65zM360 629l-165 -388h332l-165 388h-2zM203 818v47h318v-47h-318z" />
    <glyph glyph-name="amacron" unicode="&#x101;" horiz-adv-x="522" 
d="M230 -8c-32.667 0 -61.835 6.33398 -87.502 19.001s-46 30 -61 52s-22.5 46.667 -22.5 74c0 36 9 64.167 27 84.5s48.333 34.833 91 43.5s101.334 13 176.001 13h31v36c0 44.667 -9 77.167 -27 97.5s-46.667 30.5 -86 30.5c-29.333 0 -57.5 -4.33301 -84.5 -13
s-54.833 -22.334 -83.5 -41.001l-24 47c25.333 18 55.333 32.333 90 43s68.334 16 101.001 16c58.667 0 102.167 -15 130.5 -45s42.5 -76 42.5 -138v-311h-58v87c-13.333 -30 -33.5 -53.333 -60.5 -70s-58.5 -25 -94.5 -25zM237.999 41.001
c28.667 0 53.832 6.83105 75.499 20.498s38.834 32.5 51.501 56.5s19 51.333 19 82v33h-30c-60 0 -106.833 -2.66699 -140.5 -8s-57.167 -14.666 -70.5 -27.999s-20 -31.666 -20 -54.999c0 -30 10.333 -54.333 31 -73s48.667 -28 84 -28zM123.997 628.999v46h288v-46h-288z
" />
    <glyph glyph-name="Abreve" unicode="&#x102;" horiz-adv-x="722" 
d="M27 0l307 705h55l306 -705h-64l-81 188h-378l-80 -188h-65zM360 629l-165 -388h332l-165 388h-2zM362 760c-44.667 0 -81.834 15 -111.501 45s-46.834 71 -51.501 123l42 5c2.66699 -40.667 14.834 -72.167 36.501 -94.5s49.834 -33.5 84.501 -33.5
s62.834 11.167 84.501 33.5s33.834 53.833 36.501 94.5l42 -5c-4.66699 -52 -21.834 -93 -51.501 -123s-66.834 -45 -111.501 -45z" />
    <glyph glyph-name="abreve" unicode="&#x103;" horiz-adv-x="522" 
d="M230 -8c-32.667 0 -61.835 6.33398 -87.502 19.001s-46 30 -61 52s-22.5 46.667 -22.5 74c0 36 9 64.167 27 84.5s48.333 34.833 91 43.5s101.334 13 176.001 13h31v36c0 44.667 -9 77.167 -27 97.5s-46.667 30.5 -86 30.5c-29.333 0 -57.5 -4.33301 -84.5 -13
s-54.833 -22.334 -83.5 -41.001l-24 47c25.333 18 55.333 32.333 90 43s68.334 16 101.001 16c58.667 0 102.167 -15 130.5 -45s42.5 -76 42.5 -138v-311h-58v87c-13.333 -30 -33.5 -53.333 -60.5 -70s-58.5 -25 -94.5 -25zM237.999 41.001
c28.667 0 53.832 6.83105 75.499 20.498s38.834 32.5 51.501 56.5s19 51.333 19 82v33h-30c-60 0 -106.833 -2.66699 -140.5 -8s-57.167 -14.666 -70.5 -27.999s-20 -31.666 -20 -54.999c0 -30 10.333 -54.333 31 -73s48.667 -28 84 -28zM267.997 547.999
c-43.333 0 -78.1699 16.667 -104.503 50s-41.166 79.333 -44.499 138l42 5c2 -47.333 12.333 -83.833 31 -109.5s44 -38.5 76 -38.5s57.333 12.833 76 38.5s29 62.167 31 109.5l42 -5c-3.33301 -58.667 -18.166 -104.667 -44.499 -138s-61.166 -50 -104.499 -50z" />
    <glyph glyph-name="Aogonek" unicode="&#x104;" horiz-adv-x="722" 
d="M27 0l307 705h55l306 -705h-64l-81 188h-378l-80 -188h-65zM360 629l-165 -388h332l-165 388h-2zM669 -191c-29.333 0 -53.1689 8.50195 -71.502 25.502s-27.5 40.167 -27.5 69.5c0 25.333 8.16699 49.666 24.5 72.999s38.833 42.333 67.5 57l25 -34
c-15.333 -6.66699 -30.666 -17.834 -45.999 -33.501s-23 -34.5 -23 -56.5c0 -20 5.66699 -34.667 17 -44s25.333 -14 42 -14s34.334 4 53.001 12l14 -38c-18.667 -11.333 -43.667 -17 -75 -17z" />
    <glyph glyph-name="aogonek" unicode="&#x105;" horiz-adv-x="522" 
d="M230 -8c-32.667 0 -61.835 6.33398 -87.502 19.001s-46 30 -61 52s-22.5 46.667 -22.5 74c0 36 9 64.167 27 84.5s48.333 34.833 91 43.5s101.334 13 176.001 13h31v36c0 44.667 -9 77.167 -27 97.5s-46.667 30.5 -86 30.5c-29.333 0 -57.5 -4.33301 -84.5 -13
s-54.833 -22.334 -83.5 -41.001l-24 47c25.333 18 55.333 32.333 90 43s68.334 16 101.001 16c58.667 0 102.167 -15 130.5 -45s42.5 -76 42.5 -138v-311h-58v87c-13.333 -30 -33.5 -53.333 -60.5 -70s-58.5 -25 -94.5 -25zM237.999 41.001
c28.667 0 53.832 6.83105 75.499 20.498s38.834 32.5 51.501 56.5s19 51.333 19 82v33h-30c-60 0 -106.833 -2.66699 -140.5 -8s-57.167 -14.666 -70.5 -27.999s-20 -31.666 -20 -54.999c0 -30 10.333 -54.333 31 -73s48.667 -28 84 -28zM416.997 -191.001
c-29.333 0 -53.1689 8.50195 -71.502 25.502s-27.5 40.167 -27.5 69.5c0 25.333 8.16699 49.666 24.5 72.999s38.833 42.333 67.5 57l25 -34c-15.333 -6.66699 -30.666 -17.834 -45.999 -33.501s-23 -34.5 -23 -56.5c0 -20 5.66699 -34.667 17 -44s25.333 -14 42 -14
s34.334 4 53.001 12l14 -38c-18.667 -11.333 -43.667 -17 -75 -17z" />
    <glyph glyph-name="Cacute" unicode="&#x106;" horiz-adv-x="670" 
d="M386 -8c-67.333 0 -125 14.5 -173 43.5s-84.833 70.5 -110.5 124.5s-38.5 118.333 -38.5 193c0 74 12.833 138 38.5 192s62.5 95.5 110.5 124.5s105.667 43.5 173 43.5c48.667 0 93.5 -7.83301 134.5 -23.5s75.833 -38.5 104.5 -68.5l-27 -51
c-31.333 30.667 -63.833 52.667 -97.5 66s-71.5 20 -113.5 20c-82.667 0 -146.167 -26.5 -190.5 -79.5s-66.5 -127.5 -66.5 -223.5c0 -96.667 22.167 -171.5 66.5 -224.5s107.833 -79.5 190.5 -79.5c42 0 79.833 6.66699 113.5 20s66.167 35.333 97.5 66l27 -51
c-28.667 -30 -63.5 -52.833 -104.5 -68.5s-85.833 -23.5 -134.5 -23.5zM359 765l118 171h73l-141 -171h-50z" />
    <glyph glyph-name="cacute" unicode="&#x107;" horiz-adv-x="459" 
d="M278 -8c-47.333 0 -87.999 10.5 -121.999 31.5s-60.167 50.667 -78.5 89s-27.5 82.833 -27.5 133.5c0 76.667 20.167 137.167 60.5 181.5s96.166 66.5 167.499 66.5c29.333 0 58.333 -5.66699 87 -17s52.667 -27 72 -47l-24 -46c-20.667 20 -42.667 34.5 -66 43.5
s-45.666 13.5 -66.999 13.5c-54 0 -95.5 -17 -124.5 -51s-43.5 -82.333 -43.5 -145s14.5 -111.834 43.5 -147.501s70.5 -53.5 124.5 -53.5c21.333 0 43.666 4.5 66.999 13.5s45.333 23.5 66 43.5l24 -46c-19.333 -19.333 -43.5 -34.666 -72.5 -45.999s-57.833 -17 -86.5 -17
zM252.001 550l103 201h70l-127 -201h-46z" />
    <glyph glyph-name="Ccircumflex" unicode="&#x108;" horiz-adv-x="670" 
d="M386 -8c-67.333 0 -125 14.5 -173 43.5s-84.833 70.5 -110.5 124.5s-38.5 118.333 -38.5 193c0 74 12.833 138 38.5 192s62.5 95.5 110.5 124.5s105.667 43.5 173 43.5c48.667 0 93.5 -7.83301 134.5 -23.5s75.833 -38.5 104.5 -68.5l-27 -51
c-31.333 30.667 -63.833 52.667 -97.5 66s-71.5 20 -113.5 20c-82.667 0 -146.167 -26.5 -190.5 -79.5s-66.5 -127.5 -66.5 -223.5c0 -96.667 22.167 -171.5 66.5 -224.5s107.833 -79.5 190.5 -79.5c42 0 79.833 6.66699 113.5 20s66.167 35.333 97.5 66l27 -51
c-28.667 -30 -63.5 -52.833 -104.5 -68.5s-85.833 -23.5 -134.5 -23.5zM231 765l122 171h62l122 -171h-49l-104 126l-104 -126h-49z" />
    <glyph glyph-name="ccircumflex" unicode="&#x109;" horiz-adv-x="459" 
d="M278 -8c-47.333 0 -87.999 10.5 -121.999 31.5s-60.167 50.667 -78.5 89s-27.5 82.833 -27.5 133.5c0 76.667 20.167 137.167 60.5 181.5s96.166 66.5 167.499 66.5c29.333 0 58.333 -5.66699 87 -17s52.667 -27 72 -47l-24 -46c-20.667 20 -42.667 34.5 -66 43.5
s-45.666 13.5 -66.999 13.5c-54 0 -95.5 -17 -124.5 -51s-43.5 -82.333 -43.5 -145s14.5 -111.834 43.5 -147.501s70.5 -53.5 124.5 -53.5c21.333 0 43.666 4.5 66.999 13.5s45.333 23.5 66 43.5l24 -46c-19.333 -19.333 -43.5 -34.666 -72.5 -45.999s-57.833 -17 -86.5 -17
zM135.001 550l109 201h62l109 -201h-45l-95 155l-95 -155h-45z" />
    <glyph glyph-name="Cdotaccent" unicode="&#x10a;" horiz-adv-x="670" 
d="M386 -8c-67.333 0 -125 14.5 -173 43.5s-84.833 70.5 -110.5 124.5s-38.5 118.333 -38.5 193c0 74 12.833 138 38.5 192s62.5 95.5 110.5 124.5s105.667 43.5 173 43.5c48.667 0 93.5 -7.83301 134.5 -23.5s75.833 -38.5 104.5 -68.5l-27 -51
c-31.333 30.667 -63.833 52.667 -97.5 66s-71.5 20 -113.5 20c-82.667 0 -146.167 -26.5 -190.5 -79.5s-66.5 -127.5 -66.5 -223.5c0 -96.667 22.167 -171.5 66.5 -224.5s107.833 -79.5 190.5 -79.5c42 0 79.833 6.66699 113.5 20s66.167 35.333 97.5 66l27 -51
c-28.667 -30 -63.5 -52.833 -104.5 -68.5s-85.833 -23.5 -134.5 -23.5zM346 813v75h76v-75h-76z" />
    <glyph glyph-name="cdotaccent" unicode="&#x10b;" horiz-adv-x="459" 
d="M278 -8c-47.333 0 -87.999 10.5 -121.999 31.5s-60.167 50.667 -78.5 89s-27.5 82.833 -27.5 133.5c0 76.667 20.167 137.167 60.5 181.5s96.166 66.5 167.499 66.5c29.333 0 58.333 -5.66699 87 -17s52.667 -27 72 -47l-24 -46c-20.667 20 -42.667 34.5 -66 43.5
s-45.666 13.5 -66.999 13.5c-54 0 -95.5 -17 -124.5 -51s-43.5 -82.333 -43.5 -145s14.5 -111.834 43.5 -147.501s70.5 -53.5 124.5 -53.5c21.333 0 43.666 4.5 66.999 13.5s45.333 23.5 66 43.5l24 -46c-19.333 -19.333 -43.5 -34.666 -72.5 -45.999s-57.833 -17 -86.5 -17
zM236.001 614v75h78v-75h-78z" />
    <glyph glyph-name="Ccaron" unicode="&#x10c;" horiz-adv-x="670" 
d="M386 -8c-67.333 0 -125 14.5 -173 43.5s-84.833 70.5 -110.5 124.5s-38.5 118.333 -38.5 193c0 74 12.833 138 38.5 192s62.5 95.5 110.5 124.5s105.667 43.5 173 43.5c48.667 0 93.5 -7.83301 134.5 -23.5s75.833 -38.5 104.5 -68.5l-27 -51
c-31.333 30.667 -63.833 52.667 -97.5 66s-71.5 20 -113.5 20c-82.667 0 -146.167 -26.5 -190.5 -79.5s-66.5 -127.5 -66.5 -223.5c0 -96.667 22.167 -171.5 66.5 -224.5s107.833 -79.5 190.5 -79.5c42 0 79.833 6.66699 113.5 20s66.167 35.333 97.5 66l27 -51
c-28.667 -30 -63.5 -52.833 -104.5 -68.5s-85.833 -23.5 -134.5 -23.5zM353 765l-122 171h49l104 -126l104 126h49l-122 -171h-62z" />
    <glyph glyph-name="ccaron" unicode="&#x10d;" horiz-adv-x="459" 
d="M278 -8c-47.333 0 -87.999 10.5 -121.999 31.5s-60.167 50.667 -78.5 89s-27.5 82.833 -27.5 133.5c0 76.667 20.167 137.167 60.5 181.5s96.166 66.5 167.499 66.5c29.333 0 58.333 -5.66699 87 -17s52.667 -27 72 -47l-24 -46c-20.667 20 -42.667 34.5 -66 43.5
s-45.666 13.5 -66.999 13.5c-54 0 -95.5 -17 -124.5 -51s-43.5 -82.333 -43.5 -145s14.5 -111.834 43.5 -147.501s70.5 -53.5 124.5 -53.5c21.333 0 43.666 4.5 66.999 13.5s45.333 23.5 66 43.5l24 -46c-19.333 -19.333 -43.5 -34.666 -72.5 -45.999s-57.833 -17 -86.5 -17
zM244.001 550l-109 201h45l95 -155l95 155h45l-109 -201h-62z" />
    <glyph glyph-name="Dcaron" unicode="&#x10e;" horiz-adv-x="733" 
d="M92 0v705h227c112 0 198.5 -30 259.5 -90s91.5 -147.333 91.5 -262s-30.5 -202.167 -91.5 -262.5s-147.5 -90.5 -259.5 -90.5h-227zM153 54h161c193.333 0 290 99.667 290 299c0 198.667 -96.667 298 -290 298h-161v-597zM335 765l-122 171h49l104 -126l104 126h49
l-122 -171h-62z" />
    <glyph glyph-name="dcaron" unicode="&#x10f;" horiz-adv-x="575" 
d="M265 -8c-44 0 -82.001 10.168 -114.001 30.501s-56.833 49.333 -74.5 87s-26.5 82.167 -26.5 133.5c0 76.667 19.333 137.667 58 183s91 68 157 68c38.667 0 72.834 -8.83301 102.501 -26.5s51.834 -41.834 66.501 -72.501v310h61v-705h-60v92
c-14.667 -31.333 -36.834 -55.833 -66.501 -73.5s-64.167 -26.5 -103.5 -26.5zM272.999 43.001c49.333 0 88.666 17.5 117.999 52.5s44 84.167 44 147.5s-14.667 112.333 -44 147s-68.666 52 -117.999 52s-88.5 -17.333 -117.5 -52s-43.5 -83.667 -43.5 -147
s14.5 -112.5 43.5 -147.5s68.167 -52.5 117.5 -52.5zM542.999 516.001v189h57l-23 -189h-34z" />
    <glyph glyph-name="Dcroat" unicode="&#x110;" horiz-adv-x="733" 
d="M92 0v705h227c112 0 198.5 -30 259.5 -90s91.5 -147.333 91.5 -262s-30.5 -202.167 -91.5 -262.5s-147.5 -90.5 -259.5 -90.5h-227zM153 54h161c193.333 0 290 99.667 290 299c0 198.667 -96.667 298 -290 298h-161v-597zM2 333v50h350v-50h-350z" />
    <glyph glyph-name="dcroat" unicode="&#x111;" horiz-adv-x="575" 
d="M265 -8c-43.333 0 -81.166 10.1689 -113.499 30.502s-57.333 49.333 -75 87s-26.5 82.167 -26.5 133.5c0 76.667 19.333 137.667 58 183s91 68 157 68c39.333 0 73.666 -8.83301 102.999 -26.5s51.333 -41.834 66 -72.501v163h-195v48h195v99h61v-99h93v-48h-93v-558h-61
v91c-14 -30.667 -35.833 -54.834 -65.5 -72.501s-64.167 -26.5 -103.5 -26.5zM274 43.002c49.333 0 88.5 17.5 117.5 52.5s43.5 84.167 43.5 147.5s-14.5 112.333 -43.5 147s-68.167 52 -117.5 52c-50 0 -89.5 -17.333 -118.5 -52s-43.5 -83.667 -43.5 -147
s14.5 -112.5 43.5 -147.5s68.5 -52.5 118.5 -52.5z" />
    <glyph glyph-name="Emacron" unicode="&#x112;" horiz-adv-x="576" 
d="M92 0v705h434v-53h-374v-268h353v-53h-353v-278h374v-53h-434zM163 818v47h318v-47h-318z" />
    <glyph glyph-name="emacron" unicode="&#x113;" horiz-adv-x="527" 
d="M291 -8c-74.667 0 -133.499 22.1689 -176.499 66.502s-64.5 105.166 -64.5 182.499c0 50 9.66699 94 29 132s46.166 67.667 80.499 89s73.833 32 118.5 32c64.667 0 115 -21 151 -63s54 -99.667 54 -173v-28h-373c2 -60 18.5 -106.167 49.5 -138.5
s74.167 -48.5 129.5 -48.5c30 0 58.167 4.66699 84.5 14s52.166 25 77.499 47l24 -46c-21.333 -20.667 -48.666 -36.834 -81.999 -48.501s-67.333 -17.5 -102 -17.5zM279.001 445.002c-50.667 0 -90.1689 -15.833 -118.502 -47.5s-44.833 -72.5 -49.5 -122.5h317
c-1.33301 53.333 -14.666 95 -39.999 125s-61.666 45 -108.999 45zM134.999 629.002v46h288v-46h-288z" />
    <glyph glyph-name="Ebreve" unicode="&#x114;" horiz-adv-x="576" 
d="M92 0v705h434v-53h-374v-268h353v-53h-353v-278h374v-53h-434zM322 760c-44.667 0 -81.834 15 -111.501 45s-46.834 71 -51.501 123l42 5c2.66699 -40.667 14.834 -72.167 36.501 -94.5s49.834 -33.5 84.501 -33.5s62.834 11.167 84.501 33.5s33.834 53.833 36.501 94.5
l42 -5c-4.66699 -52 -21.834 -93 -51.501 -123s-66.834 -45 -111.501 -45z" />
    <glyph glyph-name="ebreve" unicode="&#x115;" horiz-adv-x="527" 
d="M291 -8c-74.667 0 -133.499 22.1689 -176.499 66.502s-64.5 105.166 -64.5 182.499c0 50 9.66699 94 29 132s46.166 67.667 80.499 89s73.833 32 118.5 32c64.667 0 115 -21 151 -63s54 -99.667 54 -173v-28h-373c2 -60 18.5 -106.167 49.5 -138.5
s74.167 -48.5 129.5 -48.5c30 0 58.167 4.66699 84.5 14s52.166 25 77.499 47l24 -46c-21.333 -20.667 -48.666 -36.834 -81.999 -48.501s-67.333 -17.5 -102 -17.5zM279.001 445.002c-50.667 0 -90.1689 -15.833 -118.502 -47.5s-44.833 -72.5 -49.5 -122.5h317
c-1.33301 53.333 -14.666 95 -39.999 125s-61.666 45 -108.999 45zM278.999 548.002c-43.333 0 -78.1699 16.667 -104.503 50s-41.166 79.333 -44.499 138l42 5c2 -47.333 12.333 -83.833 31 -109.5s44 -38.5 76 -38.5s57.333 12.833 76 38.5s29 62.167 31 109.5l42 -5
c-3.33301 -58.667 -18.166 -104.667 -44.499 -138s-61.166 -50 -104.499 -50z" />
    <glyph glyph-name="Edotaccent" unicode="&#x116;" horiz-adv-x="576" 
d="M92 0v705h434v-53h-374v-268h353v-53h-353v-278h374v-53h-434zM284 813v75h76v-75h-76z" />
    <glyph glyph-name="edotaccent" unicode="&#x117;" horiz-adv-x="527" 
d="M291 -8c-74.667 0 -133.499 22.1689 -176.499 66.502s-64.5 105.166 -64.5 182.499c0 50 9.66699 94 29 132s46.166 67.667 80.499 89s73.833 32 118.5 32c64.667 0 115 -21 151 -63s54 -99.667 54 -173v-28h-373c2 -60 18.5 -106.167 49.5 -138.5
s74.167 -48.5 129.5 -48.5c30 0 58.167 4.66699 84.5 14s52.166 25 77.499 47l24 -46c-21.333 -20.667 -48.666 -36.834 -81.999 -48.501s-67.333 -17.5 -102 -17.5zM279.001 445.002c-50.667 0 -90.1689 -15.833 -118.502 -47.5s-44.833 -72.5 -49.5 -122.5h317
c-1.33301 53.333 -14.666 95 -39.999 125s-61.666 45 -108.999 45zM239.999 614.002v75h78v-75h-78z" />
    <glyph glyph-name="Eogonek" unicode="&#x118;" horiz-adv-x="576" 
d="M92 0v705h434v-53h-374v-268h353v-53h-353v-278h374v-53h-434zM474 -191c-29.333 0 -53.1689 8.50195 -71.502 25.502s-27.5 40.167 -27.5 69.5c0 25.333 8.16699 49.666 24.5 72.999s38.833 42.333 67.5 57l25 -34c-15.333 -6.66699 -30.666 -17.834 -45.999 -33.501
s-23 -34.5 -23 -56.5c0 -20 5.66699 -34.667 17 -44s25.333 -14 42 -14s34.334 4 53.001 12l14 -38c-18.667 -11.333 -43.667 -17 -75 -17z" />
    <glyph glyph-name="eogonek" unicode="&#x119;" horiz-adv-x="527" 
d="M291 -8c-74.667 0 -133.499 22.1689 -176.499 66.502s-64.5 105.166 -64.5 182.499c0 50 9.66699 94 29 132s46.166 67.667 80.499 89s73.833 32 118.5 32c64.667 0 115 -21 151 -63s54 -99.667 54 -173v-28h-373c2 -60 18.5 -106.167 49.5 -138.5
s74.167 -48.5 129.5 -48.5c30 0 58.167 4.66699 84.5 14s52.166 25 77.499 47l24 -46c-21.333 -20.667 -48.666 -36.834 -81.999 -48.501s-67.333 -17.5 -102 -17.5zM279.001 445.002c-50.667 0 -90.1689 -15.833 -118.502 -47.5s-44.833 -72.5 -49.5 -122.5h317
c-1.33301 53.333 -14.666 95 -39.999 125s-61.666 45 -108.999 45zM330.999 -190.998c-29.333 0 -53.1689 8.50195 -71.502 25.502s-27.5 40.167 -27.5 69.5c0 25.333 8.16699 49.666 24.5 72.999s38.833 42.333 67.5 57l25 -34
c-15.333 -6.66699 -30.666 -17.834 -45.999 -33.501s-23 -34.5 -23 -56.5c0 -20 5.66699 -34.667 17 -44s25.333 -14 42 -14s34.334 4 53.001 12l14 -38c-18.667 -11.333 -43.667 -17 -75 -17z" />
    <glyph glyph-name="Ecaron" unicode="&#x11a;" horiz-adv-x="576" 
d="M92 0v705h434v-53h-374v-268h353v-53h-353v-278h374v-53h-434zM291 765l-122 171h49l104 -126l104 126h49l-122 -171h-62z" />
    <glyph glyph-name="ecaron" unicode="&#x11b;" horiz-adv-x="527" 
d="M291 -8c-74.667 0 -133.499 22.1689 -176.499 66.502s-64.5 105.166 -64.5 182.499c0 50 9.66699 94 29 132s46.166 67.667 80.499 89s73.833 32 118.5 32c64.667 0 115 -21 151 -63s54 -99.667 54 -173v-28h-373c2 -60 18.5 -106.167 49.5 -138.5
s74.167 -48.5 129.5 -48.5c30 0 58.167 4.66699 84.5 14s52.166 25 77.499 47l24 -46c-21.333 -20.667 -48.666 -36.834 -81.999 -48.501s-67.333 -17.5 -102 -17.5zM279.001 445.002c-50.667 0 -90.1689 -15.833 -118.502 -47.5s-44.833 -72.5 -49.5 -122.5h317
c-1.33301 53.333 -14.666 95 -39.999 125s-61.666 45 -108.999 45zM247.999 550.002l-109 201h45l95 -155l95 155h45l-109 -201h-62z" />
    <glyph glyph-name="Gcircumflex" unicode="&#x11c;" horiz-adv-x="722" 
d="M405 -8c-111.333 0 -195.999 31.666 -253.999 94.999s-87 152 -87 266c0 74 12.833 138 38.5 192s62.667 95.5 111 124.5s106.833 43.5 175.5 43.5c102 0 183.333 -30.333 244 -91l-27 -50c-32.667 30 -66.334 51.5 -101.001 64.5s-73.667 19.5 -117 19.5
c-83.333 0 -147.333 -26.5 -192 -79.5s-67 -127.5 -67 -223.5c0 -99.333 23.167 -175 69.5 -227s115.5 -78 207.5 -78c62.667 0 121 10.667 175 32v229h-187v52h242v-321c-17.333 -9.33301 -38.833 -17.666 -64.5 -24.999s-53 -13 -82 -17s-57.167 -6 -84.5 -6z
M234.001 764.999l122 171h62l122 -171h-49l-104 126l-104 -126h-49z" />
    <glyph glyph-name="gcircumflex" unicode="&#x11d;" horiz-adv-x="578" 
d="M291 -188c-84.667 0 -155.001 22.333 -211.001 67l23 46c30.667 -22 60.334 -37.833 89.001 -47.5s61 -14.5 97 -14.5c48.667 0 85.667 13.333 111 40s38 65.334 38 116.001v94c-14 -32 -36.167 -57 -66.5 -75s-64.833 -27 -103.5 -27
c-45.333 0 -84.166 10.167 -116.499 30.5s-57.333 48.666 -75 84.999s-26.5 78.5 -26.5 126.5s8.83301 90 26.5 126s42.667 64.167 75 84.5s71.166 30.5 116.499 30.5c38.667 0 73 -9 103 -27s52 -42.667 66 -74v92h60v-457c0 -144 -68.667 -216 -206 -216zM274.999 63
c50 0 89.667 17.167 119 51.5s44 80.5 44 138.5s-14.667 104 -44 138s-69 51 -119 51c-50.667 0 -90.5 -17 -119.5 -51s-43.5 -80 -43.5 -138s14.5 -104.167 43.5 -138.5s68.833 -51.5 119.5 -51.5zM150.999 550l109 201h62l109 -201h-45l-95 155l-95 -155h-45z" />
    <glyph glyph-name="Gbreve" unicode="&#x11e;" horiz-adv-x="722" 
d="M405 -8c-111.333 0 -195.999 31.666 -253.999 94.999s-87 152 -87 266c0 74 12.833 138 38.5 192s62.667 95.5 111 124.5s106.833 43.5 175.5 43.5c102 0 183.333 -30.333 244 -91l-27 -50c-32.667 30 -66.334 51.5 -101.001 64.5s-73.667 19.5 -117 19.5
c-83.333 0 -147.333 -26.5 -192 -79.5s-67 -127.5 -67 -223.5c0 -99.333 23.167 -175 69.5 -227s115.5 -78 207.5 -78c62.667 0 121 10.667 175 32v229h-187v52h242v-321c-17.333 -9.33301 -38.833 -17.666 -64.5 -24.999s-53 -13 -82 -17s-57.167 -6 -84.5 -6z
M387.001 759.999c-44.667 0 -81.834 15 -111.501 45s-46.834 71 -51.501 123l42 5c2.66699 -40.667 14.834 -72.167 36.501 -94.5s49.834 -33.5 84.501 -33.5s62.834 11.167 84.501 33.5s33.834 53.833 36.501 94.5l42 -5c-4.66699 -52 -21.834 -93 -51.501 -123
s-66.834 -45 -111.501 -45z" />
    <glyph glyph-name="gbreve" unicode="&#x11f;" horiz-adv-x="578" 
d="M291 -188c-84.667 0 -155.001 22.333 -211.001 67l23 46c30.667 -22 60.334 -37.833 89.001 -47.5s61 -14.5 97 -14.5c48.667 0 85.667 13.333 111 40s38 65.334 38 116.001v94c-14 -32 -36.167 -57 -66.5 -75s-64.833 -27 -103.5 -27
c-45.333 0 -84.166 10.167 -116.499 30.5s-57.333 48.666 -75 84.999s-26.5 78.5 -26.5 126.5s8.83301 90 26.5 126s42.667 64.167 75 84.5s71.166 30.5 116.499 30.5c38.667 0 73 -9 103 -27s52 -42.667 66 -74v92h60v-457c0 -144 -68.667 -216 -206 -216zM274.999 63
c50 0 89.667 17.167 119 51.5s44 80.5 44 138.5s-14.667 104 -44 138s-69 51 -119 51c-50.667 0 -90.5 -17 -119.5 -51s-43.5 -80 -43.5 -138s14.5 -104.167 43.5 -138.5s68.833 -51.5 119.5 -51.5zM290.999 548c-43.333 0 -78.1699 16.667 -104.503 50
s-41.166 79.333 -44.499 138l42 5c2 -47.333 12.333 -83.833 31 -109.5s44 -38.5 76 -38.5s57.333 12.833 76 38.5s29 62.167 31 109.5l42 -5c-3.33301 -58.667 -18.166 -104.667 -44.499 -138s-61.166 -50 -104.499 -50z" />
    <glyph glyph-name="Gdotaccent" unicode="&#x120;" horiz-adv-x="722" 
d="M405 -8c-111.333 0 -195.999 31.666 -253.999 94.999s-87 152 -87 266c0 74 12.833 138 38.5 192s62.667 95.5 111 124.5s106.833 43.5 175.5 43.5c102 0 183.333 -30.333 244 -91l-27 -50c-32.667 30 -66.334 51.5 -101.001 64.5s-73.667 19.5 -117 19.5
c-83.333 0 -147.333 -26.5 -192 -79.5s-67 -127.5 -67 -223.5c0 -99.333 23.167 -175 69.5 -227s115.5 -78 207.5 -78c62.667 0 121 10.667 175 32v229h-187v52h242v-321c-17.333 -9.33301 -38.833 -17.666 -64.5 -24.999s-53 -13 -82 -17s-57.167 -6 -84.5 -6z
M349.001 812.999v75h76v-75h-76z" />
    <glyph glyph-name="gdotaccent" unicode="&#x121;" horiz-adv-x="578" 
d="M291 -188c-84.667 0 -155.001 22.333 -211.001 67l23 46c30.667 -22 60.334 -37.833 89.001 -47.5s61 -14.5 97 -14.5c48.667 0 85.667 13.333 111 40s38 65.334 38 116.001v94c-14 -32 -36.167 -57 -66.5 -75s-64.833 -27 -103.5 -27
c-45.333 0 -84.166 10.167 -116.499 30.5s-57.333 48.666 -75 84.999s-26.5 78.5 -26.5 126.5s8.83301 90 26.5 126s42.667 64.167 75 84.5s71.166 30.5 116.499 30.5c38.667 0 73 -9 103 -27s52 -42.667 66 -74v92h60v-457c0 -144 -68.667 -216 -206 -216zM274.999 63
c50 0 89.667 17.167 119 51.5s44 80.5 44 138.5s-14.667 104 -44 138s-69 51 -119 51c-50.667 0 -90.5 -17 -119.5 -51s-43.5 -80 -43.5 -138s14.5 -104.167 43.5 -138.5s68.833 -51.5 119.5 -51.5zM251.999 614v75h78v-75h-78z" />
    <glyph glyph-name="uni0122" unicode="&#x122;" horiz-adv-x="722" 
d="M405 -8c-111.333 0 -195.999 31.666 -253.999 94.999s-87 152 -87 266c0 74 12.833 138 38.5 192s62.667 95.5 111 124.5s106.833 43.5 175.5 43.5c102 0 183.333 -30.333 244 -91l-27 -50c-32.667 30 -66.334 51.5 -101.001 64.5s-73.667 19.5 -117 19.5
c-83.333 0 -147.333 -26.5 -192 -79.5s-67 -127.5 -67 -223.5c0 -99.333 23.167 -175 69.5 -227s115.5 -78 207.5 -78c62.667 0 121 10.667 175 32v229h-187v52h242v-321c-17.333 -9.33301 -38.833 -17.666 -64.5 -24.999s-53 -13 -82 -17s-57.167 -6 -84.5 -6z
M387.001 -263.001l-31 22.001c14 15.333 23.667 29.666 29 42.999s8.33301 27.333 9 42h-42v73h84v-57c0 -23.333 -4 -45.5 -12 -66.5s-20.333 -39.833 -37 -56.5z" />
    <glyph glyph-name="uni0123" unicode="&#x123;" horiz-adv-x="578" 
d="M291 -188c-84.667 0 -155.001 22.333 -211.001 67l23 46c30.667 -22 60.334 -37.833 89.001 -47.5s61 -14.5 97 -14.5c48.667 0 85.667 13.333 111 40s38 65.334 38 116.001v94c-14 -32 -36.167 -57 -66.5 -75s-64.833 -27 -103.5 -27
c-45.333 0 -84.166 10.167 -116.499 30.5s-57.333 48.666 -75 84.999s-26.5 78.5 -26.5 126.5s8.83301 90 26.5 126s42.667 64.167 75 84.5s71.166 30.5 116.499 30.5c38.667 0 73 -9 103 -27s52 -42.667 66 -74v92h60v-457c0 -144 -68.667 -216 -206 -216zM274.999 63
c50 0 89.667 17.167 119 51.5s44 80.5 44 138.5s-14.667 104 -44 138s-69 51 -119 51c-50.667 0 -90.5 -17 -119.5 -51s-43.5 -80 -43.5 -138s14.5 -104.167 43.5 -138.5s68.833 -51.5 119.5 -51.5zM248.999 569v57c0 23.333 4 45.5 12 66.5s20.333 39.833 37 56.5l31 -23
c-14 -15.333 -23.667 -29.5 -29 -42.5s-8.33301 -26.833 -9 -41.5h42v-73h-84z" />
    <glyph glyph-name="Hcircumflex" unicode="&#x124;" horiz-adv-x="756" 
d="M92 0v705h61v-320h450v320h61v-705h-61v330h-450v-330h-61zM225 765l122 171h62l122 -171h-49l-104 126l-104 -126h-49z" />
    <glyph glyph-name="hcircumflex" unicode="&#x125;" horiz-adv-x="560" 
d="M80 0l-0.000976562 704.999h61v-304c16.667 30.667 39.834 53.834 69.501 69.501s62.5 23.5 98.5 23.5c115.333 0 173 -62.667 173 -188v-306h-61v301c0 48 -9.66699 83.333 -29 106s-50 34 -92 34c-48 0 -86.5 -14.833 -115.5 -44.5s-43.5 -69.5 -43.5 -119.5v-277h-61z
M128.999 764.999l122 171h62l122 -171h-49l-104 126l-104 -126h-49z" />
    <glyph glyph-name="Hbar" unicode="&#x126;" horiz-adv-x="789" 
d="M108 0v523h-93v51h93v131h62v-131h449v131h62v-131h93v-51h-93v-523h-62v328h-449v-328h-62zM170 382h449v141h-449v-141z" />
    <glyph glyph-name="hbar" unicode="&#x127;" horiz-adv-x="560" 
d="M80 0l-0.000976562 557.999h-93v48h93v99h61v-99h196v-48h-196v-157c16.667 30.667 39.834 53.834 69.501 69.501s62.5 23.5 98.5 23.5c115.333 0 173 -62.667 173 -188v-306h-61v301c0 48 -9.66699 83.333 -29 106s-50 34 -92 34c-48 0 -86.5 -14.833 -115.5 -44.5
s-43.5 -69.5 -43.5 -119.5v-277h-61z" />
    <glyph glyph-name="Itilde" unicode="&#x128;" horiz-adv-x="245" 
d="M92 0v705h61v-705h-61zM-41 787l-39.0029 3.00098c4 40.667 16 72 36 94s45.667 33 77 33c15.333 0 30.833 -3.5 46.5 -10.5s34.167 -18.167 55.5 -33.5c21.333 -14 37.5 -23.667 48.5 -29s21.167 -8 30.5 -8c38.667 0 62.334 28 71.001 84l39 -3
c-4 -40.667 -16 -72 -36 -94s-45.333 -33 -76 -33c-15.333 0 -31.166 3.5 -47.499 10.5s-35.833 18.5 -58.5 34.5c-18.667 13.333 -33.667 22.666 -45 27.999s-21.666 8 -30.999 8c-38 0 -61.667 -28 -71 -84z" />
    <glyph glyph-name="itilde" unicode="&#x129;" horiz-adv-x="222" 
d="M80 0v485h61v-485h-61zM-24 592l-39.0029 2.99707c4 40 14.833 71.167 32.5 93.5s40.834 33.5 69.501 33.5c14 0 27.167 -3.66699 39.5 -11s26.5 -18.666 42.5 -33.999c14.667 -13.333 26.5 -22.666 35.5 -27.999s17.833 -8 26.5 -8c34 0 55 28 63 84l39 -3
c-4 -40 -14.833 -71.167 -32.5 -93.5s-40.5 -33.5 -68.5 -33.5c-13.333 0 -26.166 3.5 -38.499 10.5s-27.166 18.5 -44.499 34.5c-14 12.667 -25.5 21.834 -34.5 27.501s-18.167 8.5 -27.5 8.5c-34 0 -55 -28 -63 -84z" />
    <glyph glyph-name="Imacron" unicode="&#x12a;" horiz-adv-x="245" 
d="M92 0v705h61v-705h-61zM-37 818v47h318v-47h-318z" />
    <glyph glyph-name="imacron" unicode="&#x12b;" horiz-adv-x="222" 
d="M80 0v485h61v-485h-61zM-33 629v46h288v-46h-288z" />
    <glyph glyph-name="Ibreve" unicode="&#x12c;" horiz-adv-x="245" 
d="M92 0v705h61v-705h-61zM122 760c-44.667 0 -81.834 15 -111.501 45s-46.834 71 -51.501 123l42 5c2.66699 -40.667 14.834 -72.167 36.501 -94.5s49.834 -33.5 84.501 -33.5s62.834 11.167 84.501 33.5s33.834 53.833 36.501 94.5l42 -5
c-4.66699 -52 -21.834 -93 -51.501 -123s-66.834 -45 -111.501 -45z" />
    <glyph glyph-name="ibreve" unicode="&#x12d;" horiz-adv-x="222" 
d="M80 0v485h61v-485h-61zM111 548c-43.333 0 -78.1699 16.667 -104.503 50s-41.166 79.333 -44.499 138l42 5c2 -47.333 12.333 -83.833 31 -109.5s44 -38.5 76 -38.5s57.333 12.833 76 38.5s29 62.167 31 109.5l42 -5c-3.33301 -58.667 -18.166 -104.667 -44.499 -138
s-61.166 -50 -104.499 -50z" />
    <glyph glyph-name="Iogonek" unicode="&#x12e;" horiz-adv-x="245" 
d="M92 0v705h61v-705h-61zM129 -191c-29.333 0 -53.1689 8.50195 -71.502 25.502s-27.5 40.167 -27.5 69.5c0 25.333 8.16699 49.666 24.5 72.999s38.833 42.333 67.5 57l25 -34c-15.333 -6.66699 -30.666 -17.834 -45.999 -33.501s-23 -34.5 -23 -56.5
c0 -20 5.66699 -34.667 17 -44s25.333 -14 42 -14s34.334 4 53.001 12l14 -38c-18.667 -11.333 -43.667 -17 -75 -17z" />
    <glyph glyph-name="iogonek" unicode="&#x12f;" horiz-adv-x="222" 
d="M80 0v485h61v-485h-61zM70 613v77h82v-77h-82zM117 -191c-29.333 0 -53.1689 8.50195 -71.502 25.502s-27.5 40.167 -27.5 69.5c0 25.333 8.16699 49.666 24.5 72.999s38.833 42.333 67.5 57l25 -34c-15.333 -6.66699 -30.666 -17.834 -45.999 -33.501
s-23 -34.5 -23 -56.5c0 -20 5.66699 -34.667 17 -44s25.333 -14 42 -14s34.334 4 53.001 12l14 -38c-18.667 -11.333 -43.667 -17 -75 -17z" />
    <glyph glyph-name="Idotaccent" unicode="&#x130;" horiz-adv-x="245" 
d="M92 0v705h61v-705h-61zM84 813v75h76v-75h-76z" />
    <glyph glyph-name="dotlessi" unicode="&#x131;" horiz-adv-x="222" 
d="M80 0v485h61v-485h-61z" />
    <glyph glyph-name="IJ" unicode="&#x132;" horiz-adv-x="555" 
d="M92 0v705h61v-705h-61zM240 -7l-4.99902 54l56 4c35.333 2.66699 62.666 15.667 81.999 39s29 54.333 29 93v522h62v-523c0 -55.333 -14.333 -99 -43 -131s-70 -50 -124 -54z" />
    <glyph glyph-name="Jcircumflex" unicode="&#x134;" horiz-adv-x="310" 
d="M-5 -7l-4.99902 54l56 4c35.333 2.66699 62.666 15.667 81.999 39s29 54.333 29 93v522h62v-523c0 -55.333 -14.333 -99 -43 -131s-70 -50 -124 -54zM35.001 765l122 171h62l122 -171h-49l-104 126l-104 -126h-49z" />
    <glyph glyph-name="jcircumflex" unicode="&#x135;" horiz-adv-x="225" 
d="M-53 -193l-4 50.001l42 4c66 5.33301 99 45.333 99 120v504h61v-499c0 -110.667 -51.667 -169.334 -155 -176.001zM-26 550.001l109 201h62l109 -201h-45l-95 155l-95 -155h-45z" />
    <glyph glyph-name="uni0136" unicode="&#x136;" horiz-adv-x="607" 
d="M92 0v705h61v-324h2l356 324h81l-379 -344l403 -361h-84l-377 335h-2v-335h-61zM302 -263l-31 22.001c14 15.333 23.667 29.666 29 42.999s8.33301 27.333 9 42h-42v73h84v-57c0 -23.333 -4 -45.5 -12 -66.5s-20.333 -39.833 -37 -56.5z" />
    <glyph glyph-name="uni0137" unicode="&#x137;" horiz-adv-x="484" 
d="M80 0v705h61v-440h2l239 220h81l-255 -234l279 -251h-81l-263 233h-2v-233h-61zM235 -263l-31 22.001c14 15.333 23.667 29.666 29 42.999s8.33301 27.333 9 42h-42v73h84v-57c0 -23.333 -4 -45.5 -12 -66.5s-20.333 -39.833 -37 -56.5z" />
    <glyph glyph-name="kgreenlandic" unicode="&#x138;" horiz-adv-x="484" 
d="M80 0v485h61v-220h2l239 220h81l-255 -234l279 -251h-81l-263 233h-2v-233h-61z" />
    <glyph glyph-name="Lacute" unicode="&#x139;" horiz-adv-x="535" 
d="M92 0v705h61v-650h368v-55h-429zM97 765l118 171h73l-141 -171h-50z" />
    <glyph glyph-name="lacute" unicode="&#x13a;" horiz-adv-x="285" 
d="M221 -8c-45.333 0 -80.167 13.833 -104.5 41.5s-36.5 67.5 -36.5 119.5v552h61v-545c0 -76.667 30 -115 90 -115c16.667 0 32 2 46 6l-2 -53c-19.333 -4 -37.333 -6 -54 -6zM85.999 765l118 171h73l-141 -171h-50z" />
    <glyph glyph-name="uni013B" unicode="&#x13b;" horiz-adv-x="535" 
d="M92 0v705h61v-650h368v-55h-429zM299 -263l-31 22.001c14 15.333 23.667 29.666 29 42.999s8.33301 27.333 9 42h-42v73h84v-57c0 -23.333 -4 -45.5 -12 -66.5s-20.333 -39.833 -37 -56.5z" />
    <glyph glyph-name="uni013C" unicode="&#x13c;" horiz-adv-x="285" 
d="M221 -8c-45.333 0 -80.167 13.833 -104.5 41.5s-36.5 67.5 -36.5 119.5v552h61v-545c0 -76.667 30 -115 90 -115c16.667 0 32 2 46 6l-2 -53c-19.333 -4 -37.333 -6 -54 -6zM176.999 -263l-31 22.001c14 15.333 23.667 29.666 29 42.999s8.33301 27.333 9 42h-42v73h84
v-57c0 -23.333 -4 -45.5 -12 -66.5s-20.333 -39.833 -37 -56.5z" />
    <glyph glyph-name="Lcaron" unicode="&#x13d;" horiz-adv-x="535" 
d="M92 0v705h61v-650h368v-55h-429zM272 484v221h60l-20 -221h-40z" />
    <glyph glyph-name="lcaron" unicode="&#x13e;" horiz-adv-x="285" 
d="M221 -8c-45.333 0 -80.167 13.833 -104.5 41.5s-36.5 67.5 -36.5 119.5v552h61v-545c0 -76.667 30 -115 90 -115c16.667 0 32 2 46 6l-2 -53c-19.333 -4 -37.333 -6 -54 -6zM188.999 516v189h57l-23 -189h-34z" />
    <glyph glyph-name="Ldot" unicode="&#x13f;" horiz-adv-x="535" 
d="M92 0v705h61v-650h368v-55h-429zM351 347v81h84v-81h-84z" />
    <glyph glyph-name="ldot" unicode="&#x140;" horiz-adv-x="297" 
d="M221 -8c-45.333 0 -80.167 13.833 -104.5 41.5s-36.5 67.5 -36.5 119.5v552h61v-545c0 -76.667 30 -115 90 -115c16.667 0 32 2 46 6l-2 -53c-19.333 -4 -37.333 -6 -54 -6zM215.999 316v81h84v-81h-84z" />
    <glyph glyph-name="Lslash" unicode="&#x141;" horiz-adv-x="535" 
d="M92 0v705h61v-650h368v-55h-429zM9 266l-27 45l342 197l26 -45z" />
    <glyph glyph-name="lslash" unicode="&#x142;" horiz-adv-x="285" 
d="M221 -8c-45.333 0 -80.167 13.833 -104.5 41.5s-36.5 67.5 -36.5 119.5v552h61v-545c0 -76.667 30 -115 90 -115c16.667 0 32 2 46 6l-2 -53c-19.333 -4 -37.333 -6 -54 -6zM11.999 263l-27 45l245 143l27 -45z" />
    <glyph glyph-name="Nacute" unicode="&#x143;" horiz-adv-x="736" 
d="M92 0v705h49l446 -601v601h57v-705h-48l-447 602v-602h-57zM343 765l118 171h73l-141 -171h-50z" />
    <glyph glyph-name="nacute" unicode="&#x144;" horiz-adv-x="560" 
d="M80 0v485h60v-87c16 32 39 56 69 72s63.333 24 100 24c115.333 0 173 -62.667 173 -188v-306h-61v301c0 48 -9.66699 83.333 -29 106s-50 34 -92 34c-48 0 -86.5 -14.833 -115.5 -44.5s-43.5 -69.5 -43.5 -119.5v-277h-61zM258 550l103 201h70l-127 -201h-46z" />
    <glyph glyph-name="uni0145" unicode="&#x145;" horiz-adv-x="736" 
d="M92 0v705h49l446 -601v601h57v-705h-48l-447 602v-602h-57zM361 -263l-31 22.001c14 15.333 23.667 29.666 29 42.999s8.33301 27.333 9 42h-42v73h84v-57c0 -23.333 -4 -45.5 -12 -66.5s-20.333 -39.833 -37 -56.5z" />
    <glyph glyph-name="uni0146" unicode="&#x146;" horiz-adv-x="560" 
d="M80 0v485h60v-87c16 32 39 56 69 72s63.333 24 100 24c115.333 0 173 -62.667 173 -188v-306h-61v301c0 48 -9.66699 83.333 -29 106s-50 34 -92 34c-48 0 -86.5 -14.833 -115.5 -44.5s-43.5 -69.5 -43.5 -119.5v-277h-61zM274 -263l-31 22.001
c14 15.333 23.667 29.666 29 42.999s8.33301 27.333 9 42h-42v73h84v-57c0 -23.333 -4 -45.5 -12 -66.5s-20.333 -39.833 -37 -56.5z" />
    <glyph glyph-name="Ncaron" unicode="&#x147;" horiz-adv-x="736" 
d="M92 0v705h49l446 -601v601h57v-705h-48l-447 602v-602h-57zM337 765l-122 171h49l104 -126l104 126h49l-122 -171h-62z" />
    <glyph glyph-name="ncaron" unicode="&#x148;" horiz-adv-x="560" 
d="M80 0v485h60v-87c16 32 39 56 69 72s63.333 24 100 24c115.333 0 173 -62.667 173 -188v-306h-61v301c0 48 -9.66699 83.333 -29 106s-50 34 -92 34c-48 0 -86.5 -14.833 -115.5 -44.5s-43.5 -69.5 -43.5 -119.5v-277h-61zM250 550l-109 201h45l95 -155l95 155h45
l-109 -201h-62z" />
    <glyph glyph-name="napostrophe" unicode="&#x149;" horiz-adv-x="560" 
d="M29 573l-31.002 23c12.667 14 21.334 27 26.001 39s7.33398 24 8.00098 36h-39v78h83v-58c0 -22 -3.33301 -42.833 -10 -62.5s-19 -38.167 -37 -55.5zM79.998 0v485h60v-87c16 32 39 56 69 72s63.333 24 100 24c115.333 0 173 -62.667 173 -188v-306h-61v301
c0 48 -9.66699 83.333 -29 106s-50 34 -92 34c-48 0 -86.5 -14.833 -115.5 -44.5s-43.5 -69.5 -43.5 -119.5v-277h-61z" />
    <glyph glyph-name="Eng" unicode="&#x14a;" horiz-adv-x="736" 
d="M447 -193l-4 50l42 4c68 5.33301 102 45.333 102 120v32l-438 589v-602h-57v705h49l446 -601v601h57v-719c0 -110 -51.333 -168.667 -154 -176z" />
    <glyph glyph-name="eng" unicode="&#x14b;" horiz-adv-x="560" 
d="M285 -193l-4 50l42 4c65.333 5.33301 98 45.333 98 120v320c0 48 -9.66699 83.333 -29 106s-50 34 -92 34c-48 0 -86.5 -14.833 -115.5 -44.5s-43.5 -69.5 -43.5 -119.5v-277h-61v485h60v-87c16 32 39 56 69 72s63.333 24 100 24c115.333 0 173 -62.667 173 -188v-320
c0 -110 -51.333 -168.667 -154 -176z" />
    <glyph glyph-name="Omacron" unicode="&#x14c;" horiz-adv-x="759" 
d="M379 -8c-64.667 0 -120.499 14.667 -167.499 44s-83.333 71 -109 125s-38.5 118 -38.5 192s12.667 138 38 192s61.666 95.5 108.999 124.5s103.333 43.5 168 43.5c65.333 0 121.5 -14.5 168.5 -43.5s83.333 -70.333 109 -124s38.5 -117.5 38.5 -191.5
c0 -74.667 -12.833 -139 -38.5 -193s-62.167 -95.667 -109.5 -125s-103.333 -44 -168 -44zM379.001 48c79.333 0 141 26.667 185 80s66 128.333 66 225s-21.833 171.5 -65.5 224.5s-105.5 79.5 -185.5 79.5c-79.333 0 -140.833 -26.667 -184.5 -80s-65.5 -128 -65.5 -224
s21.833 -170.833 65.5 -224.5s105.167 -80.5 184.5 -80.5zM220.001 818v47h318v-47h-318z" />
    <glyph glyph-name="omacron" unicode="&#x14d;" horiz-adv-x="547" 
d="M273 -8c-45.333 0 -84.666 10.167 -117.999 30.5s-59.166 49.333 -77.499 87s-27.5 82.167 -27.5 133.5c0 50.667 9.16699 94.834 27.5 132.501s44.166 66.834 77.499 87.501s72.666 31 117.999 31c46 0 85.667 -10.333 119 -31s59.166 -49.834 77.499 -87.501
s27.5 -81.834 27.5 -132.501c0 -51.333 -9.16699 -95.833 -27.5 -133.5s-44.166 -66.667 -77.499 -87s-73 -30.5 -119 -30.5zM273 43c49.333 0 88.666 17.5 117.999 52.5s44 84.167 44 147.5s-14.667 112.333 -44 147s-68.666 52 -117.999 52s-88.5 -17.333 -117.5 -52
s-43.5 -83.667 -43.5 -147s14.5 -112.5 43.5 -147.5s68.167 -52.5 117.5 -52.5zM129 629v46h288v-46h-288z" />
    <glyph glyph-name="Obreve" unicode="&#x14e;" horiz-adv-x="759" 
d="M379 -8c-64.667 0 -120.499 14.667 -167.499 44s-83.333 71 -109 125s-38.5 118 -38.5 192s12.667 138 38 192s61.666 95.5 108.999 124.5s103.333 43.5 168 43.5c65.333 0 121.5 -14.5 168.5 -43.5s83.333 -70.333 109 -124s38.5 -117.5 38.5 -191.5
c0 -74.667 -12.833 -139 -38.5 -193s-62.167 -95.667 -109.5 -125s-103.333 -44 -168 -44zM379.001 48c79.333 0 141 26.667 185 80s66 128.333 66 225s-21.833 171.5 -65.5 224.5s-105.5 79.5 -185.5 79.5c-79.333 0 -140.833 -26.667 -184.5 -80s-65.5 -128 -65.5 -224
s21.833 -170.833 65.5 -224.5s105.167 -80.5 184.5 -80.5zM379.001 760c-44.667 0 -81.834 15 -111.501 45s-46.834 71 -51.501 123l42 5c2.66699 -40.667 14.834 -72.167 36.501 -94.5s49.834 -33.5 84.501 -33.5s62.834 11.167 84.501 33.5s33.834 53.833 36.501 94.5
l42 -5c-4.66699 -52 -21.834 -93 -51.501 -123s-66.834 -45 -111.501 -45z" />
    <glyph glyph-name="obreve" unicode="&#x14f;" horiz-adv-x="547" 
d="M273 -8c-45.333 0 -84.666 10.167 -117.999 30.5s-59.166 49.333 -77.499 87s-27.5 82.167 -27.5 133.5c0 50.667 9.16699 94.834 27.5 132.501s44.166 66.834 77.499 87.501s72.666 31 117.999 31c46 0 85.667 -10.333 119 -31s59.166 -49.834 77.499 -87.501
s27.5 -81.834 27.5 -132.501c0 -51.333 -9.16699 -95.833 -27.5 -133.5s-44.166 -66.667 -77.499 -87s-73 -30.5 -119 -30.5zM273 43c49.333 0 88.666 17.5 117.999 52.5s44 84.167 44 147.5s-14.667 112.333 -44 147s-68.666 52 -117.999 52s-88.5 -17.333 -117.5 -52
s-43.5 -83.667 -43.5 -147s14.5 -112.5 43.5 -147.5s68.167 -52.5 117.5 -52.5zM273 548c-43.333 0 -78.1699 16.667 -104.503 50s-41.166 79.333 -44.499 138l42 5c2 -47.333 12.333 -83.833 31 -109.5s44 -38.5 76 -38.5s57.333 12.833 76 38.5s29 62.167 31 109.5l42 -5
c-3.33301 -58.667 -18.166 -104.667 -44.499 -138s-61.166 -50 -104.499 -50z" />
    <glyph glyph-name="Ohungarumlaut" unicode="&#x150;" horiz-adv-x="759" 
d="M379 -8c-64.667 0 -120.499 14.667 -167.499 44s-83.333 71 -109 125s-38.5 118 -38.5 192s12.667 138 38 192s61.666 95.5 108.999 124.5s103.333 43.5 168 43.5c65.333 0 121.5 -14.5 168.5 -43.5s83.333 -70.333 109 -124s38.5 -117.5 38.5 -191.5
c0 -74.667 -12.833 -139 -38.5 -193s-62.167 -95.667 -109.5 -125s-103.333 -44 -168 -44zM379.001 48c79.333 0 141 26.667 185 80s66 128.333 66 225s-21.833 171.5 -65.5 224.5s-105.5 79.5 -185.5 79.5c-79.333 0 -140.833 -26.667 -184.5 -80s-65.5 -128 -65.5 -224
s21.833 -170.833 65.5 -224.5s105.167 -80.5 184.5 -80.5zM302.001 765l86 171h65l-114 -171h-37zM419.001 765l88 171h65l-116 -171h-37z" />
    <glyph glyph-name="ohungarumlaut" unicode="&#x151;" horiz-adv-x="547" 
d="M273 -8c-45.333 0 -84.666 10.167 -117.999 30.5s-59.166 49.333 -77.499 87s-27.5 82.167 -27.5 133.5c0 50.667 9.16699 94.834 27.5 132.501s44.166 66.834 77.499 87.501s72.666 31 117.999 31c46 0 85.667 -10.333 119 -31s59.166 -49.834 77.499 -87.501
s27.5 -81.834 27.5 -132.501c0 -51.333 -9.16699 -95.833 -27.5 -133.5s-44.166 -66.667 -77.499 -87s-73 -30.5 -119 -30.5zM273 43c49.333 0 88.666 17.5 117.999 52.5s44 84.167 44 147.5s-14.667 112.333 -44 147s-68.666 52 -117.999 52s-88.5 -17.333 -117.5 -52
s-43.5 -83.667 -43.5 -147s14.5 -112.5 43.5 -147.5s68.167 -52.5 117.5 -52.5zM314 550l56 201h61l-81 -201h-36zM196 550l56 201h61l-81 -201h-36z" />
    <glyph glyph-name="OE" unicode="&#x152;" horiz-adv-x="1042" 
d="M415 0c-112.667 0 -199.334 30.167 -260.001 90.5s-91 147.833 -91 262.5s30.333 202 91 262s147.334 90 260.001 90h577v-53h-374v-268h353v-53h-353v-278h374v-53h-577zM420 54h138v597h-138c-194 0 -291 -99.333 -291 -298c0 -199.333 97 -299 291 -299z" />
    <glyph glyph-name="oe" unicode="&#x153;" horiz-adv-x="908" 
d="M272 -8c-45.333 0 -84.667 10.334 -118 31.001s-59 49.667 -77 87s-27 81.666 -27 132.999c0 50.667 9 94.834 27 132.501s43.667 66.834 77 87.501s72.666 31 117.999 31c46 0 85.667 -11.333 119 -34s58.333 -54.334 75 -95.001c16.667 40 42.334 71.5 77.001 94.5
s74.667 34.5 120 34.5c62 0 110.833 -21 146.5 -63s53.5 -99.667 53.5 -173v-28h-366c2 -59.333 18 -105.333 48 -138s73 -49 129 -49c28 0 55 5 81 15s51.667 25.333 77 46l23 -46c-20.667 -20.667 -47.334 -36.834 -80.001 -48.501s-66 -17.5 -100 -17.5
c-51.333 0 -95.166 10.667 -131.499 32s-62.833 53 -79.5 95c-16.667 -40 -41.5 -71.167 -74.5 -93.5s-72.167 -33.5 -117.5 -33.5zM660.999 445.001c-48 0 -86 -15.833 -114 -47.5s-44.333 -72.5 -49 -122.5h311c-1.33301 52.667 -14.5 94.167 -39.5 124.5
s-61.167 45.5 -108.5 45.5zM272.999 43.001c50 0 89.499 17.5 118.499 52.5s43.5 84.167 43.5 147.5s-14.667 112.333 -44 147s-68.666 52 -117.999 52s-88.5 -17.333 -117.5 -52s-43.5 -83.667 -43.5 -147s14.5 -112.5 43.5 -147.5s68.167 -52.5 117.5 -52.5z" />
    <glyph glyph-name="Racute" unicode="&#x154;" horiz-adv-x="661" 
d="M92 0v705.001h266c75.333 0 132.833 -17.333 172.5 -52s59.5 -84 59.5 -148c0 -52.667 -14.333 -95.334 -43 -128.001s-69.334 -53.667 -122.001 -63c28.667 -10.667 54 -36.667 76 -78l128 -236h-67l-122 226c-17.333 31.333 -36.666 52.333 -57.999 63s-50 16 -86 16
h-143v-305h-61zM153 357.001h197c118.667 0 178 49.333 178 148c0 98 -59.333 147 -178 147h-197v-295zM312 765.001l118 171h73l-141 -171h-50z" />
    <glyph glyph-name="racute" unicode="&#x155;" horiz-adv-x="342" 
d="M80 0v485h60v-88c14 30.667 34.333 54 61 70s60.667 25.333 102 28l25 2l6 -53l-43 -5c-47.333 -4 -84 -19.5 -110 -46.5s-39 -63.167 -39 -108.5v-284h-62zM186 550l103 201h70l-127 -201h-46z" />
    <glyph glyph-name="uni0156" unicode="&#x156;" horiz-adv-x="661" 
d="M92 0v705.001h266c75.333 0 132.833 -17.333 172.5 -52s59.5 -84 59.5 -148c0 -52.667 -14.333 -95.334 -43 -128.001s-69.334 -53.667 -122.001 -63c28.667 -10.667 54 -36.667 76 -78l128 -236h-67l-122 226c-17.333 31.333 -36.666 52.333 -57.999 63s-50 16 -86 16
h-143v-305h-61zM153 357.001h197c118.667 0 178 49.333 178 148c0 98 -59.333 147 -178 147h-197v-295zM330 -262.999l-31 22.001c14 15.333 23.667 29.666 29 42.999s8.33301 27.333 9 42h-42v73h84v-57c0 -23.333 -4 -45.5 -12 -66.5s-20.333 -39.833 -37 -56.5z" />
    <glyph glyph-name="uni0157" unicode="&#x157;" horiz-adv-x="342" 
d="M80 0v485h60v-88c14 30.667 34.333 54 61 70s60.667 25.333 102 28l25 2l6 -53l-43 -5c-47.333 -4 -84 -19.5 -110 -46.5s-39 -63.167 -39 -108.5v-284h-62zM104 -263l-31 22.001c14 15.333 23.667 29.666 29 42.999s8.33301 27.333 9 42h-42v73h84v-57
c0 -23.333 -4 -45.5 -12 -66.5s-20.333 -39.833 -37 -56.5z" />
    <glyph glyph-name="Rcaron" unicode="&#x158;" horiz-adv-x="661" 
d="M92 0v705.001h266c75.333 0 132.833 -17.333 172.5 -52s59.5 -84 59.5 -148c0 -52.667 -14.333 -95.334 -43 -128.001s-69.334 -53.667 -122.001 -63c28.667 -10.667 54 -36.667 76 -78l128 -236h-67l-122 226c-17.333 31.333 -36.666 52.333 -57.999 63s-50 16 -86 16
h-143v-305h-61zM153 357.001h197c118.667 0 178 49.333 178 148c0 98 -59.333 147 -178 147h-197v-295zM306 765.001l-122 171h49l104 -126l104 126h49l-122 -171h-62z" />
    <glyph glyph-name="rcaron" unicode="&#x159;" horiz-adv-x="342" 
d="M80 0v485h60v-88c14 30.667 34.333 54 61 70s60.667 25.333 102 28l25 2l6 -53l-43 -5c-47.333 -4 -84 -19.5 -110 -46.5s-39 -63.167 -39 -108.5v-284h-62zM178 550l-109 201h45l95 -155l95 155h45l-109 -201h-62z" />
    <glyph glyph-name="Sacute" unicode="&#x15a;" horiz-adv-x="607" 
d="M312 -8c-54.667 0 -103.832 7.16406 -147.499 21.4971s-81.5 35.5 -113.5 63.5l24 51c34.667 -27.333 70.167 -47.5 106.5 -60.5s79.833 -19.5 130.5 -19.5c63.333 0 110.833 12.333 142.5 37s47.5 57 47.5 97c0 33.333 -11.5 59.333 -34.5 78
s-60.833 33.334 -113.5 44.001l-101 21c-62.667 12.667 -109.5 34 -140.5 64s-46.5 70 -46.5 120c0 40.667 10.5 76.334 31.5 107.001s50.167 54.5 87.5 71.5s80.333 25.5 129 25.5c97.333 0 175 -29.333 233 -88l-24 -50c-30.667 28.667 -62.667 49.5 -96 62.5
s-71 19.5 -113 19.5c-56 0 -100.833 -13.333 -134.5 -40s-50.5 -62.334 -50.5 -107.001c0 -35.333 10.667 -63.166 32 -83.499s55.666 -35.166 102.999 -44.499l102 -21c67.333 -14 117.333 -34.833 150 -62.5s49 -65.5 49 -113.5c0 -38 -10.167 -71.5 -30.5 -100.5
s-49.5 -51.667 -87.5 -68s-83 -24.5 -135 -24.5zM284.002 764.997l118 171h73l-141 -171h-50z" />
    <glyph glyph-name="sacute" unicode="&#x15b;" horiz-adv-x="478" 
d="M238 -8c-36 0 -70.498 5.33496 -103.498 16.002s-60.167 26 -81.5 46l22 45c24.667 -20 51 -34.5 79 -43.5s56.667 -13.5 86 -13.5c41.333 0 72.5 7.5 93.5 22.5s31.5 35.833 31.5 62.5c0 20.667 -7 37 -21 49s-36 21.667 -66 29l-87 20c-82 18.667 -123 61 -123 127
c0 42.667 16.667 77 50 103s77.333 39 132 39c33.333 0 64.666 -5.5 93.999 -16.5s53.333 -26.833 72 -47.5l-24 -45c-19.333 19.333 -41.333 33.833 -66 43.5s-50.334 14.5 -77.001 14.5c-38.667 0 -68.5 -8 -89.5 -24s-31.5 -37.667 -31.5 -65
c0 -20.667 6.33301 -37.334 19 -50.001s33.334 -22.334 62.001 -29.001l87 -20c43.333 -10 75.666 -24.833 96.999 -44.5s32 -46.167 32 -79.5c0 -43.333 -17 -77.333 -51 -102s-79.333 -37 -136 -37zM225.002 550.002l103 201h70l-127 -201h-46z" />
    <glyph glyph-name="Scircumflex" unicode="&#x15c;" horiz-adv-x="607" 
d="M312 -8c-54.667 0 -103.832 7.16406 -147.499 21.4971s-81.5 35.5 -113.5 63.5l24 51c34.667 -27.333 70.167 -47.5 106.5 -60.5s79.833 -19.5 130.5 -19.5c63.333 0 110.833 12.333 142.5 37s47.5 57 47.5 97c0 33.333 -11.5 59.333 -34.5 78
s-60.833 33.334 -113.5 44.001l-101 21c-62.667 12.667 -109.5 34 -140.5 64s-46.5 70 -46.5 120c0 40.667 10.5 76.334 31.5 107.001s50.167 54.5 87.5 71.5s80.333 25.5 129 25.5c97.333 0 175 -29.333 233 -88l-24 -50c-30.667 28.667 -62.667 49.5 -96 62.5
s-71 19.5 -113 19.5c-56 0 -100.833 -13.333 -134.5 -40s-50.5 -62.334 -50.5 -107.001c0 -35.333 10.667 -63.166 32 -83.499s55.666 -35.166 102.999 -44.499l102 -21c67.333 -14 117.333 -34.833 150 -62.5s49 -65.5 49 -113.5c0 -38 -10.167 -71.5 -30.5 -100.5
s-49.5 -51.667 -87.5 -68s-83 -24.5 -135 -24.5zM156.002 764.997l122 171h62l122 -171h-49l-104 126l-104 -126h-49z" />
    <glyph glyph-name="scircumflex" unicode="&#x15d;" horiz-adv-x="478" 
d="M238 -8c-36 0 -70.498 5.33496 -103.498 16.002s-60.167 26 -81.5 46l22 45c24.667 -20 51 -34.5 79 -43.5s56.667 -13.5 86 -13.5c41.333 0 72.5 7.5 93.5 22.5s31.5 35.833 31.5 62.5c0 20.667 -7 37 -21 49s-36 21.667 -66 29l-87 20c-82 18.667 -123 61 -123 127
c0 42.667 16.667 77 50 103s77.333 39 132 39c33.333 0 64.666 -5.5 93.999 -16.5s53.333 -26.833 72 -47.5l-24 -45c-19.333 19.333 -41.333 33.833 -66 43.5s-50.334 14.5 -77.001 14.5c-38.667 0 -68.5 -8 -89.5 -24s-31.5 -37.667 -31.5 -65
c0 -20.667 6.33301 -37.334 19 -50.001s33.334 -22.334 62.001 -29.001l87 -20c43.333 -10 75.666 -24.833 96.999 -44.5s32 -46.167 32 -79.5c0 -43.333 -17 -77.333 -51 -102s-79.333 -37 -136 -37zM108.002 550.002l109 201h62l109 -201h-45l-95 155l-95 -155h-45z" />
    <glyph glyph-name="Scedilla" unicode="&#x15e;" horiz-adv-x="607" 
d="M312 -8c-54.667 0 -103.832 7.16406 -147.499 21.4971s-81.5 35.5 -113.5 63.5l24 51c34.667 -27.333 70.167 -47.5 106.5 -60.5s79.833 -19.5 130.5 -19.5c63.333 0 110.833 12.333 142.5 37s47.5 57 47.5 97c0 33.333 -11.5 59.333 -34.5 78
s-60.833 33.334 -113.5 44.001l-101 21c-62.667 12.667 -109.5 34 -140.5 64s-46.5 70 -46.5 120c0 40.667 10.5 76.334 31.5 107.001s50.167 54.5 87.5 71.5s80.333 25.5 129 25.5c97.333 0 175 -29.333 233 -88l-24 -50c-30.667 28.667 -62.667 49.5 -96 62.5
s-71 19.5 -113 19.5c-56 0 -100.833 -13.333 -134.5 -40s-50.5 -62.334 -50.5 -107.001c0 -35.333 10.667 -63.166 32 -83.499s55.666 -35.166 102.999 -44.499l102 -21c67.333 -14 117.333 -34.833 150 -62.5s49 -65.5 49 -113.5c0 -38 -10.167 -71.5 -30.5 -100.5
s-49.5 -51.667 -87.5 -68s-83 -24.5 -135 -24.5zM317.002 -191.003c-34.667 0 -62.334 6.33301 -83.001 19l11 39c12 -6 23.333 -10.333 34 -13s23.667 -4 39 -4c18 0 32.5 3.5 43.5 10.5s16.5 16.833 16.5 29.5c0 20 -12.667 30 -38 30c-7.33301 0 -14.833 -0.5 -22.5 -1.5
s-16.5 -3.5 -26.5 -7.5l-16 14l14 95h45l-11 -66c8 1.33301 15.333 2 22 2c22.667 0 41.834 -5.83301 57.501 -17.5s23.5 -28.167 23.5 -49.5c0 -24 -10 -43.333 -30 -58s-46.333 -22 -79 -22z" />
    <glyph glyph-name="scedilla" unicode="&#x15f;" horiz-adv-x="478" 
d="M238 -8c-36 0 -70.498 5.33496 -103.498 16.002s-60.167 26 -81.5 46l22 45c24.667 -20 51 -34.5 79 -43.5s56.667 -13.5 86 -13.5c41.333 0 72.5 7.5 93.5 22.5s31.5 35.833 31.5 62.5c0 20.667 -7 37 -21 49s-36 21.667 -66 29l-87 20c-82 18.667 -123 61 -123 127
c0 42.667 16.667 77 50 103s77.333 39 132 39c33.333 0 64.666 -5.5 93.999 -16.5s53.333 -26.833 72 -47.5l-24 -45c-19.333 19.333 -41.333 33.833 -66 43.5s-50.334 14.5 -77.001 14.5c-38.667 0 -68.5 -8 -89.5 -24s-31.5 -37.667 -31.5 -65
c0 -20.667 6.33301 -37.334 19 -50.001s33.334 -22.334 62.001 -29.001l87 -20c43.333 -10 75.666 -24.833 96.999 -44.5s32 -46.167 32 -79.5c0 -43.333 -17 -77.333 -51 -102s-79.333 -37 -136 -37zM242.002 -190.998c-34.667 0 -62.334 6.33301 -83.001 19l11 39
c12 -6 23.333 -10.333 34 -13s23.667 -4 39 -4c18 0 32.5 3.5 43.5 10.5s16.5 16.833 16.5 29.5c0 20 -12.667 30 -38 30c-7.33301 0 -14.833 -0.5 -22.5 -1.5s-16.5 -3.5 -26.5 -7.5l-16 14l14 95h45l-11 -66c8 1.33301 15.333 2 22 2
c22.667 0 41.834 -5.83301 57.501 -17.5s23.5 -28.167 23.5 -49.5c0 -24 -10 -43.333 -30 -58s-46.333 -22 -79 -22z" />
    <glyph glyph-name="Scaron" unicode="&#x160;" horiz-adv-x="607" 
d="M312 -8c-54.667 0 -103.832 7.16406 -147.499 21.4971s-81.5 35.5 -113.5 63.5l24 51c34.667 -27.333 70.167 -47.5 106.5 -60.5s79.833 -19.5 130.5 -19.5c63.333 0 110.833 12.333 142.5 37s47.5 57 47.5 97c0 33.333 -11.5 59.333 -34.5 78
s-60.833 33.334 -113.5 44.001l-101 21c-62.667 12.667 -109.5 34 -140.5 64s-46.5 70 -46.5 120c0 40.667 10.5 76.334 31.5 107.001s50.167 54.5 87.5 71.5s80.333 25.5 129 25.5c97.333 0 175 -29.333 233 -88l-24 -50c-30.667 28.667 -62.667 49.5 -96 62.5
s-71 19.5 -113 19.5c-56 0 -100.833 -13.333 -134.5 -40s-50.5 -62.334 -50.5 -107.001c0 -35.333 10.667 -63.166 32 -83.499s55.666 -35.166 102.999 -44.499l102 -21c67.333 -14 117.333 -34.833 150 -62.5s49 -65.5 49 -113.5c0 -38 -10.167 -71.5 -30.5 -100.5
s-49.5 -51.667 -87.5 -68s-83 -24.5 -135 -24.5zM278.002 764.997l-122 171h49l104 -126l104 126h49l-122 -171h-62z" />
    <glyph glyph-name="scaron" unicode="&#x161;" horiz-adv-x="478" 
d="M238 -8c-36 0 -70.498 5.33496 -103.498 16.002s-60.167 26 -81.5 46l22 45c24.667 -20 51 -34.5 79 -43.5s56.667 -13.5 86 -13.5c41.333 0 72.5 7.5 93.5 22.5s31.5 35.833 31.5 62.5c0 20.667 -7 37 -21 49s-36 21.667 -66 29l-87 20c-82 18.667 -123 61 -123 127
c0 42.667 16.667 77 50 103s77.333 39 132 39c33.333 0 64.666 -5.5 93.999 -16.5s53.333 -26.833 72 -47.5l-24 -45c-19.333 19.333 -41.333 33.833 -66 43.5s-50.334 14.5 -77.001 14.5c-38.667 0 -68.5 -8 -89.5 -24s-31.5 -37.667 -31.5 -65
c0 -20.667 6.33301 -37.334 19 -50.001s33.334 -22.334 62.001 -29.001l87 -20c43.333 -10 75.666 -24.833 96.999 -44.5s32 -46.167 32 -79.5c0 -43.333 -17 -77.333 -51 -102s-79.333 -37 -136 -37zM217.002 550.002l-109 201h45l95 -155l95 155h45l-109 -201h-62z" />
    <glyph glyph-name="uni0162" unicode="&#x162;" horiz-adv-x="594" 
d="M266 0v650h-263v55h588v-55h-263v-650h-62zM301 -191c-34.667 0 -62.334 6.33301 -83.001 19l11 39c12 -6 23.333 -10.333 34 -13s23.667 -4 39 -4c18 0 32.5 3.5 43.5 10.5s16.5 16.833 16.5 29.5c0 20 -12.667 30 -38 30c-7.33301 0 -14.833 -0.5 -22.5 -1.5
s-16.5 -3.5 -26.5 -7.5l-16 14l14 95h45l-11 -66c8 1.33301 15.333 2 22 2c22.667 0 41.834 -5.83301 57.501 -17.5s23.5 -28.167 23.5 -49.5c0 -24 -10 -43.333 -30 -58s-46.333 -22 -79 -22z" />
    <glyph glyph-name="uni0163" unicode="&#x163;" horiz-adv-x="335" 
d="M263 -8c-54 0 -94.501 14.668 -121.501 44.001s-40.5 71.333 -40.5 126v274h-96v49h96v150h61v-150h157v-49h-157v-266c0 -40.667 8.33301 -71.667 25 -93s44.334 -32 83.001 -32c11.333 0 22.333 1.33301 33 4s20 5.66699 28 9l12 -48
c-7.33301 -4.66699 -19 -8.83398 -35 -12.501s-31 -5.5 -45 -5.5zM212.999 -190.999c-34.667 0 -62.334 6.33301 -83.001 19l11 39c12 -6 23.333 -10.333 34 -13s23.667 -4 39 -4c18 0 32.5 3.5 43.5 10.5s16.5 16.833 16.5 29.5c0 20 -12.667 30 -38 30
c-7.33301 0 -14.833 -0.5 -22.5 -1.5s-16.5 -3.5 -26.5 -7.5l-16 14l14 95h45l-11 -66c8 1.33301 15.333 2 22 2c22.667 0 41.834 -5.83301 57.501 -17.5s23.5 -28.167 23.5 -49.5c0 -24 -10 -43.333 -30 -58s-46.333 -22 -79 -22z" />
    <glyph glyph-name="Tcaron" unicode="&#x164;" horiz-adv-x="594" 
d="M266 0v650h-263v55h588v-55h-263v-650h-62zM266 765l-122 171h49l104 -126l104 126h49l-122 -171h-62z" />
    <glyph glyph-name="tcaron" unicode="&#x165;" horiz-adv-x="335" 
d="M263 -8c-54 0 -94.501 14.668 -121.501 44.001s-40.5 71.333 -40.5 126v274h-96v49h96v150h61v-150h157v-49h-157v-266c0 -40.667 8.33301 -71.667 25 -93s44.334 -32 83.001 -32c11.333 0 22.333 1.33301 33 4s20 5.66699 28 9l12 -48
c-7.33301 -4.66699 -19 -8.83398 -35 -12.501s-31 -5.5 -45 -5.5zM235.999 534.001v171h56l-22 -171h-34z" />
    <glyph glyph-name="Tbar" unicode="&#x166;" horiz-adv-x="594" 
d="M266 0v650h-263v55h588v-55h-263v-650h-62zM122 333v50h350v-50h-350z" />
    <glyph glyph-name="tbar" unicode="&#x167;" horiz-adv-x="335" 
d="M263 -8c-54 0 -94.501 14.668 -121.501 44.001s-40.5 71.333 -40.5 126v274h-96v49h96v150h61v-150h157v-49h-157v-266c0 -40.667 8.33301 -71.667 25 -93s44.334 -32 83.001 -32c11.333 0 22.333 1.33301 33 4s20 5.66699 28 9l12 -48
c-7.33301 -4.66699 -19 -8.83398 -35 -12.501s-31 -5.5 -45 -5.5zM27.999 246.001v45h259v-45h-259z" />
    <glyph glyph-name="Utilde" unicode="&#x168;" horiz-adv-x="724" 
d="M362 -8c-90 0 -158.333 24.167 -205 72.5s-70 118.5 -70 210.5v430h61v-425c0 -154.667 71.333 -232 214 -232s214 77.333 214 232v425h61v-430c0 -92 -23.333 -162.167 -70 -210.5s-115 -72.5 -205 -72.5zM199 787l-39.0029 3.00098c4 40.667 16 72 36 94
s45.667 33 77 33c15.333 0 30.833 -3.5 46.5 -10.5s34.167 -18.167 55.5 -33.5c21.333 -14 37.5 -23.667 48.5 -29s21.167 -8 30.5 -8c38.667 0 62.334 28 71.001 84l39 -3c-4 -40.667 -16 -72 -36 -94s-45.333 -33 -76 -33c-15.333 0 -31.166 3.5 -47.499 10.5
s-35.833 18.5 -58.5 34.5c-18.667 13.333 -33.667 22.666 -45 27.999s-21.666 8 -30.999 8c-38 0 -61.667 -28 -71 -84z" />
    <glyph glyph-name="utilde" unicode="&#x169;" horiz-adv-x="553" 
d="M251 -8c-115.333 0 -173 62.667 -173 188v305h61v-302c0 -47.333 9.66699 -82.333 29 -105s49.666 -34 90.999 -34c44.667 0 81.167 15 109.5 45s42.5 70 42.5 120v276h61v-485h-59v86c-16 -30.667 -38.167 -54 -66.5 -70s-60.166 -24 -95.499 -24zM142 593
l-39.0029 2.99707c4 40 14.833 71.167 32.5 93.5s40.834 33.5 69.501 33.5c14 0 27.167 -3.66699 39.5 -11s26.5 -18.666 42.5 -33.999c14.667 -13.333 26.5 -22.666 35.5 -27.999s17.833 -8 26.5 -8c34 0 55 28 63 84l39 -3c-4 -40 -14.833 -71.167 -32.5 -93.5
s-40.5 -33.5 -68.5 -33.5c-13.333 0 -26.166 3.5 -38.499 10.5s-27.166 18.5 -44.499 34.5c-14 12.667 -25.5 21.834 -34.5 27.501s-18.167 8.5 -27.5 8.5c-34 0 -55 -28 -63 -84z" />
    <glyph glyph-name="Umacron" unicode="&#x16a;" horiz-adv-x="724" 
d="M362 -8c-90 0 -158.333 24.167 -205 72.5s-70 118.5 -70 210.5v430h61v-425c0 -154.667 71.333 -232 214 -232s214 77.333 214 232v425h61v-430c0 -92 -23.333 -162.167 -70 -210.5s-115 -72.5 -205 -72.5zM203 818v47h318v-47h-318z" />
    <glyph glyph-name="umacron" unicode="&#x16b;" horiz-adv-x="553" 
d="M251 -8c-115.333 0 -173 62.667 -173 188v305h61v-302c0 -47.333 9.66699 -82.333 29 -105s49.666 -34 90.999 -34c44.667 0 81.167 15 109.5 45s42.5 70 42.5 120v276h61v-485h-59v86c-16 -30.667 -38.167 -54 -66.5 -70s-60.166 -24 -95.499 -24zM133 630v46h288v-46
h-288z" />
    <glyph glyph-name="Ubreve" unicode="&#x16c;" horiz-adv-x="724" 
d="M362 -8c-90 0 -158.333 24.167 -205 72.5s-70 118.5 -70 210.5v430h61v-425c0 -154.667 71.333 -232 214 -232s214 77.333 214 232v425h61v-430c0 -92 -23.333 -162.167 -70 -210.5s-115 -72.5 -205 -72.5zM362 760c-44.667 0 -81.834 15 -111.501 45
s-46.834 71 -51.501 123l42 5c2.66699 -40.667 14.834 -72.167 36.501 -94.5s49.834 -33.5 84.501 -33.5s62.834 11.167 84.501 33.5s33.834 53.833 36.501 94.5l42 -5c-4.66699 -52 -21.834 -93 -51.501 -123s-66.834 -45 -111.501 -45z" />
    <glyph glyph-name="ubreve" unicode="&#x16d;" horiz-adv-x="553" 
d="M251 -8c-115.333 0 -173 62.667 -173 188v305h61v-302c0 -47.333 9.66699 -82.333 29 -105s49.666 -34 90.999 -34c44.667 0 81.167 15 109.5 45s42.5 70 42.5 120v276h61v-485h-59v86c-16 -30.667 -38.167 -54 -66.5 -70s-60.166 -24 -95.499 -24zM277 549
c-43.333 0 -78.1699 16.667 -104.503 50s-41.166 79.333 -44.499 138l42 5c2 -47.333 12.333 -83.833 31 -109.5s44 -38.5 76 -38.5s57.333 12.833 76 38.5s29 62.167 31 109.5l42 -5c-3.33301 -58.667 -18.166 -104.667 -44.499 -138s-61.166 -50 -104.499 -50z" />
    <glyph glyph-name="Uring" unicode="&#x16e;" horiz-adv-x="724" 
d="M362 -8c-90 0 -158.333 24.167 -205 72.5s-70 118.5 -70 210.5v430h61v-425c0 -154.667 71.333 -232 214 -232s214 77.333 214 232v425h61v-430c0 -92 -23.333 -162.167 -70 -210.5s-115 -72.5 -205 -72.5zM362 759c-32.667 0 -60 11 -82 33s-33 48.667 -33 80
s11 58 33 80s49.333 33 82 33s60 -11 82 -33s33 -48.667 33 -80s-11 -58 -33 -80s-49.333 -33 -82 -33zM362 797c22 0 40 7.16699 54 21.5s21 32.166 21 53.499s-7 39.166 -21 53.499s-32 21.5 -54 21.5s-40 -7.16699 -54 -21.5s-21 -32.166 -21 -53.499
s7 -39.166 21 -53.499s32 -21.5 54 -21.5z" />
    <glyph glyph-name="uring" unicode="&#x16f;" horiz-adv-x="553" 
d="M251 -8c-115.333 0 -173 62.667 -173 188v305h61v-302c0 -47.333 9.66699 -82.333 29 -105s49.666 -34 90.999 -34c44.667 0 81.167 15 109.5 45s42.5 70 42.5 120v276h61v-485h-59v86c-16 -30.667 -38.167 -54 -66.5 -70s-60.166 -24 -95.499 -24zM277 548
c-32.667 0 -60 11 -82 33s-33 48.667 -33 80s11 57.833 33 79.5s49.333 32.5 82 32.5s60 -10.833 82 -32.5s33 -48.167 33 -79.5s-11 -58 -33 -80s-49.333 -33 -82 -33zM277 585c22 0 40 7.33301 54 22s21 32.667 21 54s-7 39.166 -21 53.499s-32 21.5 -54 21.5
s-40 -7.16699 -54 -21.5s-21 -32.166 -21 -53.499s7 -39.333 21 -54s32 -22 54 -22z" />
    <glyph glyph-name="Uhungarumlaut" unicode="&#x170;" horiz-adv-x="724" 
d="M362 -8c-90 0 -158.333 24.167 -205 72.5s-70 118.5 -70 210.5v430h61v-425c0 -154.667 71.333 -232 214 -232s214 77.333 214 232v425h61v-430c0 -92 -23.333 -162.167 -70 -210.5s-115 -72.5 -205 -72.5zM285 765l86 171h65l-114 -171h-37zM402 765l88 171h65
l-116 -171h-37z" />
    <glyph glyph-name="uhungarumlaut" unicode="&#x171;" horiz-adv-x="553" 
d="M251 -8c-115.333 0 -173 62.667 -173 188v305h61v-302c0 -47.333 9.66699 -82.333 29 -105s49.666 -34 90.999 -34c44.667 0 81.167 15 109.5 45s42.5 70 42.5 120v276h61v-485h-59v86c-16 -30.667 -38.167 -54 -66.5 -70s-60.166 -24 -95.499 -24zM318 551l56 201h61
l-81 -201h-36zM200 551l56 201h61l-81 -201h-36z" />
    <glyph glyph-name="Uogonek" unicode="&#x172;" horiz-adv-x="724" 
d="M362 -8c-90 0 -158.333 24.167 -205 72.5s-70 118.5 -70 210.5v430h61v-425c0 -154.667 71.333 -232 214 -232s214 77.333 214 232v425h61v-430c0 -92 -23.333 -162.167 -70 -210.5s-115 -72.5 -205 -72.5zM401 -191c-29.333 0 -53.1689 8.50195 -71.502 25.502
s-27.5 40.167 -27.5 69.5c0 25.333 8.16699 49.666 24.5 72.999s38.833 42.333 67.5 57l25 -34c-15.333 -6.66699 -30.666 -17.834 -45.999 -33.501s-23 -34.5 -23 -56.5c0 -20 5.66699 -34.667 17 -44s25.333 -14 42 -14s34.334 4 53.001 12l14 -38
c-18.667 -11.333 -43.667 -17 -75 -17z" />
    <glyph glyph-name="uogonek" unicode="&#x173;" horiz-adv-x="553" 
d="M251 -8c-115.333 0 -173 62.667 -173 188v305h61v-302c0 -47.333 9.66699 -82.333 29 -105s49.666 -34 90.999 -34c44.667 0 81.167 15 109.5 45s42.5 70 42.5 120v276h61v-485h-59v86c-16 -30.667 -38.167 -54 -66.5 -70s-60.166 -24 -95.499 -24zM446 -191
c-29.333 0 -53.1689 8.50195 -71.502 25.502s-27.5 40.167 -27.5 69.5c0 25.333 8.16699 49.666 24.5 72.999s38.833 42.333 67.5 57l25 -34c-15.333 -6.66699 -30.666 -17.834 -45.999 -33.501s-23 -34.5 -23 -56.5c0 -20 5.66699 -34.667 17 -44s25.333 -14 42 -14
s34.334 4 53.001 12l14 -38c-18.667 -11.333 -43.667 -17 -75 -17z" />
    <glyph glyph-name="Wcircumflex" unicode="&#x174;" horiz-adv-x="1096" 
d="M279 0l-245 705h64l211 -614l213 614h52l213 -618l213 618h62l-245 -705h-58l-211 612l-213 -612h-56zM395 765l122 171h62l122 -171h-49l-104 126l-104 -126h-49z" />
    <glyph glyph-name="wcircumflex" unicode="&#x175;" horiz-adv-x="835" 
d="M208 0l-176 485h65l143 -413l149 413h60l146 -414l146 414h63l-177 -485h-63l-146 406l-147 -406h-63zM278 550l109 201h62l109 -201h-45l-95 155l-95 -155h-45z" />
    <glyph glyph-name="Ycircumflex" unicode="&#x176;" horiz-adv-x="586" 
d="M262 0v338l-269 367h72l229 -313l230 313h69l-269 -368v-337h-62zM140 765l122 171h62l122 -171h-49l-104 126l-104 -126h-49z" />
    <glyph glyph-name="ycircumflex" unicode="&#x177;" horiz-adv-x="509" 
d="M142 -180l80 182l-206 483h68l171 -418l173 418h66l-286 -665h-66zM115 550l109 201h62l109 -201h-45l-95 155l-95 -155h-45z" />
    <glyph glyph-name="Ydieresis" unicode="&#x178;" horiz-adv-x="586" 
d="M262 0v338l-269 367h72l229 -313l230 313h69l-269 -368v-337h-62zM340 813v73h73v-73h-73zM173 813v73h73v-73h-73z" />
    <glyph glyph-name="Zacute" unicode="&#x179;" horiz-adv-x="582" 
d="M49 0v45l420 605h-420v55h496v-45l-420 -605h434v-55h-510zM278 765l118 171h73l-141 -171h-50z" />
    <glyph glyph-name="zacute" unicode="&#x17a;" horiz-adv-x="459" 
d="M57 0v42l290 394h-290v49h359v-42l-289 -394h300v-49h-370zM214 550l103 201h70l-127 -201h-46z" />
    <glyph glyph-name="Zdotaccent" unicode="&#x17b;" horiz-adv-x="582" 
d="M49 0v45l420 605h-420v55h496v-45l-420 -605h434v-55h-510zM265 813v75h76v-75h-76z" />
    <glyph glyph-name="zdotaccent" unicode="&#x17c;" horiz-adv-x="459" 
d="M57 0v42l290 394h-290v49h359v-42l-289 -394h300v-49h-370zM198 614v75h78v-75h-78z" />
    <glyph glyph-name="Zcaron" unicode="&#x17d;" horiz-adv-x="582" 
d="M49 0v45l420 605h-420v55h496v-45l-420 -605h434v-55h-510zM272 765l-122 171h49l104 -126l104 126h49l-122 -171h-62z" />
    <glyph glyph-name="zcaron" unicode="&#x17e;" horiz-adv-x="459" 
d="M57 0v42l290 394h-290v49h359v-42l-289 -394h300v-49h-370zM206 550l-109 201h45l95 -155l95 155h45l-109 -201h-62z" />
    <glyph glyph-name="uni0181" unicode="&#x181;" horiz-adv-x="783" 
d="M204 0l-0.00195312 654.001h-35c-39.333 0 -68.333 -9.16699 -87 -27.5s-28 -46.833 -28 -85.5v-43h-54v46c0 53.333 14.5 93.5 43.5 120.5s74.167 40.5 135.5 40.5h294c72 0 127.833 -16 167.5 -48s59.5 -77.667 59.5 -137c0 -38.667 -10.167 -71.667 -30.5 -99
s-48.5 -47.333 -84.5 -60c40.667 -10 72.834 -29.5 96.501 -58.5s35.5 -65.833 35.5 -110.5c0 -62.667 -20.167 -110.334 -60.5 -143.001s-97.166 -49 -170.499 -49h-282zM263.998 383.001h202c56 0 98.667 11.5 128 34.5s44 56.5 44 100.5s-14.667 77.5 -44 100.5
s-72 34.5 -128 34.5h-202v-270zM263.998 52.001h217c115.333 0 173 46.333 173 139c0 48 -14.333 83.333 -43 106s-72 34 -130 34h-217v-279z" />
    <glyph glyph-name="uni018A" unicode="&#x18a;" horiz-adv-x="846" 
d="M204 0v654h-35c-39.333 0 -68.333 -9.16699 -87 -27.5s-28 -46.833 -28 -85.5v-43h-54v46c0 107.333 56.667 161 170 161h261c112 0 198.5 -30 259.5 -90s91.5 -147.333 91.5 -262s-30.5 -202.167 -91.5 -262.5s-147.5 -90.5 -259.5 -90.5h-227zM266 54h160
c194 0 291 99.667 291 299c0 198.667 -97 298 -291 298h-160v-597z" />
    <glyph glyph-name="uni018F" unicode="&#x18f;" horiz-adv-x="759" 
d="M385 -8c-71.333 0 -130.831 14.8311 -178.498 44.498s-83.334 71.334 -107.001 125.001s-35.5 116.834 -35.5 189.501v32h565c-5.33301 87.333 -31.666 154.833 -78.999 202.5s-112.666 71.5 -195.999 71.5c-50.667 0 -94.334 -6.66699 -131.001 -20s-72 -35 -106 -65
l-26 49c66.667 61.333 155.667 92 267 92c69.333 0 129.166 -14.333 179.499 -43s89.166 -70 116.499 -124s41 -118.333 41 -193s-12.833 -139 -38.5 -193s-61.667 -95.5 -108 -124.5s-100.833 -43.5 -163.5 -43.5zM382.002 46.998c74 0 132.835 24.5 176.502 73.5
s67.167 118.5 70.5 208.5h-501c3.33301 -92 26.166 -162 68.499 -210s104.166 -72 185.499 -72z" />
    <glyph glyph-name="florin" unicode="&#x192;" horiz-adv-x="600" 
d="M45 -188l0.00292969 51.001h43c31.333 0 56.833 8 76.5 24s34.167 45 43.5 87l98 462h-126v49h137l14 69c10.667 51.333 30.334 90.666 59.001 117.999s68.667 41 120 41h43v-53h-40c-32.667 0 -58.834 -7.66699 -78.501 -23s-33.834 -44.333 -42.501 -87l-14 -65h128
v-49h-138l-100 -466c-10.667 -50.667 -30.334 -89.667 -59.001 -117s-68.334 -41 -119.001 -41h-45z" />
    <glyph glyph-name="Ohorn" unicode="&#x1a0;" horiz-adv-x="759" 
d="M379 -8c-64.667 0 -120.499 14.667 -167.499 44s-83.333 71 -109 125s-38.5 118 -38.5 192s12.667 138 38 192s61.666 95.5 108.999 124.5s103.333 43.5 168 43.5c65.333 0 121.5 -14.5 168.5 -43.5s83.333 -70.333 109 -124s38.5 -117.5 38.5 -191.5
c0 -74.667 -12.833 -139 -38.5 -193s-62.167 -95.667 -109.5 -125s-103.333 -44 -168 -44zM379.001 48c79.333 0 141 26.667 185 80s66 128.333 66 225s-21.833 171.5 -65.5 224.5s-105.5 79.5 -185.5 79.5c-79.333 0 -140.833 -26.667 -184.5 -80s-65.5 -128 -65.5 -224
s21.833 -170.833 65.5 -224.5s105.167 -80.5 184.5 -80.5zM486.001 661l-52.001 48.001c34.667 -2.66699 64.334 -4 89.001 -4c45.333 0 75.833 9.66699 91.5 29s23.5 48.666 23.5 87.999v14h55v-24c0 -46 -12.667 -82.667 -38 -110s-60.333 -41 -105 -41h-64z" />
    <glyph glyph-name="ohorn" unicode="&#x1a1;" horiz-adv-x="547" 
d="M273 -8c-45.333 0 -84.666 10.167 -117.999 30.5s-59.166 49.333 -77.499 87s-27.5 82.167 -27.5 133.5c0 50.667 9.16699 94.834 27.5 132.501s44.166 66.834 77.499 87.501s72.666 31 117.999 31c46 0 85.667 -10.333 119 -31s59.166 -49.834 77.499 -87.501
s27.5 -81.834 27.5 -132.501c0 -51.333 -9.16699 -95.833 -27.5 -133.5s-44.166 -66.667 -77.499 -87s-73 -30.5 -119 -30.5zM273 43c49.333 0 88.666 17.5 117.999 52.5s44 84.167 44 147.5s-14.667 112.333 -44 147s-68.666 52 -117.999 52s-88.5 -17.333 -117.5 -52
s-43.5 -83.667 -43.5 -147s14.5 -112.5 43.5 -147.5s68.167 -52.5 117.5 -52.5zM350 441l-28 21v23c45.333 0.666992 75.833 10.667 91.5 30s23.5 48.333 23.5 87v14h56v-24c0 -46 -12.333 -82 -37 -108s-60 -40.333 -106 -43z" />
    <glyph glyph-name="Uhorn" unicode="&#x1af;" horiz-adv-x="724" 
d="M362 -8c-90 0 -158.333 24.167 -205 72.5s-70 118.5 -70 210.5v430h61v-425c0 -154.667 71.333 -232 214 -232s214 77.333 214 232v425h61v-430c0 -92 -23.333 -162.167 -70 -210.5s-115 -72.5 -205 -72.5zM613 661l-28 20v24c45.333 0.666992 75.833 10.667 91.5 30
s23.5 48.333 23.5 87v14h56v-24c0 -46 -12.333 -82 -37 -108s-60 -40.333 -106 -43z" />
    <glyph glyph-name="uhorn" unicode="&#x1b0;" horiz-adv-x="553" 
d="M251 -8c-115.333 0 -173 62.667 -173 188v305h61v-302c0 -47.333 9.66699 -82.333 29 -105s49.666 -34 90.999 -34c44.667 0 81.167 15 109.5 45s42.5 70 42.5 120v276h61v-485h-59v86c-16 -30.667 -38.167 -54 -66.5 -70s-60.166 -24 -95.499 -24zM448 441l-28 21v23
c45.333 0.666992 75.833 10.667 91.5 30s23.5 48.333 23.5 87v14h56v-24c0 -46 -12.333 -82 -37 -108s-60 -40.333 -106 -43z" />
    <glyph glyph-name="uni01B3" unicode="&#x1b3;" horiz-adv-x="610" 
d="M262 0v338.001l-269 367h72l230 -314l173 247c18.667 26 38.667 44.833 60 56.5s45 17.5 71 17.5c20.667 0 38.667 -2.66699 54 -8v-49c-6.66699 2.66699 -13.667 4.66699 -21 6s-16 2 -26 2c-16.667 0 -32.167 -3.83301 -46.5 -11.5s-28.5 -20.834 -42.5 -39.501
l-193 -274v-338h-62z" />
    <glyph glyph-name="uni01B4" unicode="&#x1b4;" horiz-adv-x="542" 
d="M393 398c13.333 32 30.168 56 50.501 72s47.166 24 80.499 24c20.667 0 38.667 -2.66699 54 -8l-9 -50c-6 2 -12.333 3.5 -19 4.5s-12.667 1.5 -18 1.5c-21.333 0 -38.5 -5.66699 -51.5 -17s-26.167 -32.333 -39.5 -63l-233 -542h-66l80 182l-206 483h68l171 -418z" />
    <glyph glyph-name="uni01C4" unicode="&#x1c4;" horiz-adv-x="1300" 
d="M92 0v705h227c112 0 198.5 -30 259.5 -90s91.5 -147.333 91.5 -262s-30.5 -202.167 -91.5 -262.5s-147.5 -90.5 -259.5 -90.5h-227zM153 54h161c193.333 0 290 99.667 290 299c0 198.667 -96.667 298 -290 298h-161v-597zM767 0v45l420 605h-420v55h496v-45l-420 -605
h434v-55h-510zM990 765l-122 171h49l104 -126l104 126h49l-122 -171h-62z" />
    <glyph glyph-name="uni01C5" unicode="&#x1c5;" horiz-adv-x="1192" 
d="M92 0v705h227c112 0 198.5 -30 259.5 -90s91.5 -147.333 91.5 -262s-30.5 -202.167 -91.5 -262.5s-147.5 -90.5 -259.5 -90.5h-227zM153 54h161c193.333 0 290 99.667 290 299c0 198.667 -96.667 298 -290 298h-161v-597zM790 0v42l290 394h-290v49h359v-42l-289 -394
h300v-49h-370zM939 550l-109 201h45l95 -155l95 155h45l-109 -201h-62z" />
    <glyph glyph-name="uni01C6" unicode="&#x1c6;" horiz-adv-x="1034" 
d="M265 -8c-44 0 -82.001 10.168 -114.001 30.501s-56.833 49.333 -74.5 87s-26.5 82.167 -26.5 133.5c0 76.667 19.333 137.667 58 183s91 68 157 68c38.667 0 72.834 -8.83301 102.501 -26.5s51.834 -41.834 66.501 -72.501v310h61v-705h-60v92
c-14.667 -31.333 -36.834 -55.833 -66.501 -73.5s-64.167 -26.5 -103.5 -26.5zM272.999 43.001c49.333 0 88.666 17.5 117.999 52.5s44 84.167 44 147.5s-14.667 112.333 -44 147s-68.666 52 -117.999 52s-88.5 -17.333 -117.5 -52s-43.5 -83.667 -43.5 -147
s14.5 -112.5 43.5 -147.5s68.167 -52.5 117.5 -52.5zM631.999 0.000976562v42l290 394h-290v49h359v-42l-289 -394h300v-49h-370zM780.999 550.001l-109 201h45l95 -155l95 155h45l-109 -201h-62z" />
    <glyph glyph-name="uni01C7" unicode="&#x1c7;" horiz-adv-x="885" 
d="M92 0v705h61v-650h368v-55h-429zM570 -7l-4.99902 54l56 4c35.333 2.66699 62.666 15.667 81.999 39s29 54.333 29 93v522h62v-523c0 -55.333 -14.333 -99 -43 -131s-70 -50 -124 -54z" />
    <glyph glyph-name="uni01C8" unicode="&#x1c8;" horiz-adv-x="760" 
d="M92 0v705h61v-650h368v-55h-429zM608 613v77h82v-77h-82zM482 -193l-4 50.001l42 4c66 5.33301 99 45.333 99 120v504h61v-499c0 -110.667 -51.667 -169.334 -155 -176.001z" />
    <glyph glyph-name="uni01C9" unicode="&#x1c9;" horiz-adv-x="510" 
d="M221 -8c-45.333 0 -80.167 13.833 -104.5 41.5s-36.5 67.5 -36.5 119.5v552h61v-545c0 -76.667 30 -115 90 -115c16.667 0 32 2 46 6l-2 -53c-19.333 -4 -37.333 -6 -54 -6zM357.999 613v77h82v-77h-82zM231.999 -193l-4 50.001l42 4c66 5.33301 99 45.333 99 120v504h61
v-499c0 -110.667 -51.667 -169.334 -155 -176.001z" />
    <glyph glyph-name="uni01CA" unicode="&#x1ca;" horiz-adv-x="1046" 
d="M92 0v705h49l446 -601v601h57v-705h-48l-447 602v-602h-57zM731 -7l-4.99902 54l56 4c35.333 2.66699 62.666 15.667 81.999 39s29 54.333 29 93v522h62v-523c0 -55.333 -14.333 -99 -43 -131s-70 -50 -124 -54z" />
    <glyph glyph-name="uni01CB" unicode="&#x1cb;" horiz-adv-x="961" 
d="M92 0v705h49l446 -601v601h57v-705h-48l-447 602v-602h-57zM809 613v77h82v-77h-82zM683 -193l-4 50.001l42 4c66 5.33301 99 45.333 99 120v504h61v-499c0 -110.667 -51.667 -169.334 -155 -176.001z" />
    <glyph glyph-name="uni01CC" unicode="&#x1cc;" horiz-adv-x="785" 
d="M80 0v485h60v-87c16 32 39 56 69 72s63.333 24 100 24c115.333 0 173 -62.667 173 -188v-306h-61v301c0 48 -9.66699 83.333 -29 106s-50 34 -92 34c-48 0 -86.5 -14.833 -115.5 -44.5s-43.5 -69.5 -43.5 -119.5v-277h-61zM633 613v77h82v-77h-82zM507 -193l-4 50.001
l42 4c66 5.33301 99 45.333 99 120v504h61v-499c0 -110.667 -51.667 -169.334 -155 -176.001z" />
    <glyph glyph-name="uni01CD" unicode="&#x1cd;" horiz-adv-x="722" 
d="M27 0l307 705h55l306 -705h-64l-81 188h-378l-80 -188h-65zM360 629l-165 -388h332l-165 388h-2zM331 765l-122 171h49l104 -126l104 126h49l-122 -171h-62z" />
    <glyph glyph-name="uni01CE" unicode="&#x1ce;" horiz-adv-x="522" 
d="M230 -8c-32.667 0 -61.835 6.33398 -87.502 19.001s-46 30 -61 52s-22.5 46.667 -22.5 74c0 36 9 64.167 27 84.5s48.333 34.833 91 43.5s101.334 13 176.001 13h31v36c0 44.667 -9 77.167 -27 97.5s-46.667 30.5 -86 30.5c-29.333 0 -57.5 -4.33301 -84.5 -13
s-54.833 -22.334 -83.5 -41.001l-24 47c25.333 18 55.333 32.333 90 43s68.334 16 101.001 16c58.667 0 102.167 -15 130.5 -45s42.5 -76 42.5 -138v-311h-58v87c-13.333 -30 -33.5 -53.333 -60.5 -70s-58.5 -25 -94.5 -25zM237.999 41.001
c28.667 0 53.832 6.83105 75.499 20.498s38.834 32.5 51.501 56.5s19 51.333 19 82v33h-30c-60 0 -106.833 -2.66699 -140.5 -8s-57.167 -14.666 -70.5 -27.999s-20 -31.666 -20 -54.999c0 -30 10.333 -54.333 31 -73s48.667 -28 84 -28zM236.997 549.999l-109 201h45
l95 -155l95 155h45l-109 -201h-62z" />
    <glyph glyph-name="uni01D4" unicode="&#x1d4;" horiz-adv-x="553" 
d="M251 -8c-115.333 0 -173 62.667 -173 188v305h61v-302c0 -47.333 9.66699 -82.333 29 -105s49.666 -34 90.999 -34c44.667 0 81.167 15 109.5 45s42.5 70 42.5 120v276h61v-485h-59v86c-16 -30.667 -38.167 -54 -66.5 -70s-60.166 -24 -95.499 -24zM246 551l-109 201h45
l95 -155l95 155h45l-109 -201h-62z" />
    <glyph glyph-name="uni01E5" unicode="&#x1e5;" horiz-adv-x="578" 
d="M291 -188c-84.667 0 -155.001 22.334 -211.001 67.001l23 46c30.667 -22 60.334 -37.667 89.001 -47s61 -14 97 -14c66.667 0 111 24.667 133 74h-113v46h126c2 11.333 3 23 3 35v114c-14 -31.333 -35.667 -55.666 -65 -72.999s-64.333 -26 -105 -26
c-43.333 0 -81.5 9.66699 -114.5 29s-58.5 46.333 -76.5 81s-27 74.667 -27 120s9 85.166 27 119.499s43.5 61.333 76.5 81s71.167 29.5 114.5 29.5c40 0 74.667 -8.5 104 -25.5s51 -41.167 65 -72.5v89h60v-457c0 -14.667 -0.666992 -29.334 -2 -44.001h73v-46h-83
c-25.333 -84 -90 -126 -194 -126zM274.999 86.001c50 0 89.5 16 118.5 48s43.5 75.333 43.5 130s-14.5 98 -43.5 130s-68.5 48 -118.5 48s-89.667 -15.833 -119 -47.5s-44 -75.167 -44 -130.5s14.667 -98.833 44 -130.5s69 -47.5 119 -47.5z" />
    <glyph glyph-name="Gcaron" unicode="&#x1e6;" horiz-adv-x="722" 
d="M405 -8c-111.333 0 -195.999 31.666 -253.999 94.999s-87 152 -87 266c0 74 12.833 138 38.5 192s62.667 95.5 111 124.5s106.833 43.5 175.5 43.5c102 0 183.333 -30.333 244 -91l-27 -50c-32.667 30 -66.334 51.5 -101.001 64.5s-73.667 19.5 -117 19.5
c-83.333 0 -147.333 -26.5 -192 -79.5s-67 -127.5 -67 -223.5c0 -99.333 23.167 -175 69.5 -227s115.5 -78 207.5 -78c62.667 0 121 10.667 175 32v229h-187v52h242v-321c-17.333 -9.33301 -38.833 -17.666 -64.5 -24.999s-53 -13 -82 -17s-57.167 -6 -84.5 -6z
M356.001 764.999l-122 171h49l104 -126l104 126h49l-122 -171h-62z" />
    <glyph glyph-name="gcaron" unicode="&#x1e7;" horiz-adv-x="578" 
d="M291 -188c-84.667 0 -155.001 22.333 -211.001 67l23 46c30.667 -22 60.334 -37.833 89.001 -47.5s61 -14.5 97 -14.5c48.667 0 85.667 13.333 111 40s38 65.334 38 116.001v94c-14 -32 -36.167 -57 -66.5 -75s-64.833 -27 -103.5 -27
c-45.333 0 -84.166 10.167 -116.499 30.5s-57.333 48.666 -75 84.999s-26.5 78.5 -26.5 126.5s8.83301 90 26.5 126s42.667 64.167 75 84.5s71.166 30.5 116.499 30.5c38.667 0 73 -9 103 -27s52 -42.667 66 -74v92h60v-457c0 -144 -68.667 -216 -206 -216zM274.999 63
c50 0 89.667 17.167 119 51.5s44 80.5 44 138.5s-14.667 104 -44 138s-69 51 -119 51c-50.667 0 -90.5 -17 -119.5 -51s-43.5 -80 -43.5 -138s14.5 -104.167 43.5 -138.5s68.833 -51.5 119.5 -51.5zM259.999 550l-109 201h45l95 -155l95 155h45l-109 -201h-62z" />
    <glyph glyph-name="uni01E9" unicode="&#x1e9;" horiz-adv-x="484" 
d="M80 0v705h61v-440h2l239 220h81l-255 -234l279 -251h-81l-263 233h-2v-233h-61zM251 765l-122 171h49l104 -126l104 126h49l-122 -171h-62z" />
    <glyph glyph-name="uni01EA" unicode="&#x1ea;" horiz-adv-x="759" 
d="M379 -8c-64.667 0 -120.499 14.667 -167.499 44s-83.333 71 -109 125s-38.5 118 -38.5 192s12.667 138 38 192s61.666 95.5 108.999 124.5s103.333 43.5 168 43.5c65.333 0 121.5 -14.5 168.5 -43.5s83.333 -70.333 109 -124s38.5 -117.5 38.5 -191.5
c0 -74.667 -12.833 -139 -38.5 -193s-62.167 -95.667 -109.5 -125s-103.333 -44 -168 -44zM379.001 48c79.333 0 141 26.667 185 80s66 128.333 66 225s-21.833 171.5 -65.5 224.5s-105.5 79.5 -185.5 79.5c-79.333 0 -140.833 -26.667 -184.5 -80s-65.5 -128 -65.5 -224
s21.833 -170.833 65.5 -224.5s105.167 -80.5 184.5 -80.5zM417.001 -191c-29.333 0 -53.1689 8.50195 -71.502 25.502s-27.5 40.167 -27.5 69.5c0 25.333 8.16699 49.666 24.5 72.999s38.833 42.333 67.5 57l25 -34c-15.333 -6.66699 -30.666 -17.834 -45.999 -33.501
s-23 -34.5 -23 -56.5c0 -20 5.66699 -34.667 17 -44s25.333 -14 42 -14s34.334 4 53.001 12l14 -38c-18.667 -11.333 -43.667 -17 -75 -17z" />
    <glyph glyph-name="uni01EB" unicode="&#x1eb;" horiz-adv-x="547" 
d="M273 -8c-45.333 0 -84.666 10.167 -117.999 30.5s-59.166 49.333 -77.499 87s-27.5 82.167 -27.5 133.5c0 50.667 9.16699 94.834 27.5 132.501s44.166 66.834 77.499 87.501s72.666 31 117.999 31c46 0 85.667 -10.333 119 -31s59.166 -49.834 77.499 -87.501
s27.5 -81.834 27.5 -132.501c0 -51.333 -9.16699 -95.833 -27.5 -133.5s-44.166 -66.667 -77.499 -87s-73 -30.5 -119 -30.5zM273 43c49.333 0 88.666 17.5 117.999 52.5s44 84.167 44 147.5s-14.667 112.333 -44 147s-68.666 52 -117.999 52s-88.5 -17.333 -117.5 -52
s-43.5 -83.667 -43.5 -147s14.5 -112.5 43.5 -147.5s68.167 -52.5 117.5 -52.5zM314 -191c-29.333 0 -53.1689 8.50195 -71.502 25.502s-27.5 40.167 -27.5 69.5c0 25.333 8.16699 49.666 24.5 72.999s38.833 42.333 67.5 57l25 -34
c-15.333 -6.66699 -30.666 -17.834 -45.999 -33.501s-23 -34.5 -23 -56.5c0 -20 5.66699 -34.667 17 -44s25.333 -14 42 -14s34.334 4 53.001 12l14 -38c-18.667 -11.333 -43.667 -17 -75 -17z" />
    <glyph glyph-name="uni01EF" unicode="&#x1ef;" horiz-adv-x="485" 
d="M226 -188c-43.333 0 -82.6689 5.33203 -118.002 15.999s-64.666 25.667 -87.999 45l24 46c46.667 -37.333 106.334 -56 179.001 -56c55.333 0 97 13.333 125 40s42 65.334 42 116.001c0 44 -13.667 78.333 -41 103s-66 37 -116 37h-106v31l218 244h-308v51h384v-42
l-211 -236h32c66 0 117.5 -16.333 154.5 -49s55.5 -78.667 55.5 -138c0 -64.667 -20 -115.5 -60 -152.5s-95.333 -55.5 -166 -55.5zM197.997 549.999l-109 201h45l95 -155l95 155h45l-109 -201h-62z" />
    <glyph glyph-name="Aringacute" unicode="&#x1fa;" horiz-adv-x="722" 
d="M27 0l307 705h55l306 -705h-64l-81 188h-378l-80 -188h-65zM360 629l-165 -388h332l-165 388h-2zM362 759c-32 0 -59 10.832 -81 32.499s-33 48.167 -33 79.5c0 30.667 11 56.834 33 78.501s49 32.5 81 32.5c24.667 0 47 -7 67 -21l74 69h69l-115 -97
c12.667 -18 19 -38.667 19 -62c0 -31.333 -11 -57.833 -33 -79.5s-49 -32.5 -81 -32.5zM362 794.999c22 0 40 7.33301 54 22s21 32.667 21 54c0 20.667 -7 38.334 -21 53.001s-32 22 -54 22s-40 -7.33301 -54 -22s-21 -32.334 -21 -53.001c0 -21.333 7 -39.333 21 -54
s32 -22 54 -22z" />
    <glyph glyph-name="aringacute" unicode="&#x1fb;" horiz-adv-x="522" 
d="M230 -8c-32.667 0 -61.835 6.33398 -87.502 19.001s-46 30 -61 52s-22.5 46.667 -22.5 74c0 36 9 64.167 27 84.5s48.333 34.833 91 43.5s101.334 13 176.001 13h31v36c0 44.667 -9 77.167 -27 97.5s-46.667 30.5 -86 30.5c-29.333 0 -57.5 -4.33301 -84.5 -13
s-54.833 -22.334 -83.5 -41.001l-24 47c25.333 18 55.333 32.333 90 43s68.334 16 101.001 16c58.667 0 102.167 -15 130.5 -45s42.5 -76 42.5 -138v-311h-58v87c-13.333 -30 -33.5 -53.333 -60.5 -70s-58.5 -25 -94.5 -25zM237.999 41.001
c28.667 0 53.832 6.83105 75.499 20.498s38.834 32.5 51.501 56.5s19 51.333 19 82v33h-30c-60 0 -106.833 -2.66699 -140.5 -8s-57.167 -14.666 -70.5 -27.999s-20 -31.666 -20 -54.999c0 -30 10.333 -54.333 31 -73s48.667 -28 84 -28zM267.997 545.999
c-32 0 -59 10.833 -81 32.5s-33 47.834 -33 78.501c0 31.333 11 57.833 33 79.5s49 32.5 81 32.5c24.667 0 47 -7 67 -21l74 68h69l-115 -97c12.667 -18 19 -38.667 19 -62c0 -30.667 -11 -56.834 -33 -78.501s-49 -32.5 -81 -32.5zM267.997 581.999
c22 0 40 7.16699 54 21.5s21 32.166 21 53.499s-7 39.166 -21 53.499s-32 21.5 -54 21.5s-40 -7.16699 -54 -21.5s-21 -32.166 -21 -53.499s7 -39.166 21 -53.499s32 -21.5 54 -21.5z" />
    <glyph glyph-name="AEacute" unicode="&#x1fc;" horiz-adv-x="976" 
d="M-7 0l424 705h509v-53h-439l56 -268h362v-53h-350l59 -278h312v-53h-358l-40 188h-356l-111 -188h-68zM433 628l-229 -387h313l-82 387h-2zM461 765l118 171h73l-141 -171h-50z" />
    <glyph glyph-name="aeacute" unicode="&#x1fd;" horiz-adv-x="859" 
d="M234 -8c-34 0 -64 6.33398 -90 19.001s-46.667 30 -62 52s-23 46.667 -23 74c0 36 9.16699 64.167 27.5 84.5s49 34.833 92 43.5s101.167 13 174.5 13h35v34c0 45.333 -9.5 78.333 -28.5 99s-47.833 31 -86.5 31c-30.667 0 -59.5 -4.16699 -86.5 -12.5
s-54.833 -21.833 -83.5 -40.5l-24 46c25.333 18 55.333 32.333 90 43s69 16 103 16c84.667 0 138.334 -33.667 161.001 -101c18.667 32.667 43.667 57.667 75 75s66.666 26 105.999 26c62 0 110.833 -21 146.5 -63s53.5 -99.667 53.5 -173v-25h-366
c2 -60.667 17.833 -107.5 47.5 -140.5s72.167 -49.5 127.5 -49.5c57.333 0 110.666 20.333 159.999 61l23 -46c-21.333 -20.667 -48.5 -36.834 -81.5 -48.501s-65.833 -17.5 -98.5 -17.5c-51.333 0 -95 10.667 -131 32s-62.667 53.333 -80 96
c-13.333 -40 -35.666 -71.333 -66.999 -94s-69.333 -34 -114 -34zM612 445.001c-46.667 0 -84.332 -15 -112.999 -45s-45.334 -70.667 -50.001 -122h311c-2 51.333 -15.5 92 -40.5 122s-60.833 45 -107.5 45zM240.002 41.001c44 0 79.666 15.5 106.999 46.5
s41 70.5 41 118.5v27h-34c-60 0 -106.833 -2.66699 -140.5 -8s-57.167 -14.5 -70.5 -27.5s-20 -31.5 -20 -55.5c0 -30 10.333 -54.333 31 -73s49.334 -28 86.001 -28zM393.001 550.001l103 201h70l-127 -201h-46z" />
    <glyph glyph-name="Oslashacute" unicode="&#x1fe;" horiz-adv-x="759" 
d="M379 -8c-64.667 0 -120.499 14.667 -167.499 44s-83.333 71 -109 125s-38.5 118 -38.5 192s12.667 138 38 192s61.666 95.5 108.999 124.5s103.333 43.5 168 43.5c65.333 0 121.5 -14.5 168.5 -43.5s83.333 -70.333 109 -124s38.5 -117.5 38.5 -191.5
c0 -74.667 -12.833 -139 -38.5 -193s-62.167 -95.667 -109.5 -125s-103.333 -44 -168 -44zM379.001 48c79.333 0 141 26.667 185 80s66 128.333 66 225s-21.833 171.5 -65.5 224.5s-105.5 79.5 -185.5 79.5c-79.333 0 -140.833 -26.667 -184.5 -80s-65.5 -128 -65.5 -224
s21.833 -170.833 65.5 -224.5s105.167 -80.5 184.5 -80.5zM180.001 -41l-45 25l50 86l19 31l310 532l16 28l49 85l45 -25l-50 -86l-18 -31l-310 -532l-16 -28zM354.001 765l118 171h73l-141 -171h-50z" />
    <glyph glyph-name="oslashacute" unicode="&#x1ff;" horiz-adv-x="547" 
d="M134 -44l-38.998 23.999l35 61c-26 21.333 -45.833 49.166 -59.5 83.499s-20.5 73.833 -20.5 118.5c0 50.667 9.16699 94.834 27.5 132.501s44.166 66.834 77.499 87.501s72.666 31 117.999 31c39.333 0 74.666 -8 105.999 -24l34 59l39 -24l-35 -60
c25.333 -22 45 -50.167 59 -84.5s21 -73.5 21 -117.5c0 -51.333 -9.16699 -95.833 -27.5 -133.5s-44.166 -66.667 -77.499 -87s-73 -30.5 -119 -30.5c-39.333 0 -74.333 7.66699 -105 23zM112.002 242.999c0 -66 15.667 -116.667 47 -152l193 332
c-22.667 12.667 -49 19 -79 19c-49.333 0 -88.5 -17.333 -117.5 -52s-43.5 -83.667 -43.5 -147zM273.002 42.999c49.333 0 88.667 17.501 118 52.501s44 84.167 44 147.5c0 65.333 -15.667 115.666 -47 150.999l-193 -332c22.667 -12.667 48.667 -19 78 -19zM250.003 550
l103 201h70l-127 -201h-46z" />
    <glyph glyph-name="uni0200" unicode="&#x200;" horiz-adv-x="722" 
d="M27 0l307 705h55l306 -705h-64l-81 188h-378l-80 -188h-65zM360 629l-165 -388h332l-165 388h-2zM402 765l-114 171h66l85 -171h-37zM285 765l-116 171h66l87 -171h-37z" />
    <glyph glyph-name="uni0201" unicode="&#x201;" horiz-adv-x="522" 
d="M230 -8c-32.667 0 -61.835 6.33398 -87.502 19.001s-46 30 -61 52s-22.5 46.667 -22.5 74c0 36 9 64.167 27 84.5s48.333 34.833 91 43.5s101.334 13 176.001 13h31v36c0 44.667 -9 77.167 -27 97.5s-46.667 30.5 -86 30.5c-29.333 0 -57.5 -4.33301 -84.5 -13
s-54.833 -22.334 -83.5 -41.001l-24 47c25.333 18 55.333 32.333 90 43s68.334 16 101.001 16c58.667 0 102.167 -15 130.5 -45s42.5 -76 42.5 -138v-311h-58v87c-13.333 -30 -33.5 -53.333 -60.5 -70s-58.5 -25 -94.5 -25zM237.999 41.001
c28.667 0 53.832 6.83105 75.499 20.498s38.834 32.5 51.501 56.5s19 51.333 19 82v33h-30c-60 0 -106.833 -2.66699 -140.5 -8s-57.167 -14.666 -70.5 -27.999s-20 -31.666 -20 -54.999c0 -30 10.333 -54.333 31 -73s48.667 -28 84 -28zM308.997 549.999l-81 201h61
l56 -201h-36zM191.997 549.999l-82 201h61l56 -201h-35z" />
    <glyph glyph-name="uni0202" unicode="&#x202;" horiz-adv-x="722" 
d="M27 0l307 705h55l306 -705h-64l-81 188h-378l-80 -188h-65zM360 629l-165 -388h332l-165 388h-2zM241 760l-42 5c4.66699 52 21.834 93 51.501 123s66.834 45 111.501 45s81.834 -15 111.501 -45s46.834 -71 51.501 -123l-42 -5
c-2.66699 40.667 -14.834 72.167 -36.501 94.5s-49.834 33.5 -84.501 33.5s-62.834 -11.167 -84.501 -33.5s-33.834 -53.833 -36.501 -94.5z" />
    <glyph glyph-name="uni0203" unicode="&#x203;" horiz-adv-x="522" 
d="M230 -8c-32.667 0 -61.835 6.33398 -87.502 19.001s-46 30 -61 52s-22.5 46.667 -22.5 74c0 36 9 64.167 27 84.5s48.333 34.833 91 43.5s101.334 13 176.001 13h31v36c0 44.667 -9 77.167 -27 97.5s-46.667 30.5 -86 30.5c-29.333 0 -57.5 -4.33301 -84.5 -13
s-54.833 -22.334 -83.5 -41.001l-24 47c25.333 18 55.333 32.333 90 43s68.334 16 101.001 16c58.667 0 102.167 -15 130.5 -45s42.5 -76 42.5 -138v-311h-58v87c-13.333 -30 -33.5 -53.333 -60.5 -70s-58.5 -25 -94.5 -25zM237.999 41.001
c28.667 0 53.832 6.83105 75.499 20.498s38.834 32.5 51.501 56.5s19 51.333 19 82v33h-30c-60 0 -106.833 -2.66699 -140.5 -8s-57.167 -14.666 -70.5 -27.999s-20 -31.666 -20 -54.999c0 -30 10.333 -54.333 31 -73s48.667 -28 84 -28zM160.997 547.999l-41.9961 4
c3.33301 58.667 18.166 104.834 44.499 138.501s61.166 50.5 104.499 50.5s78.166 -16.833 104.499 -50.5s41.166 -79.834 44.499 -138.501l-42 -4c-2 47.333 -12.333 83.833 -31 109.5s-44 38.5 -76 38.5s-57.333 -12.833 -76 -38.5s-29 -62.167 -31 -109.5z" />
    <glyph glyph-name="uni0204" unicode="&#x204;" horiz-adv-x="576" 
d="M92 0v705h434v-53h-374v-268h353v-53h-353v-278h374v-53h-434zM362 765l-114 171h66l85 -171h-37zM245 765l-116 171h66l87 -171h-37z" />
    <glyph glyph-name="uni0205" unicode="&#x205;" horiz-adv-x="527" 
d="M291 -8c-74.667 0 -133.499 22.1689 -176.499 66.502s-64.5 105.166 -64.5 182.499c0 50 9.66699 94 29 132s46.166 67.667 80.499 89s73.833 32 118.5 32c64.667 0 115 -21 151 -63s54 -99.667 54 -173v-28h-373c2 -60 18.5 -106.167 49.5 -138.5
s74.167 -48.5 129.5 -48.5c30 0 58.167 4.66699 84.5 14s52.166 25 77.499 47l24 -46c-21.333 -20.667 -48.666 -36.834 -81.999 -48.501s-67.333 -17.5 -102 -17.5zM279.001 445.002c-50.667 0 -90.1689 -15.833 -118.502 -47.5s-44.833 -72.5 -49.5 -122.5h317
c-1.33301 53.333 -14.666 95 -39.999 125s-61.666 45 -108.999 45zM319.999 550.002l-81 201h61l56 -201h-36zM202.999 550.002l-82 201h61l56 -201h-35z" />
    <glyph glyph-name="uni0206" unicode="&#x206;" horiz-adv-x="576" 
d="M92 0v705h434v-53h-374v-268h353v-53h-353v-278h374v-53h-434zM201 760l-42 5c4.66699 52 21.834 93 51.501 123s66.834 45 111.501 45s81.834 -15 111.501 -45s46.834 -71 51.501 -123l-42 -5c-2.66699 40.667 -14.834 72.167 -36.501 94.5s-49.834 33.5 -84.501 33.5
s-62.834 -11.167 -84.501 -33.5s-33.834 -53.833 -36.501 -94.5z" />
    <glyph glyph-name="uni0207" unicode="&#x207;" horiz-adv-x="527" 
d="M291 -8c-74.667 0 -133.499 22.1689 -176.499 66.502s-64.5 105.166 -64.5 182.499c0 50 9.66699 94 29 132s46.166 67.667 80.499 89s73.833 32 118.5 32c64.667 0 115 -21 151 -63s54 -99.667 54 -173v-28h-373c2 -60 18.5 -106.167 49.5 -138.5
s74.167 -48.5 129.5 -48.5c30 0 58.167 4.66699 84.5 14s52.166 25 77.499 47l24 -46c-21.333 -20.667 -48.666 -36.834 -81.999 -48.501s-67.333 -17.5 -102 -17.5zM279.001 445.002c-50.667 0 -90.1689 -15.833 -118.502 -47.5s-44.833 -72.5 -49.5 -122.5h317
c-1.33301 53.333 -14.666 95 -39.999 125s-61.666 45 -108.999 45zM171.999 548.002l-41.9961 4c3.33301 58.667 18.166 104.834 44.499 138.501s61.166 50.5 104.499 50.5s78.166 -16.833 104.499 -50.5s41.166 -79.834 44.499 -138.501l-42 -4
c-2 47.333 -12.333 83.833 -31 109.5s-44 38.5 -76 38.5s-57.333 -12.833 -76 -38.5s-29 -62.167 -31 -109.5z" />
    <glyph glyph-name="uni0208" unicode="&#x208;" horiz-adv-x="245" 
d="M92 0v705h61v-705h-61zM162 765l-114 171h66l85 -171h-37zM45 765l-116 171h66l87 -171h-37z" />
    <glyph glyph-name="uni0209" unicode="&#x209;" horiz-adv-x="222" 
d="M80 0v485h61v-485h-61zM152 550l-81 201h61l56 -201h-36zM35 550l-82 201h61l56 -201h-35z" />
    <glyph glyph-name="uni020A" unicode="&#x20a;" horiz-adv-x="245" 
d="M92 0v705h61v-705h-61zM1 760l-42 5c4.66699 52 21.834 93 51.501 123s66.834 45 111.501 45s81.834 -15 111.501 -45s46.834 -71 51.501 -123l-42 -5c-2.66699 40.667 -14.834 72.167 -36.501 94.5s-49.834 33.5 -84.501 33.5s-62.834 -11.167 -84.501 -33.5
s-33.834 -53.833 -36.501 -94.5z" />
    <glyph glyph-name="uni020B" unicode="&#x20b;" horiz-adv-x="222" 
d="M80 0v485h61v-485h-61zM4 548l-41.9961 4c3.33301 58.667 18.166 104.834 44.499 138.501s61.166 50.5 104.499 50.5s78.166 -16.833 104.499 -50.5s41.166 -79.834 44.499 -138.501l-42 -4c-2 47.333 -12.333 83.833 -31 109.5s-44 38.5 -76 38.5
s-57.333 -12.833 -76 -38.5s-29 -62.167 -31 -109.5z" />
    <glyph glyph-name="uni020C" unicode="&#x20c;" horiz-adv-x="759" 
d="M379 -8c-64.667 0 -120.499 14.667 -167.499 44s-83.333 71 -109 125s-38.5 118 -38.5 192s12.667 138 38 192s61.666 95.5 108.999 124.5s103.333 43.5 168 43.5c65.333 0 121.5 -14.5 168.5 -43.5s83.333 -70.333 109 -124s38.5 -117.5 38.5 -191.5
c0 -74.667 -12.833 -139 -38.5 -193s-62.167 -95.667 -109.5 -125s-103.333 -44 -168 -44zM379.001 48c79.333 0 141 26.667 185 80s66 128.333 66 225s-21.833 171.5 -65.5 224.5s-105.5 79.5 -185.5 79.5c-79.333 0 -140.833 -26.667 -184.5 -80s-65.5 -128 -65.5 -224
s21.833 -170.833 65.5 -224.5s105.167 -80.5 184.5 -80.5zM419.001 765l-114 171h66l85 -171h-37zM302.001 765l-116 171h66l87 -171h-37z" />
    <glyph glyph-name="uni020D" unicode="&#x20d;" horiz-adv-x="547" 
d="M273 -8c-45.333 0 -84.666 10.167 -117.999 30.5s-59.166 49.333 -77.499 87s-27.5 82.167 -27.5 133.5c0 50.667 9.16699 94.834 27.5 132.501s44.166 66.834 77.499 87.501s72.666 31 117.999 31c46 0 85.667 -10.333 119 -31s59.166 -49.834 77.499 -87.501
s27.5 -81.834 27.5 -132.501c0 -51.333 -9.16699 -95.833 -27.5 -133.5s-44.166 -66.667 -77.499 -87s-73 -30.5 -119 -30.5zM273 43c49.333 0 88.666 17.5 117.999 52.5s44 84.167 44 147.5s-14.667 112.333 -44 147s-68.666 52 -117.999 52s-88.5 -17.333 -117.5 -52
s-43.5 -83.667 -43.5 -147s14.5 -112.5 43.5 -147.5s68.167 -52.5 117.5 -52.5zM314 550l-81 201h61l56 -201h-36zM197 550l-82 201h61l56 -201h-35z" />
    <glyph glyph-name="uni020E" unicode="&#x20e;" horiz-adv-x="759" 
d="M379 -8c-64.667 0 -120.499 14.667 -167.499 44s-83.333 71 -109 125s-38.5 118 -38.5 192s12.667 138 38 192s61.666 95.5 108.999 124.5s103.333 43.5 168 43.5c65.333 0 121.5 -14.5 168.5 -43.5s83.333 -70.333 109 -124s38.5 -117.5 38.5 -191.5
c0 -74.667 -12.833 -139 -38.5 -193s-62.167 -95.667 -109.5 -125s-103.333 -44 -168 -44zM379.001 48c79.333 0 141 26.667 185 80s66 128.333 66 225s-21.833 171.5 -65.5 224.5s-105.5 79.5 -185.5 79.5c-79.333 0 -140.833 -26.667 -184.5 -80s-65.5 -128 -65.5 -224
s21.833 -170.833 65.5 -224.5s105.167 -80.5 184.5 -80.5zM258.001 760l-42 5c4.66699 52 21.834 93 51.501 123s66.834 45 111.501 45s81.834 -15 111.501 -45s46.834 -71 51.501 -123l-42 -5c-2.66699 40.667 -14.834 72.167 -36.501 94.5s-49.834 33.5 -84.501 33.5
s-62.834 -11.167 -84.501 -33.5s-33.834 -53.833 -36.501 -94.5z" />
    <glyph glyph-name="uni020F" unicode="&#x20f;" horiz-adv-x="547" 
d="M273 -8c-45.333 0 -84.666 10.167 -117.999 30.5s-59.166 49.333 -77.499 87s-27.5 82.167 -27.5 133.5c0 50.667 9.16699 94.834 27.5 132.501s44.166 66.834 77.499 87.501s72.666 31 117.999 31c46 0 85.667 -10.333 119 -31s59.166 -49.834 77.499 -87.501
s27.5 -81.834 27.5 -132.501c0 -51.333 -9.16699 -95.833 -27.5 -133.5s-44.166 -66.667 -77.499 -87s-73 -30.5 -119 -30.5zM273 43c49.333 0 88.666 17.5 117.999 52.5s44 84.167 44 147.5s-14.667 112.333 -44 147s-68.666 52 -117.999 52s-88.5 -17.333 -117.5 -52
s-43.5 -83.667 -43.5 -147s14.5 -112.5 43.5 -147.5s68.167 -52.5 117.5 -52.5zM166 548l-41.9961 4c3.33301 58.667 18.166 104.834 44.499 138.501s61.166 50.5 104.499 50.5s78.166 -16.833 104.499 -50.5s41.166 -79.834 44.499 -138.501l-42 -4
c-2 47.333 -12.333 83.833 -31 109.5s-44 38.5 -76 38.5s-57.333 -12.833 -76 -38.5s-29 -62.167 -31 -109.5z" />
    <glyph glyph-name="uni0210" unicode="&#x210;" horiz-adv-x="661" 
d="M92 0v705.001h266c75.333 0 132.833 -17.333 172.5 -52s59.5 -84 59.5 -148c0 -52.667 -14.333 -95.334 -43 -128.001s-69.334 -53.667 -122.001 -63c28.667 -10.667 54 -36.667 76 -78l128 -236h-67l-122 226c-17.333 31.333 -36.666 52.333 -57.999 63s-50 16 -86 16
h-143v-305h-61zM153 357.001h197c118.667 0 178 49.333 178 148c0 98 -59.333 147 -178 147h-197v-295zM377 765.001l-114 171h66l85 -171h-37zM260 765.001l-116 171h66l87 -171h-37z" />
    <glyph glyph-name="uni0211" unicode="&#x211;" horiz-adv-x="342" 
d="M80 0v485h60v-88c14 30.667 34.333 54 61 70s60.667 25.333 102 28l25 2l6 -53l-43 -5c-47.333 -4 -84 -19.5 -110 -46.5s-39 -63.167 -39 -108.5v-284h-62zM250 550l-81 201h61l56 -201h-36zM133 550l-82 201h61l56 -201h-35z" />
    <glyph glyph-name="uni0212" unicode="&#x212;" horiz-adv-x="661" 
d="M92 0v705.001h266c75.333 0 132.833 -17.333 172.5 -52s59.5 -84 59.5 -148c0 -52.667 -14.333 -95.334 -43 -128.001s-69.334 -53.667 -122.001 -63c28.667 -10.667 54 -36.667 76 -78l128 -236h-67l-122 226c-17.333 31.333 -36.666 52.333 -57.999 63s-50 16 -86 16
h-143v-305h-61zM153 357.001h197c118.667 0 178 49.333 178 148c0 98 -59.333 147 -178 147h-197v-295zM216 760.001l-42 5c4.66699 52 21.834 93 51.501 123s66.834 45 111.501 45s81.834 -15 111.501 -45s46.834 -71 51.501 -123l-42 -5
c-2.66699 40.667 -14.834 72.167 -36.501 94.5s-49.834 33.5 -84.501 33.5s-62.834 -11.167 -84.501 -33.5s-33.834 -53.833 -36.501 -94.5z" />
    <glyph glyph-name="uni0213" unicode="&#x213;" horiz-adv-x="342" 
d="M80 0v485h60v-88c14 30.667 34.333 54 61 70s60.667 25.333 102 28l25 2l6 -53l-43 -5c-47.333 -4 -84 -19.5 -110 -46.5s-39 -63.167 -39 -108.5v-284h-62zM102 548l-41.9961 4c3.33301 58.667 18.166 104.834 44.499 138.501s61.166 50.5 104.499 50.5
s78.166 -16.833 104.499 -50.5s41.166 -79.834 44.499 -138.501l-42 -4c-2 47.333 -12.333 83.833 -31 109.5s-44 38.5 -76 38.5s-57.333 -12.833 -76 -38.5s-29 -62.167 -31 -109.5z" />
    <glyph glyph-name="uni0214" unicode="&#x214;" horiz-adv-x="724" 
d="M362 -8c-90 0 -158.333 24.167 -205 72.5s-70 118.5 -70 210.5v430h61v-425c0 -154.667 71.333 -232 214 -232s214 77.333 214 232v425h61v-430c0 -92 -23.333 -162.167 -70 -210.5s-115 -72.5 -205 -72.5zM402 765l-114 171h66l85 -171h-37zM285 765l-116 171h66
l87 -171h-37z" />
    <glyph glyph-name="uni0215" unicode="&#x215;" horiz-adv-x="553" 
d="M251 -8c-115.333 0 -173 62.667 -173 188v305h61v-302c0 -47.333 9.66699 -82.333 29 -105s49.666 -34 90.999 -34c44.667 0 81.167 15 109.5 45s42.5 70 42.5 120v276h61v-485h-59v86c-16 -30.667 -38.167 -54 -66.5 -70s-60.166 -24 -95.499 -24zM318 551l-81 201h61
l56 -201h-36zM201 551l-82 201h61l56 -201h-35z" />
    <glyph glyph-name="uni0216" unicode="&#x216;" horiz-adv-x="724" 
d="M362 -8c-90 0 -158.333 24.167 -205 72.5s-70 118.5 -70 210.5v430h61v-425c0 -154.667 71.333 -232 214 -232s214 77.333 214 232v425h61v-430c0 -92 -23.333 -162.167 -70 -210.5s-115 -72.5 -205 -72.5zM241 760l-42 5c4.66699 52 21.834 93 51.501 123
s66.834 45 111.501 45s81.834 -15 111.501 -45s46.834 -71 51.501 -123l-42 -5c-2.66699 40.667 -14.834 72.167 -36.501 94.5s-49.834 33.5 -84.501 33.5s-62.834 -11.167 -84.501 -33.5s-33.834 -53.833 -36.501 -94.5z" />
    <glyph glyph-name="uni0217" unicode="&#x217;" horiz-adv-x="553" 
d="M251 -8c-115.333 0 -173 62.667 -173 188v305h61v-302c0 -47.333 9.66699 -82.333 29 -105s49.666 -34 90.999 -34c44.667 0 81.167 15 109.5 45s42.5 70 42.5 120v276h61v-485h-59v86c-16 -30.667 -38.167 -54 -66.5 -70s-60.166 -24 -95.499 -24zM170 549l-41.9961 4
c3.33301 58.667 18.166 104.834 44.499 138.501s61.166 50.5 104.499 50.5s78.166 -16.833 104.499 -50.5s41.166 -79.834 44.499 -138.501l-42 -4c-2 47.333 -12.333 83.833 -31 109.5s-44 38.5 -76 38.5s-57.333 -12.833 -76 -38.5s-29 -62.167 -31 -109.5z" />
    <glyph glyph-name="uni0218" unicode="&#x218;" horiz-adv-x="607" 
d="M312 -8c-54.667 0 -103.832 7.16406 -147.499 21.4971s-81.5 35.5 -113.5 63.5l24 51c34.667 -27.333 70.167 -47.5 106.5 -60.5s79.833 -19.5 130.5 -19.5c63.333 0 110.833 12.333 142.5 37s47.5 57 47.5 97c0 33.333 -11.5 59.333 -34.5 78
s-60.833 33.334 -113.5 44.001l-101 21c-62.667 12.667 -109.5 34 -140.5 64s-46.5 70 -46.5 120c0 40.667 10.5 76.334 31.5 107.001s50.167 54.5 87.5 71.5s80.333 25.5 129 25.5c97.333 0 175 -29.333 233 -88l-24 -50c-30.667 28.667 -62.667 49.5 -96 62.5
s-71 19.5 -113 19.5c-56 0 -100.833 -13.333 -134.5 -40s-50.5 -62.334 -50.5 -107.001c0 -35.333 10.667 -63.166 32 -83.499s55.666 -35.166 102.999 -44.499l102 -21c67.333 -14 117.333 -34.833 150 -62.5s49 -65.5 49 -113.5c0 -38 -10.167 -71.5 -30.5 -100.5
s-49.5 -51.667 -87.5 -68s-83 -24.5 -135 -24.5zM306.002 -263.003l-31 22.001c14 15.333 23.667 29.666 29 42.999s8.33301 27.333 9 42h-42v73h84v-57c0 -23.333 -4 -45.5 -12 -66.5s-20.333 -39.833 -37 -56.5z" />
    <glyph glyph-name="uni0219" unicode="&#x219;" horiz-adv-x="478" 
d="M238 -8c-36 0 -70.498 5.33496 -103.498 16.002s-60.167 26 -81.5 46l22 45c24.667 -20 51 -34.5 79 -43.5s56.667 -13.5 86 -13.5c41.333 0 72.5 7.5 93.5 22.5s31.5 35.833 31.5 62.5c0 20.667 -7 37 -21 49s-36 21.667 -66 29l-87 20c-82 18.667 -123 61 -123 127
c0 42.667 16.667 77 50 103s77.333 39 132 39c33.333 0 64.666 -5.5 93.999 -16.5s53.333 -26.833 72 -47.5l-24 -45c-19.333 19.333 -41.333 33.833 -66 43.5s-50.334 14.5 -77.001 14.5c-38.667 0 -68.5 -8 -89.5 -24s-31.5 -37.667 -31.5 -65
c0 -20.667 6.33301 -37.334 19 -50.001s33.334 -22.334 62.001 -29.001l87 -20c43.333 -10 75.666 -24.833 96.999 -44.5s32 -46.167 32 -79.5c0 -43.333 -17 -77.333 -51 -102s-79.333 -37 -136 -37zM231.002 -262.998l-31 22.001c14 15.333 23.667 29.666 29 42.999
s8.33301 27.333 9 42h-42v73h84v-57c0 -23.333 -4 -45.5 -12 -66.5s-20.333 -39.833 -37 -56.5z" />
    <glyph glyph-name="uni021A" unicode="&#x21a;" horiz-adv-x="594" 
d="M266 0v650h-263v55h588v-55h-263v-650h-62zM290 -263l-31 22.001c14 15.333 23.667 29.666 29 42.999s8.33301 27.333 9 42h-42v73h84v-57c0 -23.333 -4 -45.5 -12 -66.5s-20.333 -39.833 -37 -56.5z" />
    <glyph glyph-name="uni021B" unicode="&#x21b;" horiz-adv-x="335" 
d="M263 -8c-54 0 -94.501 14.668 -121.501 44.001s-40.5 71.333 -40.5 126v274h-96v49h96v150h61v-150h157v-49h-157v-266c0 -40.667 8.33301 -71.667 25 -93s44.334 -32 83.001 -32c11.333 0 22.333 1.33301 33 4s20 5.66699 28 9l12 -48
c-7.33301 -4.66699 -19 -8.83398 -35 -12.501s-31 -5.5 -45 -5.5zM201.999 -262.999l-31 22.001c14 15.333 23.667 29.666 29 42.999s8.33301 27.333 9 42h-42v73h84v-57c0 -23.333 -4 -45.5 -12 -66.5s-20.333 -39.833 -37 -56.5z" />
    <glyph glyph-name="uni021F" unicode="&#x21f;" horiz-adv-x="560" 
d="M80 0l-0.000976562 704.999h61v-304c16.667 30.667 39.834 53.834 69.501 69.501s62.5 23.5 98.5 23.5c115.333 0 173 -62.667 173 -188v-306h-61v301c0 48 -9.66699 83.333 -29 106s-50 34 -92 34c-48 0 -86.5 -14.833 -115.5 -44.5s-43.5 -69.5 -43.5 -119.5v-277h-61z
M250.999 764.999l-122 171h49l104 -126l104 126h49l-122 -171h-62z" />
    <glyph glyph-name="uni0226" unicode="&#x226;" horiz-adv-x="722" 
d="M27 0l307 705h55l306 -705h-64l-81 188h-378l-80 -188h-65zM360 629l-165 -388h332l-165 388h-2zM324 813v75h76v-75h-76z" />
    <glyph glyph-name="uni0227" unicode="&#x227;" horiz-adv-x="522" 
d="M230 -8c-32.667 0 -61.835 6.33398 -87.502 19.001s-46 30 -61 52s-22.5 46.667 -22.5 74c0 36 9 64.167 27 84.5s48.333 34.833 91 43.5s101.334 13 176.001 13h31v36c0 44.667 -9 77.167 -27 97.5s-46.667 30.5 -86 30.5c-29.333 0 -57.5 -4.33301 -84.5 -13
s-54.833 -22.334 -83.5 -41.001l-24 47c25.333 18 55.333 32.333 90 43s68.334 16 101.001 16c58.667 0 102.167 -15 130.5 -45s42.5 -76 42.5 -138v-311h-58v87c-13.333 -30 -33.5 -53.333 -60.5 -70s-58.5 -25 -94.5 -25zM237.999 41.001
c28.667 0 53.832 6.83105 75.499 20.498s38.834 32.5 51.501 56.5s19 51.333 19 82v33h-30c-60 0 -106.833 -2.66699 -140.5 -8s-57.167 -14.666 -70.5 -27.999s-20 -31.666 -20 -54.999c0 -30 10.333 -54.333 31 -73s48.667 -28 84 -28zM228.997 613.999v75h78v-75h-78z
" />
    <glyph glyph-name="uni0228" unicode="&#x228;" horiz-adv-x="576" 
d="M92 0v705h434v-53h-374v-268h353v-53h-353v-278h374v-53h-434zM326 -191c-34.667 0 -62.334 6.33301 -83.001 19l11 39c12 -6 23.333 -10.333 34 -13s23.667 -4 39 -4c18 0 32.5 3.5 43.5 10.5s16.5 16.833 16.5 29.5c0 20 -12.667 30 -38 30
c-7.33301 0 -14.833 -0.5 -22.5 -1.5s-16.5 -3.5 -26.5 -7.5l-16 14l14 95h45l-11 -66c8 1.33301 15.333 2 22 2c22.667 0 41.834 -5.83301 57.501 -17.5s23.5 -28.167 23.5 -49.5c0 -24 -10 -43.333 -30 -58s-46.333 -22 -79 -22z" />
    <glyph glyph-name="uni022A" unicode="&#x22a;" horiz-adv-x="759" 
d="M379 -8c-64.667 0 -120.499 14.667 -167.499 44s-83.333 71 -109 125s-38.5 118 -38.5 192s12.667 138 38 192s61.666 95.5 108.999 124.5s103.333 43.5 168 43.5c65.333 0 121.5 -14.5 168.5 -43.5s83.333 -70.333 109 -124s38.5 -117.5 38.5 -191.5
c0 -74.667 -12.833 -139 -38.5 -193s-62.167 -95.667 -109.5 -125s-103.333 -44 -168 -44zM379.001 48c79.333 0 141 26.667 185 80s66 128.333 66 225s-21.833 171.5 -65.5 224.5s-105.5 79.5 -185.5 79.5c-79.333 0 -140.833 -26.667 -184.5 -80s-65.5 -128 -65.5 -224
s21.833 -170.833 65.5 -224.5s105.167 -80.5 184.5 -80.5zM235.001 926v47h288v-47h-288zM259.001 802v66h73v-66h-73zM426.001 802v66h73v-66h-73z" />
    <glyph glyph-name="uni022B" unicode="&#x22b;" horiz-adv-x="547" 
d="M273 -8c-45.333 0 -84.666 10.167 -117.999 30.5s-59.166 49.333 -77.499 87s-27.5 82.167 -27.5 133.5c0 50.667 9.16699 94.834 27.5 132.501s44.166 66.834 77.499 87.501s72.666 31 117.999 31c46 0 85.667 -10.333 119 -31s59.166 -49.834 77.499 -87.501
s27.5 -81.834 27.5 -132.501c0 -51.333 -9.16699 -95.833 -27.5 -133.5s-44.166 -66.667 -77.499 -87s-73 -30.5 -119 -30.5zM273 43c49.333 0 88.666 17.5 117.999 52.5s44 84.167 44 147.5s-14.667 112.333 -44 147s-68.666 52 -117.999 52s-88.5 -17.333 -117.5 -52
s-43.5 -83.667 -43.5 -147s14.5 -112.5 43.5 -147.5s68.167 -52.5 117.5 -52.5zM129 706v47h288v-47h-288zM153 582v66h73v-66h-73zM320 582v66h73v-66h-73z" />
    <glyph glyph-name="uni022C" unicode="&#x22c;" horiz-adv-x="759" 
d="M379 -8c-64.667 0 -120.499 14.667 -167.499 44s-83.333 71 -109 125s-38.5 118 -38.5 192s12.667 138 38 192s61.666 95.5 108.999 124.5s103.333 43.5 168 43.5c65.333 0 121.5 -14.5 168.5 -43.5s83.333 -70.333 109 -124s38.5 -117.5 38.5 -191.5
c0 -74.667 -12.833 -139 -38.5 -193s-62.167 -95.667 -109.5 -125s-103.333 -44 -168 -44zM379.001 48c79.333 0 141 26.667 185 80s66 128.333 66 225s-21.833 171.5 -65.5 224.5s-105.5 79.5 -185.5 79.5c-79.333 0 -140.833 -26.667 -184.5 -80s-65.5 -128 -65.5 -224
s21.833 -170.833 65.5 -224.5s105.167 -80.5 184.5 -80.5zM235.001 926v47h288v-47h-288zM444.001 768c-12 0 -23.6611 2.49902 -34.9941 7.49902s-24.666 13.167 -39.999 24.5c-13.333 10 -23.833 16.5 -31.5 19.5s-14.834 4.5 -21.501 4.5
c-14.667 0 -25.834 -4.5 -33.501 -13.5s-13.167 -23.833 -16.5 -44.5l-39 2c2.66699 33.333 12 58.166 28 74.499s36 24.5 60 24.5c11.333 0 22.166 -2.16699 32.499 -6.5s23.166 -12.166 38.499 -23.499c14 -10 25 -16.833 33 -20.5s15.667 -5.5 23 -5.5
c15.333 0 26.666 4.5 33.999 13.5s12.666 23.833 15.999 44.5l39 -2c-2.66699 -33.333 -11.834 -58.166 -27.501 -74.499s-35.5 -24.5 -59.5 -24.5z" />
    <glyph glyph-name="uni022D" unicode="&#x22d;" horiz-adv-x="547" 
d="M273 -8c-45.333 0 -84.666 10.167 -117.999 30.5s-59.166 49.333 -77.499 87s-27.5 82.167 -27.5 133.5c0 50.667 9.16699 94.834 27.5 132.501s44.166 66.834 77.499 87.501s72.666 31 117.999 31c46 0 85.667 -10.333 119 -31s59.166 -49.834 77.499 -87.501
s27.5 -81.834 27.5 -132.501c0 -51.333 -9.16699 -95.833 -27.5 -133.5s-44.166 -66.667 -77.499 -87s-73 -30.5 -119 -30.5zM273 43c49.333 0 88.666 17.5 117.999 52.5s44 84.167 44 147.5s-14.667 112.333 -44 147s-68.666 52 -117.999 52s-88.5 -17.333 -117.5 -52
s-43.5 -83.667 -43.5 -147s14.5 -112.5 43.5 -147.5s68.167 -52.5 117.5 -52.5zM129 706v47h288v-47h-288zM160 546l-38.9961 2c2.66699 33.333 12 58.166 28 74.499s36 24.5 60 24.5c11.333 0 22.5 -2.33301 33.5 -7s24.167 -12.667 39.5 -24c22 -16.667 40 -25 54 -25
c15.333 0 26.666 4.5 33.999 13.5s12.666 23.833 15.999 44.5l39 -2c-2.66699 -33.333 -11.834 -58.166 -27.501 -74.499s-35.5 -24.5 -59.5 -24.5c-12 0 -23.667 2.5 -35 7.5s-24.333 12.833 -39 23.5c-22.667 16.667 -40.667 25 -54 25
c-14.667 0 -25.834 -4.5 -33.501 -13.5s-13.167 -23.833 -16.5 -44.5z" />
    <glyph glyph-name="uni0230" unicode="&#x230;" horiz-adv-x="759" 
d="M379 -8c-64.667 0 -120.499 14.667 -167.499 44s-83.333 71 -109 125s-38.5 118 -38.5 192s12.667 138 38 192s61.666 95.5 108.999 124.5s103.333 43.5 168 43.5c65.333 0 121.5 -14.5 168.5 -43.5s83.333 -70.333 109 -124s38.5 -117.5 38.5 -191.5
c0 -74.667 -12.833 -139 -38.5 -193s-62.167 -95.667 -109.5 -125s-103.333 -44 -168 -44zM379.001 48c79.333 0 141 26.667 185 80s66 128.333 66 225s-21.833 171.5 -65.5 224.5s-105.5 79.5 -185.5 79.5c-79.333 0 -140.833 -26.667 -184.5 -80s-65.5 -128 -65.5 -224
s21.833 -170.833 65.5 -224.5s105.167 -80.5 184.5 -80.5zM235.001 926v47h288v-47h-288zM343.001 802v66h73v-66h-73z" />
    <glyph glyph-name="uni0231" unicode="&#x231;" horiz-adv-x="547" 
d="M273 -8c-45.333 0 -84.666 10.167 -117.999 30.5s-59.166 49.333 -77.499 87s-27.5 82.167 -27.5 133.5c0 50.667 9.16699 94.834 27.5 132.501s44.166 66.834 77.499 87.501s72.666 31 117.999 31c46 0 85.667 -10.333 119 -31s59.166 -49.834 77.499 -87.501
s27.5 -81.834 27.5 -132.501c0 -51.333 -9.16699 -95.833 -27.5 -133.5s-44.166 -66.667 -77.499 -87s-73 -30.5 -119 -30.5zM273 43c49.333 0 88.666 17.5 117.999 52.5s44 84.167 44 147.5s-14.667 112.333 -44 147s-68.666 52 -117.999 52s-88.5 -17.333 -117.5 -52
s-43.5 -83.667 -43.5 -147s14.5 -112.5 43.5 -147.5s68.167 -52.5 117.5 -52.5zM129 706v47h288v-47h-288zM237 582v66h73v-66h-73z" />
    <glyph glyph-name="uni0232" unicode="&#x232;" horiz-adv-x="586" 
d="M262 0v338l-269 367h72l229 -313l230 313h69l-269 -368v-337h-62zM134 818v47h318v-47h-318z" />
    <glyph glyph-name="uni0233" unicode="&#x233;" horiz-adv-x="509" 
d="M142 -180l80 182l-206 483h68l171 -418l173 418h66l-286 -665h-66zM111 629v46h288v-46h-288z" />
    <glyph glyph-name="uni0237" unicode="&#x237;" horiz-adv-x="225" 
d="M-53 -193l-4 50.001l42 4c66 5.33301 99 45.333 99 120v504h61v-499c0 -110.667 -51.667 -169.334 -155 -176.001z" />
    <glyph glyph-name="uni0253" unicode="&#x253;" horiz-adv-x="575" 
d="M311 -8c-39.333 0 -73.834 8.83301 -103.501 26.5s-51.834 42.167 -66.501 73.5v-92h-61v554c0 51.333 13.167 90.666 39.5 117.999s64.833 41 115.5 41c18.667 0 35.667 -2.33301 51 -7l-8 -50c-8.66699 2 -15.667 3.33301 -21 4s-11.333 1 -18 1
c-32.667 0 -57.167 -9 -73.5 -27s-24.5 -44 -24.5 -78v-161c14.667 30.667 36.834 54.834 66.501 72.501s64.167 26.5 103.5 26.5c65.333 0 117.5 -22.667 156.5 -68s58.5 -106.333 58.5 -183c0 -51.333 -8.83301 -95.833 -26.5 -133.5s-42.667 -66.667 -75 -87
s-70.166 -30.5 -113.499 -30.5zM301.999 43c49.333 0 88.666 17.5 117.999 52.5s44 84.167 44 147.5s-14.667 112.333 -44 147s-68.666 52 -117.999 52s-88.666 -17.333 -117.999 -52s-44 -83.667 -44 -147s14.667 -112.5 44 -147.5s68.666 -52.5 117.999 -52.5z" />
    <glyph glyph-name="uni0257" unicode="&#x257;" horiz-adv-x="575" 
d="M265 -8c-44 0 -82.001 10.1689 -114.001 30.502s-56.833 49.333 -74.5 87s-26.5 82.167 -26.5 133.5c0 76.667 19.333 137.667 58 183s91 68 157 68c38.667 0 72.834 -8.83301 102.501 -26.5s51.834 -41.834 66.501 -72.501v159c0 51.333 13.167 90.666 39.5 117.999
s64.5 41 114.5 41c19.333 0 36.666 -2.33301 51.999 -7l-8 -50c-9.33301 2 -16.666 3.33301 -21.999 4s-11 1 -17 1c-65.333 0 -98 -35 -98 -105v-556h-60v92c-14.667 -31.333 -36.834 -55.833 -66.501 -73.5s-64.167 -26.5 -103.5 -26.5zM272.999 43.002
c49.333 0 88.666 17.5 117.999 52.5s44 84.167 44 147.5s-14.667 112.333 -44 147s-68.666 52 -117.999 52s-88.5 -17.333 -117.5 -52s-43.5 -83.667 -43.5 -147s14.5 -112.5 43.5 -147.5s68.167 -52.5 117.5 -52.5z" />
    <glyph glyph-name="uni0259" unicode="&#x259;" horiz-adv-x="528" 
d="M255 -8c-66.667 0 -118.332 20.668 -154.999 62.001s-55 100 -55 176v25h373c-2.66699 60 -19.5 106.167 -50.5 138.5s-73.833 48.5 -128.5 48.5c-58 0 -112.333 -20 -163 -60l-23 45c22 20.667 49.667 37 83 49s67.333 18 102 18c74 0 132.5 -22.333 175.5 -67
s64.5 -105.334 64.5 -182.001c0 -51.333 -9.33301 -96 -28 -134s-44.834 -67.333 -78.501 -88s-72.5 -31 -116.5 -31zM255.002 40.001c45.333 0 82.499 14.833 111.499 44.5s45.833 71.5 50.5 125.5h-315c2 -55.333 15.833 -97.5 41.5 -126.5s62.834 -43.5 111.501 -43.5z
" />
    <glyph glyph-name="uni0292" unicode="&#x292;" horiz-adv-x="485" 
d="M226 -188c-43.333 0 -82.6689 5.33203 -118.002 15.999s-64.666 25.667 -87.999 45l24 46c46.667 -37.333 106.334 -56 179.001 -56c55.333 0 97 13.333 125 40s42 65.334 42 116.001c0 44 -13.667 78.333 -41 103s-66 37 -116 37h-106v31l218 244h-308v51h384v-42
l-211 -236h32c66 0 117.5 -16.333 154.5 -49s55.5 -78.667 55.5 -138c0 -64.667 -20 -115.5 -60 -152.5s-95.333 -55.5 -166 -55.5z" />
    <glyph glyph-name="uni02B9" unicode="&#x2b9;" horiz-adv-x="211" 
d="M86 434l-17 271h73l-15 -271h-41z" />
    <glyph glyph-name="uni02BA" unicode="&#x2ba;" horiz-adv-x="366" 
d="M86 434l-17 271h73l-15 -271h-41zM241 434l-17 271h73l-15 -271h-41z" />
    <glyph glyph-name="uni02BB" unicode="&#x2bb;" horiz-adv-x="500" 
d="M208 569l-0.000976562 57.999c0 22 3.33301 42.833 10 62.5s19 38.167 37 55.5l31 -23c-13.333 -14 -22.166 -27.167 -26.499 -39.5s-6.83301 -24.166 -7.5 -35.499h39v-78h-83z" />
    <glyph glyph-name="uni02BC" unicode="&#x2bc;" horiz-adv-x="311" 
d="M151 573l-31.002 23c12.667 14 21.334 27 26.001 39s7.33398 24 8.00098 36h-39v78h83v-58c0 -22 -3.33301 -42.833 -10 -62.5s-19 -38.167 -37 -55.5z" />
    <glyph glyph-name="uni02BE" unicode="&#x2be;" horiz-adv-x="500" 
d="M250 555v40.001c16.667 0 30 5.5 40 16.5s15 24.167 15 39.5c0 16 -5 29.5 -15 40.5s-23.333 16.5 -40 16.5v41c28.667 0 52.334 -9.5 71.001 -28.5s28 -42.167 28 -69.5c0 -26.667 -9.33301 -49.334 -28 -68.001s-42.334 -28 -71.001 -28z" />
    <glyph glyph-name="uni02BF" unicode="&#x2bf;" horiz-adv-x="500" 
d="M250 555c-28.667 0 -52.334 9.33203 -71.001 27.999s-28 41.334 -28 68.001c0 27.333 9.33301 50.5 28 69.5s42.334 28.5 71.001 28.5v-41c-16 0 -29.167 -5.5 -39.5 -16.5s-15.5 -24.5 -15.5 -40.5c0 -15.333 5.16699 -28.5 15.5 -39.5s23.5 -16.5 39.5 -16.5v-40z" />
    <glyph glyph-name="circumflex" unicode="&#x2c6;" horiz-adv-x="500" 
d="M110 550l109 201h62l109 -201h-45l-95 155l-95 -155h-45z" />
    <glyph glyph-name="caron" unicode="&#x2c7;" horiz-adv-x="500" 
d="M219 550l-109 201h45l95 -155l95 155h45l-109 -201h-62z" />
    <glyph glyph-name="uni02C8" unicode="&#x2c8;" horiz-adv-x="500" 
d="M225 596v199h50v-199h-50z" />
    <glyph glyph-name="uni02C9" unicode="&#x2c9;" horiz-adv-x="500" 
d="M106 629v46h288v-46h-288z" />
    <glyph glyph-name="uni02CA" unicode="&#x2ca;" horiz-adv-x="500" 
d="M227 550l103 201h70l-127 -201h-46z" />
    <glyph glyph-name="fourthtofinechinese" unicode="&#x2cb;" horiz-adv-x="500" 
d="M227 550l-127 201h70l103 -201h-46z" />
    <glyph glyph-name="uni02CC" unicode="&#x2cc;" horiz-adv-x="500" 
d="M225 -270v199h50v-199h-50z" />
    <glyph glyph-name="breve" unicode="&#x2d8;" horiz-adv-x="500" 
d="M250 548c-43.333 0 -78.1699 16.667 -104.503 50s-41.166 79.333 -44.499 138l42 5c2 -47.333 12.333 -83.833 31 -109.5s44 -38.5 76 -38.5s57.333 12.833 76 38.5s29 62.167 31 109.5l42 -5c-3.33301 -58.667 -18.166 -104.667 -44.499 -138s-61.166 -50 -104.499 -50z
" />
    <glyph glyph-name="dotaccent" unicode="&#x2d9;" horiz-adv-x="500" 
d="M211 614v75h78v-75h-78z" />
    <glyph glyph-name="ring" unicode="&#x2da;" horiz-adv-x="500" 
d="M250 547c-32.667 0 -60 11 -82 33s-33 48.667 -33 80s11 57.833 33 79.5s49.333 32.5 82 32.5s60 -10.833 82 -32.5s33 -48.167 33 -79.5s-11 -58 -33 -80s-49.333 -33 -82 -33zM250 584c22 0 40 7.33301 54 22s21 32.667 21 54s-7 39.166 -21 53.499s-32 21.5 -54 21.5
s-40 -7.16699 -54 -21.5s-21 -32.166 -21 -53.499s7 -39.333 21 -54s32 -22 54 -22z" />
    <glyph glyph-name="ogonek" unicode="&#x2db;" horiz-adv-x="500" 
d="M232 -191c-29.333 0 -53.1689 8.50195 -71.502 25.502s-27.5 40.167 -27.5 69.5c0 25.333 8.16699 49.666 24.5 72.999s38.833 42.333 67.5 57l25 -34c-15.333 -6.66699 -30.666 -17.834 -45.999 -33.501s-23 -34.5 -23 -56.5c0 -20 5.66699 -34.667 17 -44
s25.333 -14 42 -14s34.334 4 53.001 12l14 -38c-18.667 -11.333 -43.667 -17 -75 -17z" />
    <glyph glyph-name="tilde" unicode="&#x2dc;" horiz-adv-x="500" 
d="M115 592l-39.0029 2.99707c4 40 14.833 71.167 32.5 93.5s40.834 33.5 69.501 33.5c14 0 27.167 -3.66699 39.5 -11s26.5 -18.666 42.5 -33.999c14.667 -13.333 26.5 -22.666 35.5 -27.999s17.833 -8 26.5 -8c34 0 55 28 63 84l39 -3c-4 -40 -14.833 -71.167 -32.5 -93.5
s-40.5 -33.5 -68.5 -33.5c-13.333 0 -26.166 3.5 -38.499 10.5s-27.166 18.5 -44.499 34.5c-14 12.667 -25.5 21.834 -34.5 27.501s-18.167 8.5 -27.5 8.5c-34 0 -55 -28 -63 -84z" />
    <glyph glyph-name="hungarumlaut" unicode="&#x2dd;" horiz-adv-x="500" 
d="M291 550l56 201h61l-81 -201h-36zM173 550l56 201h61l-81 -201h-36z" />
    <glyph glyph-name="gravecomb" unicode="&#x300;" 
d="M-23 550l-127 201h70l103 -201h-46z" />
    <glyph glyph-name="acutecomb" unicode="&#x301;" 
d="M-23 550l103 201h70l-127 -201h-46z" />
    <glyph glyph-name="uni0302" unicode="&#x302;" 
d="M-140 550l109 201h62l109 -201h-45l-95 155l-95 -155h-45z" />
    <glyph glyph-name="tildecomb" unicode="&#x303;" 
d="M-135 592l-39.0029 2.99707c4 40 14.833 71.167 32.5 93.5s40.834 33.5 69.501 33.5c14 0 27.167 -3.66699 39.5 -11s26.5 -18.666 42.5 -33.999c14.667 -13.333 26.5 -22.666 35.5 -27.999s17.833 -8 26.5 -8c34 0 55 28 63 84l39 -3
c-4 -40 -14.833 -71.167 -32.5 -93.5s-40.5 -33.5 -68.5 -33.5c-13.333 0 -26.166 3.5 -38.499 10.5s-27.166 18.5 -44.499 34.5c-14 12.667 -25.5 21.834 -34.5 27.501s-18.167 8.5 -27.5 8.5c-34 0 -55 -28 -63 -84z" />
    <glyph glyph-name="uni0304" unicode="&#x304;" 
d="M-144 629v46h288v-46h-288z" />
    <glyph glyph-name="uni0306" unicode="&#x306;" 
d="M0 548c-43.333 0 -78.1699 16.667 -104.503 50s-41.166 79.333 -44.499 138l42 5c2 -47.333 12.333 -83.833 31 -109.5s44 -38.5 76 -38.5s57.333 12.833 76 38.5s29 62.167 31 109.5l42 -5c-3.33301 -58.667 -18.166 -104.667 -44.499 -138s-61.166 -50 -104.499 -50z
" />
    <glyph glyph-name="uni0307" unicode="&#x307;" 
d="M-39 614v75h78v-75h-78z" />
    <glyph glyph-name="uni0308" unicode="&#x308;" 
d="M47 615v72h73v-72h-73zM-120 615v72h73v-72h-73z" />
    <glyph glyph-name="hookabovecomb" unicode="&#x309;" 
d="M-23 550l-0.000976562 20.002c0 16 3.33301 29.167 10 39.5s14.334 19.166 23.001 26.499s16.334 14.666 23.001 21.999s10 16.333 10 27c0 19.333 -16.667 29 -50 29c-10 0 -20 -1.16699 -30 -3.5s-21 -6.16602 -33 -11.499l-12 37c22 14 50.333 21 85 21
c29.333 0 52.166 -5.83301 68.499 -17.5s24.5 -28.167 24.5 -49.5c0 -16.667 -3.66699 -30 -11 -40s-15.833 -18.667 -25.5 -26s-18.167 -15.333 -25.5 -24s-11 -20.334 -11 -35.001v-15h-46z" />
    <glyph glyph-name="uni030A" unicode="&#x30a;" 
d="M0 547c-32.667 0 -60 11 -82 33s-33 48.667 -33 80s11 57.833 33 79.5s49.333 32.5 82 32.5s60 -10.833 82 -32.5s33 -48.167 33 -79.5s-11 -58 -33 -80s-49.333 -33 -82 -33zM0 584c22 0 40 7.33301 54 22s21 32.667 21 54s-7 39.166 -21 53.499s-32 21.5 -54 21.5
s-40 -7.16699 -54 -21.5s-21 -32.166 -21 -53.499s7 -39.333 21 -54s32 -22 54 -22z" />
    <glyph glyph-name="uni030B" unicode="&#x30b;" 
d="M41 550l56 201h61l-81 -201h-36zM-77 550l56 201h61l-81 -201h-36z" />
    <glyph glyph-name="uni030C" unicode="&#x30c;" 
d="M-31 550l-109 201h45l95 -155l95 155h45l-109 -201h-62z" />
    <glyph glyph-name="uni030F" unicode="&#x30f;" 
d="M41 550l-81 201h61l56 -201h-36zM-76 550l-82 201h61l56 -201h-35z" />
    <glyph glyph-name="uni0311" unicode="&#x311;" 
d="M-107 548l-41.9961 4c3.33301 58.667 18.166 104.834 44.499 138.501s61.166 50.5 104.499 50.5s78.166 -16.833 104.499 -50.5s41.166 -79.834 44.499 -138.501l-42 -4c-2 47.333 -12.333 83.833 -31 109.5s-44 38.5 -76 38.5s-57.333 -12.833 -76 -38.5
s-29 -62.167 -31 -109.5z" />
    <glyph glyph-name="uni0312" unicode="&#x312;" 
d="M-42 569v57c0 23.333 4 45.5 12 66.5s20.333 39.833 37 56.5l31 -23c-14 -15.333 -23.667 -29.5 -29 -42.5s-8.33301 -26.833 -9 -41.5h42v-73h-84z" />
    <glyph glyph-name="uni031B" unicode="&#x31b;" 
d="M27 441l-28 21v23c45.333 0.666992 75.833 10.667 91.5 30s23.5 48.333 23.5 87v14h56v-24c0 -46 -12.333 -82 -37 -108s-60 -40.333 -106 -43z" />
    <glyph glyph-name="dotbelowcomb" unicode="&#x323;" 
d="M-39 -179v75h78v-75h-78z" />
    <glyph glyph-name="uni0324" unicode="&#x324;" 
d="M47 -176v73h73v-73h-73zM-120 -176v73h73v-73h-73z" />
    <glyph glyph-name="uni0326" unicode="&#x326;" 
d="M-7 -263l-31 22.001c14 15.333 23.667 29.666 29 42.999s8.33301 27.333 9 42h-42v73h84v-57c0 -23.333 -4 -45.5 -12 -66.5s-20.333 -39.833 -37 -56.5z" />
    <glyph glyph-name="uni0327" unicode="&#x327;" 
d="M4 -191c-34.667 0 -62.334 6.33301 -83.001 19l11 39c12 -6 23.333 -10.333 34 -13s23.667 -4 39 -4c18 0 32.5 3.5 43.5 10.5s16.5 16.833 16.5 29.5c0 20 -12.667 30 -38 30c-7.33301 0 -14.833 -0.5 -22.5 -1.5s-16.5 -3.5 -26.5 -7.5l-16 14l14 95h45l-11 -66
c8 1.33301 15.333 2 22 2c22.667 0 41.834 -5.83301 57.501 -17.5s23.5 -28.167 23.5 -49.5c0 -24 -10 -43.333 -30 -58s-46.333 -22 -79 -22z" />
    <glyph glyph-name="uni0328" unicode="&#x328;" 
d="M-18 -191c-29.333 0 -53.1689 8.50195 -71.502 25.502s-27.5 40.167 -27.5 69.5c0 25.333 8.16699 49.666 24.5 72.999s38.833 42.333 67.5 57l25 -34c-15.333 -6.66699 -30.666 -17.834 -45.999 -33.501s-23 -34.5 -23 -56.5c0 -20 5.66699 -34.667 17 -44
s25.333 -14 42 -14s34.334 4 53.001 12l14 -38c-18.667 -11.333 -43.667 -17 -75 -17z" />
    <glyph glyph-name="uni032E" unicode="&#x32e;" 
d="M0 -215c-43.333 0 -78.1699 13.167 -104.503 39.5s-41.166 62.5 -44.499 108.5l42 5c2 -34 12.333 -60.5 31 -79.5s44 -28.5 76 -28.5s57.333 9.5 76 28.5s29 45.5 31 79.5l42 -5c-3.33301 -46 -18.166 -82.167 -44.499 -108.5s-61.166 -39.5 -104.499 -39.5z" />
    <glyph glyph-name="uni0331" unicode="&#x331;" 
d="M-144 -152v46h288v-46h-288z" />
    <glyph glyph-name="uni0335" unicode="&#x335;" 
d="M-175 524v48h350v-48h-350z" />
    <glyph glyph-name="uni0337" unicode="&#x337;" 
d="M-109 263l-27 45l245 143l27 -45z" />
    <glyph glyph-name="uni0338" unicode="&#x338;" 
d="M-140 -41l-39 24l319 548l39 -23z" />
    <glyph glyph-name="uni0394" unicode="&#x394;" horiz-adv-x="722" 
d="M46 0v39l288 666h55l287 -666v-39h-630zM360 628l-246 -575h495l-247 575h-2z" />
    <glyph glyph-name="Sigma" unicode="&#x3a3;" horiz-adv-x="600" 
d="M50 -180v45l279 398l-279 397v45h500v-54h-421l257 -368v-41l-257 -368h421v-54h-500z" />
    <glyph glyph-name="uni03A9" unicode="&#x3a9;" horiz-adv-x="769" 
d="M43 0l-0.00292969 54.001h208c-66 44.667 -114.667 95.667 -146 153s-47 120.333 -47 189c0 66 13.5 122.667 40.5 170s65 83.666 114 108.999s106.5 38 172.5 38c65.333 0 122.5 -12.5 171.5 -37.5s86.833 -61.333 113.5 -109s40 -104.5 40 -170.5
c0 -68.667 -15.5 -131.667 -46.5 -189s-79.5 -108.333 -145.5 -153h208v-54h-282v51c68.667 48 119.334 100.167 152.001 156.5s49 117.833 49 184.5c0 84.667 -23.167 150 -69.5 196s-109.833 69 -190.5 69c-81.333 0 -145.166 -23.167 -191.499 -69.5
s-69.5 -111.5 -69.5 -195.5c0 -66.667 16.333 -128.167 49 -184.5s83.334 -108.5 152.001 -156.5v-51h-282z" />
    <glyph glyph-name="uni03BC" unicode="&#x3bc;" horiz-adv-x="553" 
d="M78 -180l0.000976562 665h61v-302c0 -47.333 9.66699 -82.333 29 -105s49.666 -34 90.999 -34c44.667 0 81.167 15 109.5 45s42.5 70 42.5 120v276h61v-485h-59v89c-14.667 -32 -35.667 -56.167 -63 -72.5s-58 -24.5 -92 -24.5c-26 0 -49.667 3.83301 -71 11.5
s-39 21.5 -53 41.5l5 -225h-61z" />
    <glyph glyph-name="pi" unicode="&#x3c0;" horiz-adv-x="573" 
d="M500 -4c-54.667 0 -93.834 15.5 -117.501 46.5s-35.5 73.167 -35.5 126.5v267h-182c-1.33301 -89.333 -7.66602 -169.833 -18.999 -241.5s-27.333 -136.5 -48 -194.5h-66c46 124.667 70 270 72 436h-99v49h526v-49h-123v-265c0 -40.667 7.83301 -71 23.5 -91
s41.834 -30 78.501 -30c15.333 0 32.666 1.66699 51.999 5l-3 -53c-22 -4 -41.667 -6 -59 -6z" />
    <glyph glyph-name="uni0400" unicode="&#x400;" horiz-adv-x="576" 
d="M92 0v705h434v-53h-374v-268h353v-53h-353v-278h374v-53h-434zM297 765l-141 171h73l118 -171h-50z" />
    <glyph glyph-name="uni0401" unicode="&#x401;" horiz-adv-x="576" 
d="M92 0v705h434v-53h-374v-268h353v-53h-353v-278h374v-53h-434zM369 813v73h73v-73h-73zM202 813v73h73v-73h-73z" />
    <glyph glyph-name="uni0402" unicode="&#x402;" horiz-adv-x="829" 
d="M573 -188c-22 0 -43.001 1.83203 -63.001 5.49902s-37 8.83398 -51 15.501l15 50c26.667 -12 58.334 -18 95.001 -18c44.667 0 79 15 103 45s36 75 36 135v95c0 80 -17.5 139.167 -52.5 177.5s-88.5 57.5 -160.5 57.5c-67.333 0 -123 -14.333 -167 -43v-332h-62v650h-263
v55h588v-55h-263v-257c19.333 12 44.333 21.5 75 28.5s62.667 10.5 96 10.5c180 0 270 -95.333 270 -286v-99c0 -76.667 -17.167 -135 -51.5 -175s-82.5 -60 -144.5 -60z" />
    <glyph glyph-name="uni0403" unicode="&#x403;" horiz-adv-x="534" 
d="M92 0v705h429v-55h-368v-650h-61zM251 765l118 171h73l-141 -171h-50z" />
    <glyph glyph-name="uni0404" unicode="&#x404;" horiz-adv-x="670" 
d="M386 -8c-67.333 0 -124.999 14.499 -172.999 43.499s-84.833 70.5 -110.5 124.5s-38.5 118.333 -38.5 193c0 74 12.833 138 38.5 192s62.5 95.5 110.5 124.5s105.667 43.5 173 43.5c48.667 0 93.5 -7.83301 134.5 -23.5s75.833 -38.5 104.5 -68.5l-27 -51
c-31.333 30.667 -63.833 52.667 -97.5 66s-71.5 20 -113.5 20c-79.333 0 -140.833 -24 -184.5 -72s-67.834 -114.333 -72.501 -199h369v-54h-369c3.33301 -89.333 27 -158.666 71 -207.999s106 -74 186 -74c42 0 79.833 6.66699 113.5 20s66.167 35.333 97.5 66l27 -51
c-28.667 -30 -63.5 -52.833 -104.5 -68.5s-85.833 -23.5 -134.5 -23.5z" />
    <glyph glyph-name="uni0405" unicode="&#x405;" horiz-adv-x="607" 
d="M312 -8c-54.667 0 -103.832 7.16406 -147.499 21.4971s-81.5 35.5 -113.5 63.5l24 51c34.667 -27.333 70.167 -47.5 106.5 -60.5s79.833 -19.5 130.5 -19.5c63.333 0 110.833 12.333 142.5 37s47.5 57 47.5 97c0 33.333 -11.5 59.333 -34.5 78
s-60.833 33.334 -113.5 44.001l-101 21c-62.667 12.667 -109.5 34 -140.5 64s-46.5 70 -46.5 120c0 40.667 10.5 76.334 31.5 107.001s50.167 54.5 87.5 71.5s80.333 25.5 129 25.5c97.333 0 175 -29.333 233 -88l-24 -50c-30.667 28.667 -62.667 49.5 -96 62.5
s-71 19.5 -113 19.5c-56 0 -100.833 -13.333 -134.5 -40s-50.5 -62.334 -50.5 -107.001c0 -35.333 10.667 -63.166 32 -83.499s55.666 -35.166 102.999 -44.499l102 -21c67.333 -14 117.333 -34.833 150 -62.5s49 -65.5 49 -113.5c0 -38 -10.167 -71.5 -30.5 -100.5
s-49.5 -51.667 -87.5 -68s-83 -24.5 -135 -24.5z" />
    <glyph glyph-name="uni0406" unicode="&#x406;" horiz-adv-x="245" 
d="M92 0v705h61v-705h-61z" />
    <glyph glyph-name="uni0407" unicode="&#x407;" horiz-adv-x="245" 
d="M92 0v705h61v-705h-61zM169 813v73h73v-73h-73zM2 813v73h73v-73h-73z" />
    <glyph glyph-name="uni0408" unicode="&#x408;" horiz-adv-x="310" 
d="M-5 -7l-4.99902 54l56 4c35.333 2.66699 62.666 15.667 81.999 39s29 54.333 29 93v522h62v-523c0 -55.333 -14.333 -99 -43 -131s-70 -50 -124 -54z" />
    <glyph glyph-name="uni0409" unicode="&#x409;" horiz-adv-x="1128" 
d="M46 -14l-27 51.002c26 14 49.5 30.833 70.5 50.5s39 46 54 79s26.667 76 35 129s12.5 119.167 12.5 198.5v211h435v-319h221c73.333 0 130 -15.833 170 -47.5s60 -79.834 60 -144.501c0 -64 -20 -112.333 -60 -145s-96.667 -49 -170 -49h-282v650h-316v-171
c0 -102 -7.83301 -185.333 -23.5 -250s-38.5 -115.834 -68.5 -153.501s-67 -67.5 -111 -89.5zM626 53.002h216c115.333 0 173 47 173 141c0 92.667 -57.667 139 -173 139h-216v-280z" />
    <glyph glyph-name="uni040A" unicode="&#x40a;" horiz-adv-x="1166" 
d="M92 0v705.001h61v-320h450v320h61v-319h221c73.333 0 130 -15.833 170 -47.5s60 -79.834 60 -144.501c0 -64 -20 -112.333 -60 -145s-96.667 -49 -170 -49h-282v330h-450v-330h-61zM664 53.001h216c115.333 0 173 47 173 141c0 92.667 -57.667 139 -173 139h-216v-280z
" />
    <glyph glyph-name="uni040B" unicode="&#x40b;" horiz-adv-x="841" 
d="M266 0v649.999h-263v55h588v-55h-263v-257c22 12.667 49.5 22.334 82.5 29.001s65.833 10 98.5 10c88.667 0 156.167 -24 202.5 -72s69.5 -119.333 69.5 -214v-146h-62v140c0 80.667 -18 140 -54 178s-89 57 -159 57c-32 0 -63.167 -3.16699 -93.5 -9.5
s-58.5 -17.5 -84.5 -33.5v-332h-62z" />
    <glyph glyph-name="uni040C" unicode="&#x40c;" horiz-adv-x="626" 
d="M92 0v705h61v-321h135l215 321h70l-222 -329c30.667 -8 57.667 -23.333 81 -46s43.666 -52 60.999 -88l119 -242h-68l-99 208c-21.333 44 -45.166 75.333 -71.499 94s-58.5 28 -96.5 28h-124v-330h-61zM296 765l118 171h73l-141 -171h-50z" />
    <glyph glyph-name="uni040D" unicode="&#x40d;" horiz-adv-x="736" 
d="M92 0v705h57v-603l446 603h49v-705h-57v604l-447 -604h-48zM343 765l-141 171h73l118 -171h-50z" />
    <glyph glyph-name="uni040E" unicode="&#x40e;" horiz-adv-x="635" 
d="M206 0l109 210l-310 495h67l273 -436l225 436h64l-362 -705h-66zM319 760c-39.333 0 -76 10 -110 30s-59 52.667 -75 98l40 15c14 -34 33 -59 57 -75s53 -24 87 -24c35.333 0 64.5 7.16699 87.5 21.5s44.833 39.833 65.5 76.5l39 -14
c-22 -48.667 -49.833 -82.167 -83.5 -100.5s-69.5 -27.5 -107.5 -27.5z" />
    <glyph glyph-name="uni040F" unicode="&#x40f;" horiz-adv-x="751" 
d="M347 -153v153h-255v705h61v-650h444v650h62v-705h-255v-153h-57z" />
    </font>
</defs>
</svg>
